{"glyphs":{"0":{"ha":835,"x_min":99,"x_max":757,"o":"m 490 976 q 734 858 674 976 q 757 475 794 739 q 631 97 719 211 q 365 -18 542 -18 q 122 100 183 -18 q 99 483 61 218 q 224 863 136 749 q 490 976 313 976 m 489 869 q 306 780 367 869 q 217 475 246 690 q 218 175 186 261 q 364 89 250 89 q 547 178 486 89 q 639 483 608 267 q 638 783 669 697 q 489 869 606 869 z "},"1":{"ha":549,"x_min":92,"x_max":471,"o":"m 336 0 l 215 0 l 322 763 q 339 846 326 804 l 94 769 l 92 860 l 349 958 l 471 958 l 336 0 z "},"2":{"ha":774,"x_min":18,"x_max":719,"o":"m 156 844 l 154 939 q 447 975 314 975 q 663 931 593 975 q 719 764 733 886 q 660 600 708 676 q 503 417 613 524 l 189 113 q 338 118 251 118 l 664 118 l 647 0 l 18 0 l 29 79 q 50 131 33 114 l 374 444 q 535 624 482 549 q 596 768 589 699 q 566 849 603 831 q 438 867 529 867 q 156 844 296 867 z "},"3":{"ha":764,"x_min":19,"x_max":700,"o":"m 165 857 l 161 951 q 429 976 313 976 q 649 922 588 976 q 700 750 711 867 q 648 588 690 660 q 528 507 606 517 l 526 501 q 642 426 608 488 q 661 263 676 364 q 299 -18 619 -6 q 19 7 176 -22 l 35 101 q 290 92 226 88 q 540 285 511 107 q 379 456 571 454 l 199 458 l 211 551 l 386 551 q 531 601 489 553 q 582 731 574 650 q 558 841 592 814 q 403 868 524 868 q 165 857 301 868 z "},"4":{"ha":847,"x_min":54,"x_max":779,"o":"m 767 247 l 642 235 l 608 0 l 493 0 l 525 235 l 153 235 q 55 287 83 235 q 63 394 26 339 l 410 958 l 533 958 l 186 389 q 208 335 153 335 l 539 335 l 579 617 l 624 775 l 717 775 l 656 335 l 779 335 l 767 247 z "},"5":{"ha":740,"x_min":22,"x_max":715,"o":"m 694 854 l 292 854 l 242 593 l 340 585 q 589 507 513 572 q 647 292 665 442 q 622 190 640 238 q 567 95 604 143 q 460 17 529 47 q 299 -17 392 -12 q 22 18 168 -24 l 44 117 q 272 92 171 85 q 529 301 504 104 q 487 442 543 406 q 267 486 431 479 l 176 493 q 138 513 151 496 q 129 556 124 531 l 207 958 l 715 958 l 694 854 z "},"6":{"ha":790,"x_min":83,"x_max":729,"o":"m 729 953 l 713 865 q 533 871 651 871 q 379 844 433 871 q 289 741 325 817 q 226 514 253 665 q 481 625 332 622 q 670 555 613 628 q 703 308 728 482 q 601 63 679 143 q 353 -17 524 -17 q 157 34 221 -17 q 83 193 93 85 q 100 472 74 301 q 158 735 124 635 q 248 888 193 836 q 365 958 303 940 q 526 975 428 975 q 729 953 617 975 m 451 526 q 335 498 392 525 q 208 403 278 471 q 211 153 182 219 q 360 88 240 88 q 521 144 472 88 q 586 318 569 200 q 578 482 604 436 q 451 526 551 528 z "},"7":{"ha":708,"x_min":117,"x_max":726,"o":"m 125 958 l 668 958 q 726 935 711 958 q 721 872 740 911 l 300 0 l 178 0 l 557 786 q 597 854 585 838 l 117 854 l 125 958 z "},"8":{"ha":842,"x_min":71,"x_max":768,"o":"m 263 497 l 265 503 q 160 724 131 519 q 249 917 179 860 q 492 972 319 974 q 728 913 671 972 q 768 715 786 853 q 601 499 739 514 l 599 493 q 721 235 757 476 q 629 43 703 99 q 368 -14 556 -12 q 120 47 189 -15 q 71 243 51 108 q 131 426 88 363 q 263 497 174 489 m 483 874 q 324 838 365 874 q 268 704 282 803 q 288 576 254 607 q 444 546 322 546 q 601 578 561 546 q 656 713 642 611 q 637 840 669 807 q 483 874 604 874 m 425 449 q 251 413 296 447 q 189 260 206 378 q 213 126 175 161 q 379 90 250 90 q 549 128 501 90 q 610 269 597 167 q 592 415 626 381 q 425 449 557 449 z "},"9":{"ha":790,"x_min":65,"x_max":711,"o":"m 65 6 l 83 94 q 274 88 158 88 q 485 163 425 92 q 586 450 546 235 q 472 361 529 388 q 340 333 415 335 q 143 415 194 332 q 111 650 92 497 q 216 899 132 824 q 463 975 300 975 q 701 868 649 975 q 711 486 754 761 q 653 231 686 328 q 567 78 621 133 q 449 3 514 22 q 281 -17 383 -17 q 65 6 163 -17 m 364 431 q 482 459 429 432 q 604 557 535 486 q 602 805 631 739 q 454 871 574 871 q 290 818 339 871 q 225 640 242 765 q 240 478 210 526 q 364 431 271 429 z "}," ":{"ha":310,"x_min":0,"x_max":0,"o":""},"!":{"ha":376,"x_min":78,"x_max":325,"o":"m 265 540 l 219 293 l 126 293 l 149 540 l 208 965 l 325 965 l 265 540 m 136 164 l 168 164 q 207 118 215 164 l 197 42 q 151 0 192 0 l 119 0 q 78 46 72 0 l 89 124 q 136 164 94 164 z "},"\"":{"ha":486,"x_min":138,"x_max":468,"o":"m 218 660 l 138 660 l 172 958 l 268 958 l 218 660 m 419 660 l 338 660 l 372 958 l 468 958 l 419 660 z "},"#":{"ha":947,"x_min":43,"x_max":929,"o":"m 750 622 l 671 372 l 824 372 l 800 296 l 647 296 l 554 0 l 461 0 l 554 296 l 299 296 l 206 0 l 113 0 l 206 296 l 43 296 l 68 372 l 229 372 l 308 622 l 147 622 l 174 699 l 332 699 l 414 958 l 507 958 l 426 699 l 681 699 l 763 958 l 856 958 l 775 699 l 929 699 l 903 622 l 750 622 m 657 622 l 401 622 l 322 372 l 578 372 l 657 622 z "},"$":{"ha":783,"x_min":40,"x_max":747,"o":"m 747 947 l 733 858 q 528 865 660 863 l 456 529 l 531 501 q 670 402 636 463 q 689 232 704 342 q 590 33 668 82 q 332 -17 511 -17 l 329 -17 l 294 -176 l 236 -176 l 271 -15 q 40 10 163 -12 l 56 100 q 294 93 268 93 l 368 436 l 279 468 q 145 568 181 504 q 125 735 110 632 q 153 842 133 799 q 201 913 174 886 q 271 953 228 939 q 357 971 314 967 q 464 975 400 975 l 492 975 l 521 1110 l 579 1110 l 550 972 q 747 947 651 968 m 469 865 l 460 865 q 390 865 413 865 q 338 857 368 864 q 293 835 307 850 q 266 793 279 821 q 247 722 253 765 q 257 624 238 651 q 343 571 276 596 l 401 549 l 469 865 m 422 415 l 353 93 q 510 124 465 96 q 567 244 554 153 q 557 344 576 315 q 471 397 538 372 l 422 415 z "},"%":{"ha":1242,"x_min":103,"x_max":1158,"o":"m 357 976 q 525 910 482 976 q 547 688 568 843 q 469 471 525 535 q 292 407 413 407 q 124 474 167 407 q 103 696 81 542 q 181 913 125 850 q 357 976 238 976 m 297 0 l 206 0 l 961 958 l 1053 958 l 297 0 m 360 901 q 243 856 276 901 q 192 688 210 810 q 197 526 176 571 q 288 482 217 482 q 406 528 372 482 q 457 696 440 575 q 453 857 474 813 q 360 901 433 901 m 969 556 q 1138 488 1096 556 q 1158 265 1181 421 q 1081 50 1138 114 q 903 -14 1024 -14 q 735 53 778 -14 q 715 275 693 121 q 792 492 736 428 q 969 556 849 556 m 972 481 q 856 434 889 481 q 804 265 822 388 q 808 104 789 149 q 900 60 828 60 q 1018 106 983 60 q 1069 275 1053 153 q 1066 436 1086 392 q 972 481 1046 481 z "},"&":{"ha":1049,"x_min":61,"x_max":1010,"o":"m 994 450 l 846 450 q 760 196 822 294 q 331 -15 631 -12 q 107 44 171 -17 q 61 247 43 104 q 135 427 76 365 q 300 494 193 489 l 301 501 q 165 728 128 514 q 273 924 190 875 q 528 972 356 972 q 763 943 651 972 l 742 851 q 531 872 651 872 q 352 840 403 872 q 285 704 301 807 q 306 576 269 610 q 453 543 343 543 l 747 543 q 751 722 751 599 l 860 722 q 856 543 861 626 l 1010 543 l 994 450 m 738 450 l 440 450 q 263 410 318 449 q 190 258 208 371 q 208 126 175 161 q 339 90 242 90 q 661 242 558 90 q 738 450 718 321 z "},"'":{"ha":286,"x_min":138,"x_max":268,"o":"m 218 660 l 138 660 l 172 958 l 268 958 l 218 660 z "},"(":{"ha":494,"x_min":78,"x_max":546,"o":"m 532 1099 l 546 1040 q 312 824 397 972 q 193 431 226 676 q 201 46 160 194 q 368 -174 242 -103 l 353 -228 q 108 9 175 -156 q 78 440 40 174 q 224 867 115 707 q 532 1099 333 1026 z "},")":{"ha":494,"x_min":-42,"x_max":426,"o":"m 135 1042 l 150 1096 q 397 861 328 1025 q 426 426 465 697 q 278 2 388 161 q -29 -231 169 -157 l -42 -172 q 311 439 244 -33 q 303 826 344 678 q 135 1042 261 975 z "},"*":{"ha":622,"x_min":122,"x_max":600,"o":"m 381 736 l 497 557 l 438 515 l 353 686 l 222 517 l 167 560 l 332 736 l 351 960 l 425 960 l 381 736 m 313 771 l 308 740 l 290 721 l 122 768 l 150 835 l 313 771 m 600 763 l 421 721 l 410 740 l 410 771 l 585 835 l 600 763 z "},"+":{"ha":760,"x_min":71,"x_max":692,"o":"m 679 371 l 421 371 l 386 125 l 296 125 l 329 371 l 71 371 l 83 460 l 342 460 l 376 704 l 468 704 l 433 460 l 692 460 l 679 371 z "},",":{"ha":315,"x_min":33,"x_max":182,"o":"m 108 164 l 144 164 q 177 153 168 164 q 182 118 186 143 l 169 29 q 92 -185 157 -69 l 33 -164 q 79 3 68 -58 q 50 12 60 1 q 43 40 40 22 l 54 122 q 70 156 60 147 q 108 164 81 164 z "},"-":{"ha":621,"x_min":85,"x_max":519,"o":"m 508 306 l 85 306 l 97 396 l 519 396 l 508 306 z "},".":{"ha":313,"x_min":43,"x_max":181,"o":"m 101 164 l 140 164 q 181 118 186 164 l 171 42 q 124 0 164 0 l 85 0 q 43 46 36 0 l 54 124 q 101 164 60 164 z "},"/":{"ha":728,"x_min":-29,"x_max":765,"o":"m 72 -92 l -29 -92 l 664 958 l 765 958 l 72 -92 z "},":":{"ha":326,"x_min":49,"x_max":249,"o":"m 169 611 l 210 611 q 249 565 257 611 l 239 489 q 193 447 233 447 l 153 447 q 111 494 106 447 l 124 571 q 169 611 128 611 m 107 164 l 146 164 q 186 118 192 164 l 176 42 q 129 0 169 0 l 90 0 q 49 46 42 0 l 60 124 q 107 164 65 164 z "},";":{"ha":332,"x_min":43,"x_max":251,"o":"m 171 611 l 211 611 q 251 565 258 611 l 240 489 q 194 447 236 447 l 154 447 q 113 494 107 447 l 125 571 q 171 611 129 611 m 118 164 l 153 164 q 185 153 176 164 q 190 118 194 143 l 179 29 q 101 -185 165 -69 l 43 -164 q 88 3 74 -68 q 60 12 69 1 q 53 40 50 22 l 64 122 q 80 156 69 147 q 118 164 90 164 z "},"<":{"ha":731,"x_min":65,"x_max":676,"o":"m 663 601 l 174 411 l 608 219 l 596 128 l 65 367 l 78 461 l 676 700 l 663 601 z "},"=":{"ha":814,"x_min":76,"x_max":738,"o":"m 725 510 l 117 510 l 129 597 l 738 597 l 725 510 m 685 215 l 76 215 l 89 304 l 697 304 l 685 215 z "},">":{"ha":731,"x_min":57,"x_max":668,"o":"m 668 461 l 654 367 l 57 129 l 69 229 l 558 419 l 124 611 l 138 703 l 668 461 z "},"?":{"ha":693,"x_min":122,"x_max":685,"o":"m 124 875 l 122 960 q 166 967 131 961 q 210 975 201 974 q 249 981 219 976 q 300 985 279 985 q 355 988 321 986 q 428 989 389 989 q 633 934 565 989 q 685 769 700 879 q 645 664 678 713 q 571 578 613 615 q 487 504 529 542 q 410 412 444 467 q 364 292 375 357 l 264 292 q 303 422 272 363 q 375 522 335 482 q 454 599 415 563 q 523 676 493 635 q 558 758 553 717 q 533 860 568 832 q 403 889 499 889 q 124 875 279 889 m 278 164 l 308 164 q 350 118 356 164 l 339 42 q 293 0 335 0 l 261 0 q 219 46 214 0 l 231 122 q 278 164 236 164 z "},"@":{"ha":1072,"x_min":79,"x_max":990,"o":"m 154 793 l 164 881 q 597 892 331 889 q 756 888 694 893 q 867 864 817 882 q 942 817 918 846 q 980 733 967 788 q 990 610 993 679 q 972 436 986 540 q 917 161 950 256 q 830 28 885 67 q 681 -11 775 -11 q 525 132 529 -11 q 251 -17 401 -17 q 92 65 133 -17 q 79 318 50 146 q 122 478 96 417 q 191 572 149 539 q 283 615 233 604 q 410 626 332 626 q 708 594 526 626 l 642 158 q 649 105 638 121 q 690 89 660 89 q 802 161 769 89 q 863 446 835 233 q 877 558 872 514 q 880 643 882 603 q 874 706 878 683 q 852 747 871 728 q 817 773 833 765 q 763 786 801 781 q 690 792 724 792 q 594 793 657 793 l 154 793 m 538 240 l 582 526 q 450 531 486 531 q 263 492 308 531 q 193 308 218 453 q 189 132 172 181 q 276 83 206 83 q 401 121 342 83 q 538 240 461 158 z "},"A":{"ha":860,"x_min":-42,"x_max":793,"o":"m 619 299 l 224 299 l 88 0 l -42 0 l 397 926 q 444 958 407 958 l 572 958 q 601 948 589 958 q 614 922 613 938 l 793 0 l 671 0 l 619 299 m 600 406 l 533 783 q 528 824 532 796 q 522 865 525 851 l 481 865 l 444 783 l 272 406 l 600 406 z "},"B":{"ha":858,"x_min":63,"x_max":793,"o":"m 63 0 l 197 958 q 504 969 308 969 q 747 915 681 969 q 793 715 814 860 q 733 559 778 611 q 601 499 689 507 l 600 493 q 756 235 792 476 q 662 39 733 89 q 424 -11 590 -11 q 63 0 188 -11 m 260 543 l 463 543 q 615 579 569 544 q 675 710 661 614 q 651 835 688 806 q 499 865 614 865 l 304 865 l 260 543 m 246 450 l 196 94 q 406 93 251 93 q 574 128 525 93 q 636 264 622 163 q 614 410 651 372 q 457 450 576 447 l 246 450 z "},"C":{"ha":786,"x_min":94,"x_max":793,"o":"m 682 107 l 689 14 q 407 -17 575 -17 q 129 101 201 -17 q 94 483 57 218 q 230 866 133 757 q 532 975 326 975 q 793 946 686 975 l 774 854 q 531 867 650 867 q 319 785 386 867 q 222 475 253 704 q 232 176 192 258 q 408 92 272 93 q 682 107 557 92 z "},"D":{"ha":919,"x_min":63,"x_max":844,"o":"m 63 0 l 197 958 q 511 971 367 971 q 808 861 733 971 q 844 475 883 751 q 789 224 822 319 q 697 76 756 128 q 567 6 639 24 q 381 -12 496 -12 q 63 0 244 -12 m 306 863 l 199 97 q 379 94 324 94 q 518 109 465 94 q 612 167 571 124 q 676 285 653 211 q 718 483 700 360 q 733 644 732 579 q 723 753 733 708 q 683 822 713 797 q 613 856 654 846 q 508 865 572 865 q 306 863 444 865 z "},"E":{"ha":775,"x_min":81,"x_max":781,"o":"m 764 856 l 382 856 q 313 833 335 856 q 283 761 290 811 l 254 553 l 667 553 l 654 458 l 242 458 l 206 193 q 217 124 199 146 q 282 103 235 103 l 657 103 l 654 7 q 267 -1 532 -1 q 115 49 163 -1 q 81 190 68 100 l 165 796 q 228 917 176 874 q 367 960 279 960 q 781 951 653 960 l 764 856 z "},"F":{"ha":746,"x_min":60,"x_max":772,"o":"m 756 856 l 399 856 q 320 835 344 856 q 289 761 296 815 l 257 538 l 658 538 l 644 443 l 244 443 l 182 0 l 60 0 l 169 790 q 234 916 182 872 q 372 960 286 960 q 772 950 650 960 l 756 856 z "},"G":{"ha":867,"x_min":94,"x_max":824,"o":"m 824 946 l 806 856 q 564 867 689 867 q 422 851 476 867 q 326 792 368 836 q 261 672 285 747 q 222 475 238 597 q 231 176 199 261 q 371 90 263 90 q 499 124 440 90 q 633 233 557 158 l 678 556 l 796 556 l 717 0 l 629 0 l 632 132 q 331 -18 501 -18 q 122 102 179 -18 q 94 483 65 222 q 150 729 114 632 q 245 881 186 826 q 375 956 304 935 q 549 976 446 976 q 824 946 707 976 z "},"H":{"ha":925,"x_min":63,"x_max":883,"o":"m 883 958 l 749 0 l 628 0 l 692 458 l 250 458 l 186 0 l 63 0 l 197 958 l 321 958 l 265 564 l 707 564 l 763 958 l 883 958 z "},"I":{"ha":363,"x_min":63,"x_max":321,"o":"m 186 0 l 63 0 l 197 958 l 321 958 l 186 0 z "},"J":{"ha":471,"x_min":-12,"x_max":433,"o":"m 433 958 l 325 199 q 258 41 311 94 q 117 -12 204 -12 q -12 6 44 -12 l 11 92 l 76 92 q 204 199 189 92 l 310 958 l 433 958 z "},"K":{"ha":824,"x_min":63,"x_max":858,"o":"m 460 500 l 460 494 q 506 425 483 467 l 742 0 l 603 0 l 357 450 l 239 450 q 232 346 239 388 l 185 0 l 63 0 l 197 958 l 319 958 l 276 657 q 254 549 268 601 l 367 549 l 710 958 l 858 958 l 525 561 q 460 500 488 518 z "},"L":{"ha":707,"x_min":89,"x_max":633,"o":"m 317 958 l 210 193 q 286 103 196 103 l 633 103 l 631 7 q 260 -1 510 -1 q 122 50 168 -1 q 89 197 75 101 l 193 958 l 317 958 z "},"M":{"ha":1217,"x_min":44,"x_max":1146,"o":"m 963 958 l 1099 958 q 1146 904 1150 958 l 1058 0 l 936 0 l 1025 857 l 997 857 l 685 149 q 628 108 668 108 l 518 108 q 467 153 475 108 l 346 857 l 318 857 l 165 0 l 44 0 l 210 910 q 264 958 218 958 l 399 958 q 444 914 438 958 l 547 331 q 565 200 551 310 l 592 200 q 646 329 610 246 l 906 918 q 963 958 922 957 z "},"N":{"ha":976,"x_min":63,"x_max":935,"o":"m 935 958 l 806 46 q 757 0 800 0 l 646 0 q 596 42 611 0 l 356 721 q 318 844 328 796 l 294 844 q 283 718 293 788 l 185 0 l 63 0 l 190 913 q 242 958 199 958 l 350 958 q 400 917 385 958 l 633 256 q 678 117 665 164 l 704 117 q 718 257 708 193 l 814 958 l 935 958 z "},"O":{"ha":925,"x_min":94,"x_max":850,"o":"m 538 976 q 814 862 739 976 q 850 475 889 747 q 715 90 813 199 q 413 -18 618 -18 q 133 95 210 -18 q 94 483 57 208 q 230 866 132 756 q 538 976 328 976 m 531 867 q 319 783 385 867 q 222 475 253 700 q 233 174 192 257 q 415 92 274 92 q 625 176 558 92 q 724 483 692 261 q 715 786 756 706 q 531 867 674 867 z "},"P":{"ha":817,"x_min":63,"x_max":793,"o":"m 63 0 l 197 958 q 522 971 317 971 q 753 902 690 971 q 793 667 817 833 q 696 430 768 489 q 454 371 624 371 q 239 385 339 371 l 185 0 l 63 0 m 251 476 l 450 476 q 609 517 564 476 q 672 676 654 558 q 655 826 689 788 q 518 865 621 865 q 306 864 361 865 l 251 476 z "},"Q":{"ha":925,"x_min":94,"x_max":850,"o":"m 538 976 q 814 862 739 976 q 850 475 889 747 q 715 90 813 199 q 413 -18 618 -18 q 133 95 210 -18 q 94 483 57 208 q 230 866 132 756 q 538 976 328 976 m 531 867 q 319 783 385 867 q 222 475 253 700 q 233 174 192 257 q 415 92 274 92 q 625 176 558 92 q 724 483 692 261 q 715 786 756 706 q 531 867 674 867 m 289 -133 l 336 -61 q 693 -168 488 -136 l 644 -290 q 289 -133 446 -244 z "},"R":{"ha":858,"x_min":63,"x_max":800,"o":"m 63 0 l 197 958 q 522 971 317 971 q 751 908 681 971 q 800 689 821 844 q 733 518 783 576 q 586 447 683 460 l 585 440 q 686 300 664 418 l 747 0 l 622 0 l 565 303 q 530 378 556 356 q 457 400 504 400 l 239 401 l 182 0 l 63 0 m 254 506 l 458 506 q 613 547 565 507 q 676 693 661 586 q 657 829 690 793 q 519 865 624 865 q 304 864 360 865 l 254 506 z "},"S":{"ha":778,"x_min":36,"x_max":743,"o":"m 467 397 l 276 468 q 142 567 178 504 q 121 735 107 631 q 149 842 129 799 q 197 913 169 886 q 267 953 224 939 q 353 971 310 967 q 460 975 396 975 q 743 947 632 972 l 731 858 q 457 865 574 865 q 387 865 410 865 q 333 857 364 864 q 289 835 303 850 q 262 793 275 821 q 243 722 249 765 q 253 624 233 653 q 339 571 272 596 l 526 501 q 666 402 632 463 q 685 232 700 342 q 585 33 664 82 q 328 -17 507 -17 q 36 10 179 -17 l 51 100 q 329 93 285 92 q 502 121 454 93 q 563 244 550 149 q 553 344 572 317 q 467 397 533 372 z "},"T":{"ha":796,"x_min":90,"x_max":844,"o":"m 831 850 l 521 850 l 401 0 l 279 0 l 399 850 l 90 850 l 106 958 l 844 958 l 831 850 z "},"U":{"ha":922,"x_min":108,"x_max":888,"o":"m 888 958 l 804 365 q 685 69 774 157 q 414 -18 596 -18 q 153 73 226 -18 q 108 371 79 164 l 189 958 l 313 958 l 229 365 q 247 151 207 211 q 411 92 288 92 q 600 154 539 92 q 683 371 661 217 l 764 958 l 888 958 z "},"V":{"ha":840,"x_min":96,"x_max":896,"o":"m 896 958 l 472 32 q 425 0 460 0 l 303 0 q 261 38 267 0 l 96 958 l 219 958 l 340 197 q 354 92 351 129 l 390 92 q 433 201 414 157 l 767 958 l 896 958 z "},"W":{"ha":1310,"x_min":115,"x_max":1346,"o":"m 1346 958 l 1019 33 q 969 0 1008 0 l 833 0 q 803 11 815 0 q 789 40 790 22 l 739 761 q 735 806 739 765 q 731 867 732 846 l 701 867 l 664 756 l 415 35 q 365 0 404 0 l 231 0 q 199 11 213 0 q 185 39 186 22 l 115 958 l 240 958 l 285 210 q 289 90 285 203 l 322 90 l 363 214 l 608 919 q 658 958 619 958 l 790 958 q 819 946 807 958 q 832 915 831 933 l 889 208 q 894 90 894 131 l 929 90 l 967 211 l 1218 958 l 1346 958 z "},"X":{"ha":846,"x_min":-25,"x_max":875,"o":"m 556 496 l 757 0 l 632 0 l 456 450 l 418 450 l 117 0 l -25 0 l 317 496 l 131 958 l 256 958 l 417 544 l 456 544 l 740 958 l 875 958 l 556 496 z "},"Y":{"ha":785,"x_min":89,"x_max":846,"o":"m 440 335 l 393 0 l 269 0 l 318 340 l 89 958 l 214 958 l 358 551 q 386 443 379 489 l 397 443 q 454 556 418 499 l 713 958 l 846 958 l 440 335 z "},"Z":{"ha":781,"x_min":8,"x_max":788,"o":"m 157 104 l 676 104 l 661 0 l 8 0 l 22 104 l 636 854 l 135 854 l 150 958 l 788 958 l 772 854 l 157 104 z "},"[":{"ha":451,"x_min":46,"x_max":489,"o":"m 478 989 l 342 989 q 324 981 332 989 q 314 964 315 974 l 160 -132 q 174 -151 157 -151 l 318 -151 l 307 -229 l 113 -229 q 59 -210 78 -229 q 46 -153 40 -190 l 207 994 q 233 1047 211 1028 q 289 1067 256 1067 l 489 1067 l 478 989 z "},"\\":{"ha":706,"x_min":110,"x_max":604,"o":"m 604 -92 l 511 -92 l 110 958 l 203 958 l 604 -92 z "},"]":{"ha":451,"x_min":-35,"x_max":408,"o":"m 147 1067 l 340 1067 q 394 1044 374 1067 q 408 990 414 1022 l 247 -157 q 220 -209 243 -189 q 165 -229 197 -229 l -35 -229 l -25 -151 l 111 -151 q 140 -126 135 -151 l 294 969 q 279 989 297 989 l 136 989 l 147 1067 z "},"^":{"ha":592,"x_min":69,"x_max":579,"o":"m 579 540 l 528 511 l 365 753 l 354 753 l 117 511 l 69 542 l 322 835 l 408 835 l 579 540 z "},"_":{"ha":807,"x_min":32,"x_max":653,"o":"m 639 -90 l 32 -90 l 44 0 l 653 0 l 639 -90 z "},"`":{"ha":436,"x_min":110,"x_max":410,"o":"m 410 800 l 367 747 l 110 921 l 174 1004 l 410 800 z "},"a":{"ha":796,"x_min":71,"x_max":726,"o":"m 633 0 l 540 0 l 549 136 q 247 -17 418 -17 q 83 65 125 -17 q 71 346 42 146 q 113 528 86 458 q 185 634 140 599 q 279 681 229 669 q 408 693 329 693 q 726 661 560 693 l 633 0 m 547 238 l 597 590 q 444 594 497 594 q 259 549 304 594 q 189 336 214 504 q 184 135 168 183 q 271 86 200 86 q 547 238 392 86 z "},"b":{"ha":796,"x_min":51,"x_max":706,"o":"m 300 972 l 263 692 q 226 526 247 588 q 376 645 294 597 q 528 693 457 693 q 691 615 649 693 q 706 331 733 538 q 663 147 690 218 q 592 41 636 76 q 502 -6 549 6 q 382 -18 456 -18 q 51 32 215 -18 l 183 972 l 300 972 m 225 438 l 176 88 q 339 81 265 81 q 519 126 475 81 q 585 339 563 172 q 588 542 606 494 q 500 590 571 590 q 225 438 397 590 z "},"c":{"ha":672,"x_min":64,"x_max":644,"o":"m 565 97 l 574 17 q 342 -17 467 -17 q 100 66 164 -17 q 64 343 36 149 q 173 615 92 536 q 428 693 254 693 q 644 660 561 693 l 625 586 q 447 593 550 593 q 263 540 319 593 q 188 333 207 488 q 205 132 168 181 q 363 83 242 83 q 565 97 478 83 z "},"d":{"ha":794,"x_min":69,"x_max":768,"o":"m 768 972 l 632 0 l 539 0 l 549 147 q 233 -17 399 -17 q 84 67 126 -17 q 69 346 42 150 q 113 527 86 457 q 183 633 139 597 q 274 681 226 669 q 396 693 322 693 q 615 676 492 693 q 626 806 618 744 l 650 972 l 768 972 m 549 242 l 596 593 q 440 596 463 596 q 328 588 367 596 q 259 551 289 581 q 215 473 229 521 q 189 336 201 425 q 183 138 168 190 q 267 86 199 86 q 397 123 332 86 q 549 242 463 160 z "},"e":{"ha":746,"x_min":67,"x_max":688,"o":"m 610 100 l 618 21 q 342 -17 522 -17 q 104 72 168 -17 q 67 354 40 161 q 174 622 94 551 q 436 693 254 693 q 648 640 590 693 q 688 476 706 586 q 612 339 671 381 q 431 288 553 297 l 181 265 q 221 121 178 158 q 361 83 264 83 q 610 100 481 83 m 189 353 l 429 376 q 530 405 499 382 q 571 486 561 428 q 549 576 582 557 q 421 594 515 594 q 260 548 307 594 q 189 353 213 501 z "},"f":{"ha":524,"x_min":-167,"x_max":625,"o":"m 607 899 l 471 899 q 372 874 403 899 q 331 782 340 850 l 315 676 l 532 676 l 518 583 l 303 583 l 208 -83 q -6 -279 182 -279 q -167 -269 -78 -279 l -149 -181 l -43 -181 q 53 -157 24 -181 q 93 -65 83 -133 l 183 583 l 63 583 l 74 669 l 197 675 l 214 800 q 433 996 242 996 q 625 986 551 996 l 607 899 z "},"g":{"ha":799,"x_min":21,"x_max":731,"o":"m 731 661 l 636 13 q 251 -293 600 -285 q 21 -271 118 -299 l 33 -192 q 253 -193 131 -196 q 517 -11 483 -186 q 572 164 544 121 q 425 33 511 83 q 244 -17 339 -17 q 86 65 131 -17 q 72 346 42 146 q 116 528 89 458 q 186 634 143 599 q 276 681 229 669 q 397 693 324 693 q 728 661 558 693 l 731 661 m 549 239 l 601 590 q 442 594 499 594 q 260 549 306 594 q 192 336 215 504 q 185 135 169 185 q 272 86 201 86 q 549 239 392 86 z "},"h":{"ha":803,"x_min":49,"x_max":715,"o":"m 304 972 l 267 700 q 235 533 256 610 q 556 693 418 693 q 685 645 642 693 q 715 506 728 597 l 643 0 l 525 0 l 593 476 q 585 567 601 542 q 519 593 568 593 q 394 557 458 593 q 228 439 331 521 l 167 0 l 49 0 l 186 972 l 304 972 z "},"i":{"ha":342,"x_min":56,"x_max":307,"o":"m 218 964 l 274 964 q 301 953 292 964 q 307 925 310 942 l 297 846 q 258 813 292 813 l 204 813 q 169 851 165 813 l 181 929 q 218 964 185 964 m 172 0 l 56 0 l 150 676 l 267 676 l 172 0 z "},"j":{"ha":342,"x_min":-57,"x_max":307,"o":"m 218 964 l 274 964 q 301 953 292 964 q 307 925 310 942 l 297 846 q 258 813 292 813 l 204 813 q 169 851 165 813 l 181 929 q 218 964 185 964 m 267 676 l 169 -19 q 116 -169 160 -100 q 7 -283 72 -237 l -57 -229 q 53 -14 36 -132 l 150 676 l 267 676 z "},"k":{"ha":724,"x_min":50,"x_max":690,"o":"m 569 676 l 690 676 q 461 375 631 493 q 501 297 482 340 l 635 0 l 508 0 l 371 319 q 203 242 301 282 l 167 0 l 50 0 l 186 972 l 304 972 l 242 503 q 200 342 229 421 q 438 489 338 403 q 569 676 538 575 z "},"l":{"ha":407,"x_min":74,"x_max":343,"o":"m 306 972 l 194 183 q 205 116 188 136 q 271 96 222 96 l 339 96 l 343 4 q 221 -12 303 -12 q 102 34 142 -12 q 74 163 63 81 l 188 972 l 306 972 z "},"m":{"ha":1211,"x_min":49,"x_max":1124,"o":"m 235 676 l 226 529 q 522 693 390 693 q 643 652 601 693 q 682 539 685 611 q 965 693 838 693 q 1095 643 1054 693 q 1124 506 1136 593 l 1053 0 l 936 0 l 1003 476 q 991 567 1011 540 q 921 593 971 593 q 819 560 871 593 q 669 439 767 528 l 608 0 l 494 0 l 561 476 q 551 566 569 539 q 479 593 533 593 q 376 560 428 593 q 228 442 325 528 l 167 0 l 49 0 l 144 676 l 235 676 z "},"n":{"ha":803,"x_min":49,"x_max":715,"o":"m 239 676 l 229 528 q 556 693 415 693 q 685 645 642 693 q 715 506 728 597 l 643 0 l 525 0 l 593 476 q 585 567 601 542 q 519 593 568 593 q 394 557 458 593 q 228 440 329 521 l 167 0 l 49 0 l 144 676 l 239 676 z "},"o":{"ha":783,"x_min":64,"x_max":700,"o":"m 173 613 q 214 653 173 613 q 426 693 254 693 q 663 610 599 693 q 700 332 728 526 q 592 61 674 140 q 340 -18 510 -18 q 103 65 169 -18 q 64 342 38 149 q 173 613 92 533 m 426 593 q 260 539 313 593 q 188 332 208 485 q 199 135 167 188 q 340 82 232 82 q 506 138 454 82 q 579 342 558 193 q 567 540 600 488 q 426 593 535 593 z "},"p":{"ha":799,"x_min":8,"x_max":707,"o":"m 239 676 l 229 526 q 379 644 294 596 q 533 693 464 693 q 696 615 656 693 q 707 331 736 536 q 665 148 692 218 q 594 42 638 78 q 501 -6 550 6 q 376 -18 453 -18 q 163 0 281 -18 q 151 -129 160 -68 l 128 -282 l 8 -282 l 146 676 l 239 676 m 229 436 l 181 83 q 333 79 282 79 q 519 124 474 79 q 588 339 564 169 q 592 542 608 493 q 507 590 576 590 q 381 549 457 590 q 229 436 306 508 z "},"q":{"ha":792,"x_min":69,"x_max":722,"o":"m 722 646 l 590 -282 l 472 -282 l 511 -17 q 553 153 526 82 q 239 -17 406 -17 q 86 64 131 -17 q 69 346 42 144 q 112 528 85 457 q 181 634 139 599 q 269 681 224 669 q 386 693 315 693 q 722 646 557 693 m 549 240 l 596 589 q 432 596 510 596 q 256 550 300 596 q 189 336 211 504 q 185 137 168 188 q 272 86 201 86 q 398 121 339 86 q 549 240 457 156 z "},"r":{"ha":553,"x_min":49,"x_max":571,"o":"m 571 693 l 542 582 l 507 582 q 390 549 451 582 q 228 438 329 515 l 167 0 l 49 0 l 144 676 l 235 676 l 225 519 q 536 693 401 693 l 571 693 z "},"s":{"ha":703,"x_min":29,"x_max":651,"o":"m 401 257 l 213 340 q 106 418 138 375 q 83 533 75 461 q 163 662 96 628 q 367 693 229 696 q 651 672 521 690 l 636 588 q 369 594 465 593 q 238 583 272 594 q 199 525 204 572 q 211 468 193 486 q 281 426 229 450 l 469 343 q 583 267 553 307 q 604 151 614 226 q 581 76 599 107 q 538 28 563 46 q 473 0 514 10 q 391 -12 432 -10 q 288 -15 350 -15 q 203 -13 240 -15 q 149 -10 167 -11 q 91 -3 131 -8 q 29 4 51 1 l 43 90 q 260 83 126 83 q 435 100 389 85 q 489 163 481 115 q 483 204 493 188 q 461 228 474 221 q 417 250 449 236 q 401 257 407 254 z "},"t":{"ha":524,"x_min":58,"x_max":528,"o":"m 299 583 l 243 183 q 253 115 236 135 q 318 96 269 96 l 424 96 l 428 6 q 276 -12 364 -12 q 150 36 189 -12 q 124 172 111 85 l 182 583 l 58 583 l 69 669 l 196 675 l 224 876 l 340 876 l 313 676 l 528 676 l 514 583 l 299 583 z "},"u":{"ha":788,"x_min":69,"x_max":719,"o":"m 719 676 l 625 0 l 533 0 l 543 147 q 231 -18 374 -18 q 97 32 139 -18 q 69 171 56 82 l 140 676 l 258 676 l 190 200 q 199 111 181 138 q 271 85 218 85 q 389 121 331 85 q 542 242 447 157 l 601 676 l 719 676 z "},"v":{"ha":738,"x_min":63,"x_max":718,"o":"m 596 676 l 718 676 q 589 283 678 481 q 471 71 528 147 q 415 17 443 33 q 338 0 386 0 l 233 0 q 194 32 201 0 l 63 676 l 186 676 l 289 93 l 311 93 q 353 101 338 93 q 388 133 369 110 q 492 332 435 197 q 596 676 563 488 z "},"w":{"ha":1181,"x_min":63,"x_max":1160,"o":"m 281 93 l 299 93 q 364 142 336 93 q 440 332 406 215 q 513 647 479 450 q 546 676 517 676 l 675 676 q 706 649 703 676 l 774 93 l 790 93 q 847 136 821 93 q 946 332 908 232 q 1036 676 1003 476 l 1160 676 q 1036 283 1108 447 q 917 67 971 135 q 863 16 889 32 q 797 0 836 0 l 719 0 q 682 32 688 0 l 618 599 l 600 599 q 536 303 585 460 q 443 88 494 168 q 294 0 393 0 l 225 0 q 188 32 194 0 l 63 676 l 185 676 l 281 93 z "},"x":{"ha":731,"x_min":-26,"x_max":722,"o":"m 467 349 l 643 0 l 524 0 l 374 306 l 342 306 l 106 0 l -26 0 l 250 350 l 88 676 l 206 676 l 339 397 l 378 397 l 594 676 l 722 676 l 467 349 z "},"y":{"ha":749,"x_min":49,"x_max":726,"o":"m 604 676 l 726 676 q 521 113 653 350 q 312 -174 414 -86 q 71 -286 210 -261 l 49 -201 q 201 -136 133 -182 q 332 0 268 -90 l 271 0 q 219 17 240 0 q 192 63 199 35 l 61 676 l 185 676 l 292 119 q 324 93 299 93 l 390 93 q 403 119 394 101 q 418 147 413 138 q 604 676 549 403 z "},"z":{"ha":700,"x_min":8,"x_max":668,"o":"m 656 579 l 158 96 l 592 96 l 578 0 l 8 0 l 21 96 l 518 579 l 96 579 l 108 676 l 668 676 l 656 579 z "},"{":{"ha":442,"x_min":63,"x_max":472,"o":"m 472 1067 l 468 992 q 364 963 397 992 q 322 871 331 935 l 288 622 q 248 502 276 536 q 142 454 219 468 q 234 396 213 431 q 246 289 256 361 l 200 -39 q 213 -129 190 -104 q 306 -154 235 -154 l 301 -229 q 126 -190 179 -239 q 88 -43 72 -142 l 138 313 q 131 377 144 361 q 71 411 117 393 q 63 414 65 413 l 74 500 q 118 514 108 510 q 143 530 128 518 q 164 559 158 542 q 174 610 169 576 l 213 885 q 285 1031 225 986 q 472 1067 346 1076 z "},"|":{"ha":340,"x_min":36,"x_max":308,"o":"m 124 -235 l 36 -235 l 221 1085 l 308 1085 l 124 -235 z "},"}":{"ha":443,"x_min":-33,"x_max":393,"o":"m 143 992 l 149 1067 q 324 1026 272 1076 q 363 881 375 976 l 324 604 q 326 528 315 542 q 393 497 338 514 l 382 411 q 338 394 349 399 q 310 378 328 390 q 287 351 293 367 q 276 307 281 335 l 228 -47 q 155 -194 214 -149 q -33 -229 96 -239 l -29 -154 q 74 -126 42 -154 q 115 -35 107 -99 l 163 294 q 203 400 174 368 q 314 457 232 432 q 223 506 244 471 q 214 628 201 542 l 250 876 q 237 966 258 940 q 143 992 215 992 z "},"~":{"ha":725,"x_min":92,"x_max":631,"o":"m 153 314 l 92 319 q 128 444 93 401 q 215 483 164 486 q 361 443 269 481 q 490 401 453 406 q 546 415 528 397 q 571 478 564 433 l 631 474 q 595 351 629 393 q 508 313 561 310 q 355 353 446 315 q 232 394 264 392 q 176 379 194 399 q 153 314 158 360 z "}," ":{"ha":310,"x_min":0,"x_max":0,"o":""},"¡":{"ha":354,"x_min":24,"x_max":269,"o":"m 199 685 l 231 685 q 269 639 278 685 l 260 563 q 213 521 253 521 l 182 521 q 142 567 133 521 l 151 643 q 199 685 157 685 m 199 144 l 140 -272 l 24 -272 l 82 144 l 129 392 l 222 392 l 199 144 z "},"¢":{"ha":701,"x_min":85,"x_max":664,"o":"m 664 804 l 646 731 q 497 738 565 738 l 385 228 q 586 243 490 228 l 594 161 q 361 128 489 128 l 358 128 l 329 0 l 271 0 l 301 131 q 110 226 160 143 q 85 488 60 310 q 194 759 113 681 q 449 838 275 838 l 464 838 l 492 958 l 550 958 l 521 835 q 664 804 607 828 m 326 231 l 439 738 q 277 679 328 733 q 208 479 226 625 q 216 292 190 344 q 326 231 242 239 z "},"£":{"ha":789,"x_min":26,"x_max":763,"o":"m 763 961 l 749 864 q 508 869 604 869 q 383 837 422 869 q 338 719 344 804 l 324 542 l 619 542 l 606 469 l 318 469 l 310 364 q 270 206 301 267 q 172 99 239 144 q 263 104 201 104 l 678 104 l 664 0 l 26 0 l 40 106 q 190 367 174 168 l 199 469 l 89 469 l 99 542 l 204 542 l 219 726 q 302 926 233 878 q 513 975 371 975 q 763 961 624 975 z "},"¤":{"ha":828,"x_min":72,"x_max":775,"o":"m 775 749 l 667 654 q 697 485 710 583 q 625 315 685 383 l 721 208 l 667 158 l 571 267 q 396 217 497 217 q 229 271 296 217 l 122 175 l 72 232 l 181 328 q 153 493 140 399 q 226 667 165 597 l 132 774 l 188 825 l 282 715 q 453 763 356 763 q 618 710 553 763 l 726 807 l 775 749 m 394 285 q 552 340 489 283 q 625 494 615 397 q 588 640 635 585 q 450 694 540 694 q 295 638 356 694 q 224 485 235 581 q 260 340 214 394 q 394 285 307 286 z "},"¥":{"ha":854,"x_min":94,"x_max":881,"o":"m 543 449 l 736 449 l 726 376 l 496 376 l 475 346 l 468 292 l 715 292 l 704 221 l 458 221 l 426 0 l 304 0 l 336 221 l 94 221 l 103 292 l 346 292 l 354 351 l 344 376 l 117 376 l 125 449 l 317 449 l 124 958 l 247 958 l 393 563 q 421 454 414 500 l 433 454 q 492 567 451 506 l 747 958 l 881 958 l 543 449 z "},"¦":{"ha":340,"x_min":36,"x_max":308,"o":"m 231 529 l 143 529 l 222 1085 l 308 1085 l 231 529 m 124 -235 l 36 -235 l 114 321 l 201 321 l 124 -235 z "},"§":{"ha":756,"x_min":11,"x_max":738,"o":"m 475 449 l 254 586 q 159 676 188 628 q 142 803 131 724 q 224 942 156 907 q 432 976 292 976 q 738 960 613 974 l 722 868 q 464 875 650 874 q 317 861 360 876 q 265 790 274 846 q 276 718 258 746 q 335 665 294 690 l 546 536 q 650 403 635 482 q 622 211 665 324 l 536 211 q 546 356 558 299 q 475 449 533 413 m 126 536 l 213 536 q 201 396 190 449 q 272 307 213 343 l 494 169 q 589 80 560 128 q 607 -49 618 32 q 522 -192 590 -158 q 314 -225 454 -225 q 11 -208 143 -222 l 26 -115 q 286 -125 156 -124 q 362 -123 335 -125 q 419 -112 389 -121 q 463 -85 449 -104 q 482 -36 478 -67 q 471 38 489 10 q 414 89 453 65 l 206 215 q 98 346 114 268 q 126 536 82 424 z "},"¨":{"ha":571,"x_min":189,"x_max":540,"o":"m 239 964 l 275 964 q 306 931 311 964 l 294 854 q 257 821 290 821 l 218 821 q 189 853 185 821 l 200 931 q 239 964 206 964 m 474 964 l 510 964 q 540 931 547 964 l 529 854 q 492 821 525 821 l 453 821 q 424 853 419 821 l 435 931 q 474 964 442 964 z "},"©":{"ha":1158,"x_min":92,"x_max":1088,"o":"m 644 976 q 991 837 865 976 q 1088 475 1117 697 q 908 120 1060 258 q 532 -18 757 -18 q 186 124 308 -18 q 92 483 64 265 q 269 838 118 699 q 644 976 419 976 m 649 915 q 315 792 450 915 q 156 475 181 668 q 238 162 132 281 q 531 43 343 43 q 864 167 728 43 q 1024 483 1000 290 q 943 794 1047 672 q 649 915 839 915 m 756 265 l 761 197 q 571 176 672 176 q 356 244 410 176 q 326 488 303 313 q 420 724 350 658 q 646 789 490 789 q 821 769 735 789 l 807 703 q 654 708 729 708 q 485 664 533 708 q 418 478 438 619 q 430 304 400 351 q 557 257 460 257 q 756 265 686 257 z "},"ª":{"ha":619,"x_min":110,"x_max":572,"o":"m 511 376 l 438 376 l 440 457 q 244 367 357 367 q 126 421 160 367 q 110 610 92 475 q 140 735 119 686 q 194 806 161 783 q 259 836 226 829 q 343 843 292 843 q 572 819 461 843 l 511 376 m 476 767 l 374 768 q 248 740 279 768 q 201 604 217 713 q 201 477 188 507 q 263 447 214 447 q 444 539 338 447 l 476 767 z "},"«":{"ha":663,"x_min":51,"x_max":613,"o":"m 361 593 l 149 347 l 300 94 l 240 54 l 51 342 l 53 368 l 313 638 l 361 593 m 613 593 l 400 347 l 551 94 l 493 54 l 303 342 l 306 368 l 564 638 l 613 593 z "},"¬":{"ha":815,"x_min":94,"x_max":715,"o":"m 715 458 l 676 185 l 586 185 l 613 368 l 94 368 l 107 458 l 715 458 z "},"­":{"ha":621,"x_min":83,"x_max":519,"o":"m 507 306 l 83 306 l 96 396 l 519 396 l 507 306 z "},"®":{"ha":769,"x_min":113,"x_max":729,"o":"m 449 975 q 665 892 585 975 q 729 661 744 808 q 624 439 714 521 q 397 357 535 357 q 176 444 254 357 q 113 674 97 532 q 219 894 128 813 q 449 975 311 975 m 688 671 q 634 867 700 797 q 447 936 568 936 q 244 863 321 936 q 154 668 167 789 q 208 467 140 539 q 397 394 275 394 q 599 470 521 394 q 688 671 676 546 m 256 489 l 307 847 q 456 851 357 851 q 560 831 526 851 q 586 743 594 810 q 563 683 582 703 q 501 654 544 664 l 501 651 q 536 599 525 640 l 565 489 l 507 489 l 481 600 q 432 636 471 636 l 332 638 l 311 489 l 256 489 m 338 678 l 429 678 q 503 692 482 679 q 531 747 525 704 q 519 797 536 785 q 454 808 503 808 l 356 807 l 338 678 z "},"¯":{"ha":556,"x_min":156,"x_max":554,"o":"m 543 846 l 156 846 l 167 933 l 554 933 l 543 846 z "},"°":{"ha":504,"x_min":128,"x_max":486,"o":"m 319 976 q 447 924 401 976 q 486 794 493 872 q 425 669 479 717 q 293 622 371 622 q 165 676 210 622 q 128 806 121 729 q 188 929 133 882 q 319 976 242 976 m 315 906 q 238 877 269 906 q 201 801 207 849 q 224 723 197 753 q 297 693 250 693 q 376 722 344 693 q 411 799 407 751 q 390 876 415 846 q 315 906 364 906 z "},"±":{"ha":813,"x_min":58,"x_max":729,"o":"m 729 543 l 717 454 l 458 454 l 432 268 l 342 268 l 368 454 l 108 454 l 121 543 l 379 543 l 406 728 l 497 728 l 471 543 l 729 543 m 71 185 l 679 185 l 667 97 l 58 97 l 71 185 z "},"²":{"ha":569,"x_min":97,"x_max":542,"o":"m 178 992 l 178 1064 q 367 1085 275 1085 q 504 1056 457 1085 q 542 954 551 1028 q 507 858 535 901 q 411 753 479 815 l 222 583 q 314 589 260 589 l 511 589 l 499 500 l 97 500 l 104 560 q 119 597 110 589 l 313 771 q 450 954 443 886 q 432 995 453 986 q 357 1004 411 1004 q 178 992 265 1004 z "},"³":{"ha":547,"x_min":96,"x_max":528,"o":"m 182 999 l 181 1071 q 354 1086 283 1086 q 494 1051 453 1086 q 528 949 535 1017 q 497 851 522 896 q 422 801 471 806 l 421 799 q 507 657 525 782 q 274 489 482 496 q 96 504 201 488 l 107 576 q 268 571 254 569 q 415 674 400 581 q 402 742 424 718 q 319 767 381 765 l 206 767 l 215 838 l 325 838 q 411 863 388 838 q 440 933 435 888 q 426 991 446 976 q 333 1006 406 1006 q 182 999 256 1006 z "},"´":{"ha":436,"x_min":140,"x_max":464,"o":"m 464 914 l 176 747 l 140 801 l 407 1006 l 464 914 z "},"¶":{"ha":819,"x_min":83,"x_max":764,"o":"m 764 951 l 631 0 l 539 0 l 665 892 q 529 897 600 897 l 363 -292 l 272 -292 l 353 279 q 124 382 188 296 q 83 636 60 468 q 214 901 110 826 q 546 975 318 975 q 764 951 674 975 z "},"·":{"ha":324,"x_min":86,"x_max":224,"o":"m 144 440 l 183 440 q 224 393 229 440 l 214 318 q 167 276 208 276 l 128 276 q 86 322 81 276 l 97 399 q 144 440 103 440 z "},"¸":{"ha":325,"x_min":-43,"x_max":210,"o":"m 51 -115 l 65 -60 q 186 -72 151 -51 q 210 -156 221 -93 q 126 -286 196 -240 q -43 -318 56 -332 l -21 -256 q 76 -228 35 -257 q 125 -154 117 -200 q 115 -124 129 -131 q 51 -115 101 -117 z "},"¹":{"ha":397,"x_min":131,"x_max":386,"o":"m 306 500 l 214 500 l 276 936 q 288 992 281 969 l 132 949 l 131 1017 l 294 1075 l 386 1075 l 306 500 z "},"º":{"ha":613,"x_min":107,"x_max":557,"o":"m 358 843 q 531 788 485 843 q 557 600 576 732 q 483 419 539 471 q 306 367 426 367 q 135 423 182 367 q 107 610 89 479 q 181 791 125 739 q 358 843 236 843 m 358 769 q 246 734 278 769 q 199 600 214 699 q 208 474 186 507 q 307 442 231 442 q 417 478 383 442 q 465 610 451 514 q 456 736 479 703 q 358 769 433 769 z "},"»":{"ha":664,"x_min":33,"x_max":594,"o":"m 285 94 l 497 340 l 346 594 l 406 633 l 594 347 l 593 319 l 333 51 l 285 94 m 33 94 l 246 340 l 94 594 l 153 633 l 343 347 l 340 319 l 82 51 l 33 94 z "},"¼":{"ha":1192,"x_min":118,"x_max":1113,"o":"m 207 383 l 268 824 q 279 878 274 857 l 119 835 l 118 899 l 288 958 l 381 958 l 300 383 l 207 383 m 969 958 l 214 0 l 126 0 l 883 958 l 969 958 m 1103 143 l 1031 136 l 1011 0 l 925 0 l 943 135 l 675 135 q 622 160 638 135 q 629 228 606 186 l 854 575 l 946 575 l 729 236 q 725 217 721 225 q 744 208 729 208 l 953 208 l 975 371 l 1004 465 l 1076 465 l 1040 208 l 1113 208 l 1103 143 z "},"½":{"ha":1219,"x_min":118,"x_max":1139,"o":"m 204 0 l 118 0 l 874 958 l 960 958 l 204 0 m 299 383 l 206 383 l 268 824 q 279 878 274 857 l 119 835 l 118 899 l 288 958 l 379 958 l 299 383 m 751 494 l 749 564 q 943 585 847 585 q 1104 557 1057 585 q 1139 449 1151 529 q 1000 251 1126 360 l 793 81 q 890 82 838 85 l 1113 82 l 1100 0 l 667 0 l 675 54 q 692 94 678 81 l 894 267 q 1039 450 1025 376 q 1022 496 1044 486 q 940 506 999 506 q 751 494 844 506 z "},"¾":{"ha":1322,"x_min":76,"x_max":1242,"o":"m 414 688 l 406 683 q 492 638 469 674 q 508 535 515 601 q 447 408 497 447 q 283 369 396 369 q 76 385 193 369 l 83 454 q 258 447 165 447 q 372 472 336 447 q 417 557 408 497 q 402 623 422 600 q 311 646 382 646 l 190 646 l 199 715 l 315 715 q 442 815 429 717 q 426 874 449 860 q 332 889 404 889 q 163 883 222 889 l 160 951 q 342 965 253 965 q 502 935 460 965 q 533 828 544 904 q 499 731 525 767 q 414 688 472 696 m 1113 958 l 357 0 l 269 0 l 1026 958 l 1113 958 m 1232 143 l 1156 136 l 1138 0 l 1050 0 l 1068 135 l 804 135 q 751 160 767 135 q 758 228 735 186 l 983 575 l 1075 575 l 858 236 q 854 217 850 225 q 874 208 858 208 l 1078 208 l 1101 371 l 1131 465 l 1203 465 l 1167 208 l 1242 208 l 1232 143 z "},"¿":{"ha":686,"x_min":-15,"x_max":547,"o":"m 379 693 l 410 693 q 451 647 457 693 l 440 571 q 393 529 435 529 l 364 529 q 322 575 317 529 l 333 653 q 379 693 338 693 m 307 399 l 406 399 q 366 269 397 328 q 295 169 335 210 q 217 94 256 129 q 149 18 179 58 q 111 -65 118 -22 q 137 -163 100 -132 q 267 -194 174 -194 q 546 -182 419 -194 l 547 -267 q 503 -274 539 -268 q 459 -282 468 -281 q 420 -287 450 -283 q 369 -292 390 -292 q 315 -294 349 -293 q 242 -296 281 -296 q 38 -236 103 -296 q -15 -75 -28 -176 q 24 31 -8 -18 q 99 116 57 79 q 184 191 142 153 q 261 283 226 229 q 307 399 296 336 z "},"À":{"ha":860,"x_min":-42,"x_max":793,"o":"m 551 1011 l 294 1185 l 358 1268 l 593 1064 l 551 1011 m 619 299 l 224 299 l 88 0 l -42 0 l 397 926 q 444 958 407 958 l 572 958 q 601 948 589 958 q 614 922 613 938 l 793 0 l 671 0 l 619 299 m 600 406 l 533 783 q 528 824 532 796 q 522 865 525 851 l 481 865 l 444 783 l 272 406 l 600 406 z "},"Á":{"ha":860,"x_min":-42,"x_max":793,"o":"m 472 1011 l 435 1067 l 701 1269 l 758 1179 l 472 1011 m 619 299 l 224 299 l 88 0 l -42 0 l 397 926 q 444 958 407 958 l 572 958 q 601 948 589 958 q 614 922 613 938 l 793 0 l 671 0 l 619 299 m 600 406 l 533 783 q 528 824 532 796 q 522 865 525 851 l 481 865 l 444 783 l 272 406 l 600 406 z "},"Â":{"ha":860,"x_min":-42,"x_max":793,"o":"m 335 1017 l 301 1068 l 507 1244 l 592 1244 l 763 1061 l 719 1014 l 553 1154 l 542 1154 l 335 1017 m 619 299 l 224 299 l 88 0 l -42 0 l 397 926 q 444 958 407 958 l 572 958 q 601 948 589 958 q 614 922 613 938 l 793 0 l 671 0 l 619 299 m 600 406 l 533 783 q 528 824 532 796 q 522 865 525 851 l 481 865 l 444 783 l 272 406 l 600 406 z "},"Ã":{"ha":860,"x_min":-42,"x_max":793,"o":"m 713 1218 l 768 1213 q 731 1096 765 1136 q 644 1060 697 1056 q 531 1099 590 1064 q 446 1139 471 1135 q 388 1124 407 1143 q 363 1061 369 1104 l 307 1065 q 346 1186 311 1146 q 432 1222 381 1226 q 536 1183 478 1218 q 628 1144 594 1149 q 688 1158 668 1140 q 713 1218 707 1176 m 619 299 l 224 299 l 88 0 l -42 0 l 397 926 q 444 958 407 958 l 572 958 q 601 948 589 958 q 614 922 613 938 l 793 0 l 671 0 l 619 299 m 600 406 l 533 783 q 528 824 532 796 q 522 865 525 851 l 481 865 l 444 783 l 272 406 l 600 406 z "},"Ä":{"ha":860,"x_min":-42,"x_max":793,"o":"m 431 1065 l 392 1065 q 361 1097 357 1065 l 374 1174 q 413 1208 378 1208 l 449 1208 q 479 1174 483 1208 l 467 1099 q 431 1065 463 1065 m 665 1065 l 626 1065 q 596 1097 592 1065 l 608 1174 q 647 1208 613 1208 l 683 1208 q 714 1174 718 1208 l 701 1099 q 665 1065 697 1065 m 619 299 l 224 299 l 88 0 l -42 0 l 397 926 q 444 958 407 958 l 572 958 q 601 948 589 958 q 614 922 613 938 l 793 0 l 671 0 l 619 299 m 600 406 l 533 783 q 528 824 532 796 q 522 865 525 851 l 481 865 l 444 783 l 272 406 l 600 406 z "},"Å":{"ha":860,"x_min":-42,"x_max":793,"o":"m 529 993 q 422 1035 461 993 q 390 1143 383 1078 q 439 1243 397 1203 q 546 1283 481 1283 q 653 1241 613 1283 q 686 1133 693 1199 q 637 1033 679 1074 q 529 993 594 993 m 456 1138 q 473 1076 451 1099 q 531 1053 494 1053 q 592 1078 568 1053 q 619 1140 617 1103 q 603 1200 624 1176 q 546 1224 583 1224 q 484 1199 508 1224 q 456 1138 460 1175 m 619 299 l 224 299 l 88 0 l -42 0 l 397 926 q 444 958 407 958 l 572 958 q 601 948 589 958 q 614 922 613 938 l 793 0 l 671 0 l 619 299 m 600 406 l 533 783 q 528 824 532 796 q 522 865 525 851 l 481 865 l 444 783 l 272 406 l 600 406 z "},"Æ":{"ha":1267,"x_min":-58,"x_max":1272,"o":"m 1256 856 l 901 856 q 794 760 808 856 l 767 553 l 1160 553 l 1147 457 l 753 457 l 717 193 q 728 124 710 146 q 793 103 746 103 l 1151 103 l 1146 7 q 771 -1 1021 -1 q 634 50 681 -1 q 601 190 588 101 l 618 311 l 296 311 l 72 0 l -58 0 l 531 810 q 663 929 593 899 q 860 960 732 960 q 1272 951 1125 960 l 1256 856 m 632 417 l 683 778 q 702 835 686 807 q 739 875 718 863 l 732 875 q 639 785 685 850 l 372 417 l 632 417 z "},"Ç":{"ha":786,"x_min":94,"x_max":793,"o":"m 682 107 l 689 14 q 407 -17 575 -17 q 129 101 201 -17 q 94 483 57 218 q 230 866 133 757 q 532 975 326 975 q 793 946 686 975 l 774 854 q 531 867 650 867 q 319 785 386 867 q 222 475 253 704 q 232 176 192 258 q 408 92 272 93 q 682 107 557 92 m 303 -132 l 317 -76 q 438 -89 403 -68 q 463 -172 474 -110 q 377 -303 447 -258 q 208 -335 307 -349 l 231 -272 q 328 -245 286 -274 q 378 -171 369 -217 q 367 -140 381 -147 q 303 -132 353 -133 z "},"È":{"ha":775,"x_min":81,"x_max":781,"o":"m 546 1040 l 289 1214 l 354 1297 l 589 1093 l 546 1040 m 764 856 l 382 856 q 313 833 335 856 q 283 761 290 811 l 254 553 l 667 553 l 654 458 l 242 458 l 206 193 q 217 124 199 146 q 282 103 235 103 l 657 103 l 654 7 q 267 -1 532 -1 q 115 49 163 -1 q 81 190 68 100 l 165 796 q 228 917 176 874 q 367 960 279 960 q 781 951 653 960 l 764 856 z "},"É":{"ha":775,"x_min":81,"x_max":781,"o":"m 468 1040 l 431 1094 l 697 1299 l 754 1207 l 468 1040 m 764 856 l 382 856 q 313 833 335 856 q 283 761 290 811 l 254 553 l 667 553 l 654 458 l 242 458 l 206 193 q 217 124 199 146 q 282 103 235 103 l 657 103 l 654 7 q 267 -1 532 -1 q 115 49 163 -1 q 81 190 68 100 l 165 796 q 228 917 176 874 q 367 960 279 960 q 781 951 653 960 l 764 856 z "},"Ê":{"ha":775,"x_min":81,"x_max":781,"o":"m 331 1044 l 297 1096 l 503 1274 l 586 1274 l 758 1089 l 715 1042 l 549 1183 l 538 1183 l 331 1044 m 764 856 l 382 856 q 313 833 335 856 q 283 761 290 811 l 254 553 l 667 553 l 654 458 l 242 458 l 206 193 q 217 124 199 146 q 282 103 235 103 l 657 103 l 654 7 q 267 -1 532 -1 q 115 49 163 -1 q 81 190 68 100 l 165 796 q 228 917 176 874 q 367 960 279 960 q 781 951 653 960 l 764 856 z "},"Ë":{"ha":775,"x_min":81,"x_max":781,"o":"m 426 1094 l 388 1094 q 357 1126 353 1094 l 369 1203 q 408 1236 374 1236 l 443 1236 q 471 1228 464 1236 q 475 1203 478 1221 l 463 1128 q 426 1094 458 1094 m 661 1094 l 622 1094 q 592 1126 588 1094 l 604 1203 q 643 1236 608 1236 l 678 1236 q 706 1228 699 1236 q 710 1203 713 1221 l 697 1128 q 661 1094 693 1094 m 764 856 l 382 856 q 313 833 335 856 q 283 761 290 811 l 254 553 l 667 553 l 654 458 l 242 458 l 206 193 q 217 124 199 146 q 282 103 235 103 l 657 103 l 654 7 q 267 -1 532 -1 q 115 49 163 -1 q 81 190 68 100 l 165 796 q 228 917 176 874 q 367 960 279 960 q 781 951 653 960 l 764 856 z "},"Ì":{"ha":363,"x_min":40,"x_max":340,"o":"m 340 1064 l 297 1011 l 40 1185 l 106 1268 l 340 1064 m 186 0 l 63 0 l 197 958 l 321 958 l 186 0 z "},"Í":{"ha":363,"x_min":63,"x_max":504,"o":"m 504 1179 l 218 1011 l 182 1067 l 447 1269 l 504 1179 m 186 0 l 63 0 l 197 958 l 321 958 l 186 0 z "},"Î":{"ha":363,"x_min":47,"x_max":510,"o":"m 510 1061 l 465 1014 l 300 1154 l 289 1154 l 82 1017 l 47 1068 l 254 1244 l 338 1244 l 510 1061 m 186 0 l 63 0 l 197 958 l 321 958 l 186 0 z "},"Ï":{"ha":363,"x_min":63,"x_max":460,"o":"m 158 1208 l 194 1208 q 221 1200 214 1208 q 225 1174 228 1192 l 213 1099 q 176 1065 211 1065 l 138 1065 q 107 1097 106 1065 l 119 1174 q 158 1208 125 1208 m 393 1208 l 429 1208 q 456 1200 449 1208 q 460 1174 463 1192 l 447 1099 q 411 1065 446 1065 l 372 1065 q 342 1097 340 1065 l 354 1174 q 393 1208 360 1208 m 186 0 l 63 0 l 197 958 l 321 958 l 186 0 z "},"Ð":{"ha":919,"x_min":38,"x_max":844,"o":"m 139 543 l 197 958 q 511 971 367 971 q 808 861 733 971 q 844 475 883 751 q 789 224 822 319 q 697 76 756 128 q 567 6 639 24 q 381 -12 496 -12 q 63 0 244 -12 l 129 475 l 38 475 l 47 543 l 139 543 m 251 475 l 199 97 q 379 94 324 94 q 518 109 465 94 q 612 167 571 124 q 676 285 653 211 q 718 483 700 360 q 733 644 732 579 q 723 753 733 708 q 683 822 713 797 q 613 856 654 846 q 508 865 572 865 q 306 863 444 865 l 261 543 l 475 543 l 467 475 l 251 475 z "},"Ñ":{"ha":976,"x_min":63,"x_max":935,"o":"m 426 1061 l 371 1065 q 410 1186 375 1146 q 496 1222 444 1226 q 599 1183 542 1218 q 692 1144 657 1149 q 751 1158 732 1140 q 776 1218 771 1176 l 831 1213 q 795 1096 829 1136 q 708 1060 761 1056 q 594 1099 654 1064 q 510 1139 535 1135 q 451 1124 471 1143 q 426 1061 432 1104 m 935 958 l 806 46 q 757 0 800 0 l 646 0 q 596 42 611 0 l 356 721 q 318 844 328 796 l 294 844 q 283 718 293 788 l 185 0 l 63 0 l 190 913 q 242 958 199 958 l 350 958 q 400 917 385 958 l 633 256 q 678 117 665 164 l 704 117 q 718 257 708 193 l 814 958 l 935 958 z "},"Ò":{"ha":925,"x_min":94,"x_max":850,"o":"m 622 1064 l 579 1011 l 322 1185 l 388 1268 l 622 1064 m 538 976 q 814 862 739 976 q 850 475 889 747 q 715 90 813 199 q 413 -18 618 -18 q 133 95 210 -18 q 94 483 57 208 q 230 866 132 756 q 538 976 328 976 m 531 867 q 319 783 385 867 q 222 475 253 700 q 233 174 192 257 q 415 92 274 92 q 625 176 558 92 q 724 483 692 261 q 715 786 756 706 q 531 867 674 867 z "},"Ó":{"ha":925,"x_min":94,"x_max":850,"o":"m 788 1179 l 501 1011 l 464 1067 l 731 1269 l 788 1179 m 538 976 q 814 862 739 976 q 850 475 889 747 q 715 90 813 199 q 413 -18 618 -18 q 133 95 210 -18 q 94 483 57 208 q 230 866 132 756 q 538 976 328 976 m 531 867 q 319 783 385 867 q 222 475 253 700 q 233 174 192 257 q 415 92 274 92 q 625 176 558 92 q 724 483 692 261 q 715 786 756 706 q 531 867 674 867 z "},"Ô":{"ha":925,"x_min":94,"x_max":850,"o":"m 792 1061 l 749 1014 l 582 1154 l 571 1154 l 364 1017 l 331 1068 l 536 1244 l 619 1244 l 792 1061 m 538 976 q 814 862 739 976 q 850 475 889 747 q 715 90 813 199 q 413 -18 618 -18 q 133 95 210 -18 q 94 483 57 208 q 230 866 132 756 q 538 976 328 976 m 531 867 q 319 783 385 867 q 222 475 253 700 q 233 174 192 257 q 415 92 274 92 q 625 176 558 92 q 724 483 692 261 q 715 786 756 706 q 531 867 674 867 z "},"Õ":{"ha":925,"x_min":94,"x_max":850,"o":"m 392 1061 l 336 1065 q 375 1186 340 1146 q 461 1222 410 1226 q 565 1183 507 1218 q 657 1144 622 1149 q 717 1158 697 1140 q 742 1218 736 1176 l 796 1213 q 760 1096 794 1136 q 674 1060 726 1056 q 560 1099 619 1064 q 475 1139 500 1135 q 417 1124 436 1143 q 392 1061 397 1104 m 538 976 q 814 862 739 976 q 850 475 889 747 q 715 90 813 199 q 413 -18 618 -18 q 133 95 210 -18 q 94 483 57 208 q 230 866 132 756 q 538 976 328 976 m 531 867 q 319 783 385 867 q 222 475 253 700 q 233 174 192 257 q 415 92 274 92 q 625 176 558 92 q 724 483 692 261 q 715 786 756 706 q 531 867 674 867 z "},"Ö":{"ha":925,"x_min":94,"x_max":850,"o":"m 442 1208 l 476 1208 q 508 1174 513 1208 l 496 1099 q 460 1065 492 1065 l 421 1065 q 390 1097 386 1065 l 403 1174 q 442 1208 407 1208 m 676 1208 l 711 1208 q 743 1174 747 1208 l 731 1099 q 694 1065 726 1065 l 654 1065 q 625 1097 621 1065 l 638 1174 q 676 1208 642 1208 m 538 976 q 814 862 739 976 q 850 475 889 747 q 715 90 813 199 q 413 -18 618 -18 q 133 95 210 -18 q 94 483 57 208 q 230 866 132 756 q 538 976 328 976 m 531 867 q 319 783 385 867 q 222 475 253 700 q 233 174 192 257 q 415 92 274 92 q 625 176 558 92 q 724 483 692 261 q 715 786 756 706 q 531 867 674 867 z "},"×":{"ha":729,"x_min":58,"x_max":672,"o":"m 432 394 l 608 210 l 544 144 l 358 338 l 113 142 l 58 218 l 294 404 l 115 589 l 181 654 l 367 463 l 618 663 l 672 586 l 432 394 z "},"Ø":{"ha":925,"x_min":94,"x_max":850,"o":"m 836 1013 l 774 910 q 850 475 897 803 q 715 90 813 199 q 413 -18 618 -18 q 229 14 299 -18 l 171 -83 l 114 -49 l 174 50 q 94 483 50 157 q 230 866 132 756 q 538 976 328 976 q 717 944 649 976 l 778 1046 l 836 1013 m 240 161 l 656 844 q 531 867 615 867 q 319 783 385 867 q 222 475 253 700 q 240 161 189 240 m 707 800 l 290 115 q 415 92 336 92 q 625 176 558 92 q 724 483 692 261 q 707 800 758 719 z "},"Ù":{"ha":922,"x_min":108,"x_max":888,"o":"m 621 1064 l 578 1011 l 321 1185 l 386 1268 l 621 1064 m 888 958 l 804 365 q 685 69 774 157 q 414 -18 596 -18 q 153 73 226 -18 q 108 371 79 164 l 189 958 l 313 958 l 229 365 q 247 151 207 211 q 411 92 288 92 q 600 154 539 92 q 683 371 661 217 l 764 958 l 888 958 z "},"Ú":{"ha":922,"x_min":108,"x_max":888,"o":"m 786 1179 l 500 1011 l 463 1067 l 729 1269 l 786 1179 m 888 958 l 804 365 q 685 69 774 157 q 414 -18 596 -18 q 153 73 226 -18 q 108 371 79 164 l 189 958 l 313 958 l 229 365 q 247 151 207 211 q 411 92 288 92 q 600 154 539 92 q 683 371 661 217 l 764 958 l 888 958 z "},"Û":{"ha":922,"x_min":108,"x_max":888,"o":"m 790 1061 l 747 1014 l 581 1154 l 569 1154 l 363 1017 l 329 1068 l 535 1244 l 618 1244 l 790 1061 m 888 958 l 804 365 q 685 69 774 157 q 414 -18 596 -18 q 153 73 226 -18 q 108 371 79 164 l 189 958 l 313 958 l 229 365 q 247 151 207 211 q 411 92 288 92 q 600 154 539 92 q 683 371 661 217 l 764 958 l 888 958 z "},"Ü":{"ha":922,"x_min":108,"x_max":888,"o":"m 440 1208 l 475 1208 q 507 1174 511 1208 l 494 1099 q 458 1065 490 1065 l 419 1065 q 389 1097 385 1065 l 401 1174 q 440 1208 406 1208 m 675 1208 l 710 1208 q 742 1174 746 1208 l 729 1099 q 693 1065 725 1065 l 653 1065 q 624 1097 619 1065 l 636 1174 q 675 1208 640 1208 m 888 958 l 804 365 q 685 69 774 157 q 414 -18 596 -18 q 153 73 226 -18 q 108 371 79 164 l 189 958 l 313 958 l 229 365 q 247 151 207 211 q 411 92 288 92 q 600 154 539 92 q 683 371 661 217 l 764 958 l 888 958 z "},"Ý":{"ha":785,"x_min":89,"x_max":846,"o":"m 425 1011 l 389 1067 l 654 1269 l 711 1179 l 425 1011 m 440 335 l 393 0 l 269 0 l 318 340 l 89 958 l 214 958 l 358 551 q 386 443 379 489 l 397 443 q 454 556 418 499 l 713 958 l 846 958 l 440 335 z "},"Þ":{"ha":818,"x_min":63,"x_max":767,"o":"m 319 958 l 296 785 q 497 788 350 788 q 727 721 663 788 q 767 481 792 654 q 669 244 742 307 q 439 182 597 182 q 213 194 319 182 l 185 0 l 63 0 l 197 958 l 319 958 m 225 288 l 424 288 q 582 330 535 289 q 646 490 629 371 q 630 644 661 606 q 493 683 599 683 q 281 682 336 683 l 225 288 z "},"ß":{"ha":933,"x_min":-167,"x_max":853,"o":"m 618 419 l 754 338 q 838 261 815 300 q 853 153 861 222 q 776 19 839 53 q 583 -15 713 -15 q 363 0 469 -15 l 376 90 q 563 85 500 83 q 688 101 650 85 q 733 169 726 118 q 727 215 736 196 q 706 244 718 235 q 665 272 694 254 l 525 357 q 433 514 419 419 q 449 562 436 539 q 474 599 461 585 q 517 633 486 613 q 563 661 547 653 q 621 692 578 669 q 703 751 678 725 q 733 818 729 778 q 703 883 738 863 q 557 904 669 904 q 387 871 435 904 q 325 739 339 838 l 208 -83 q 140 -231 193 -183 q -14 -279 86 -279 q -167 -269 -79 -279 l -149 -181 l -43 -181 q 53 -157 24 -181 q 93 -65 83 -133 l 185 583 l 61 583 l 74 668 l 197 675 l 208 756 q 246 885 219 835 q 319 960 272 935 q 417 993 365 985 q 547 1001 468 1001 q 794 960 726 1001 q 847 815 861 919 q 808 717 840 758 q 703 633 776 676 q 667 615 694 629 q 630 597 639 601 q 601 580 621 592 q 574 559 582 568 q 558 537 567 550 q 547 510 550 524 q 559 464 543 482 q 618 419 575 446 z "},"à":{"ha":796,"x_min":71,"x_max":726,"o":"m 479 761 l 222 935 l 286 1018 l 521 814 l 479 761 m 633 0 l 540 0 l 549 136 q 247 -17 418 -17 q 83 65 125 -17 q 71 346 42 146 q 113 528 86 458 q 185 634 140 599 q 279 681 229 669 q 408 693 329 693 q 726 661 560 693 l 633 0 m 547 238 l 597 590 q 444 594 497 594 q 259 549 304 594 q 189 336 214 504 q 184 135 168 183 q 271 86 200 86 q 547 238 392 86 z "},"á":{"ha":796,"x_min":71,"x_max":726,"o":"m 400 761 l 363 817 l 629 1019 l 686 929 l 400 761 m 633 0 l 540 0 l 549 136 q 247 -17 418 -17 q 83 65 125 -17 q 71 346 42 146 q 113 528 86 458 q 185 634 140 599 q 279 681 229 669 q 408 693 329 693 q 726 661 560 693 l 633 0 m 547 238 l 597 590 q 444 594 497 594 q 259 549 304 594 q 189 336 214 504 q 184 135 168 183 q 271 86 200 86 q 547 238 392 86 z "},"â":{"ha":796,"x_min":71,"x_max":726,"o":"m 264 767 l 229 818 l 435 994 l 519 994 l 692 811 l 647 764 l 482 904 l 469 904 l 264 767 m 633 0 l 540 0 l 549 136 q 247 -17 418 -17 q 83 65 125 -17 q 71 346 42 146 q 113 528 86 458 q 185 634 140 599 q 279 681 229 669 q 408 693 329 693 q 726 661 560 693 l 633 0 m 547 238 l 597 590 q 444 594 497 594 q 259 549 304 594 q 189 336 214 504 q 184 135 168 183 q 271 86 200 86 q 547 238 392 86 z "},"ã":{"ha":796,"x_min":71,"x_max":726,"o":"m 640 968 l 696 963 q 659 846 693 886 q 572 810 625 806 q 459 850 518 814 q 375 889 400 886 q 317 874 336 893 q 290 811 297 854 l 235 815 q 274 936 239 896 q 360 972 308 976 q 465 933 407 968 q 556 894 522 899 q 615 908 596 890 q 640 968 635 926 m 633 0 l 540 0 l 549 136 q 247 -17 418 -17 q 83 65 125 -17 q 71 346 42 146 q 113 528 86 458 q 185 634 140 599 q 279 681 229 669 q 408 693 329 693 q 726 661 560 693 l 633 0 m 547 238 l 597 590 q 444 594 497 594 q 259 549 304 594 q 189 336 214 504 q 184 135 168 183 q 271 86 200 86 q 547 238 392 86 z "},"ä":{"ha":796,"x_min":71,"x_max":726,"o":"m 358 815 l 319 815 q 289 847 285 815 l 301 925 q 340 958 306 958 l 376 958 q 407 925 411 958 l 394 849 q 358 815 390 815 m 593 815 l 554 815 q 524 847 519 815 l 536 925 q 575 958 540 958 l 611 958 q 642 925 646 958 l 629 849 q 593 815 625 815 m 633 0 l 540 0 l 549 136 q 247 -17 418 -17 q 83 65 125 -17 q 71 346 42 146 q 113 528 86 458 q 185 634 140 599 q 279 681 229 669 q 408 693 329 693 q 726 661 560 693 l 633 0 m 547 238 l 597 590 q 444 594 497 594 q 259 549 304 594 q 189 336 214 504 q 184 135 168 183 q 271 86 200 86 q 547 238 392 86 z "},"å":{"ha":796,"x_min":71,"x_max":726,"o":"m 457 743 q 350 785 389 743 q 318 893 311 828 q 367 994 325 953 q 474 1035 410 1035 q 581 992 540 1035 q 614 883 621 949 q 565 783 607 824 q 457 743 522 743 m 385 888 q 401 827 379 850 q 458 804 424 804 q 519 828 494 804 q 547 890 544 853 q 531 950 551 926 q 475 974 511 974 q 412 949 436 974 q 385 888 388 925 m 633 0 l 540 0 l 549 136 q 247 -17 418 -17 q 83 65 125 -17 q 71 346 42 146 q 113 528 86 458 q 185 634 140 599 q 279 681 229 669 q 408 693 329 693 q 726 661 560 693 l 633 0 m 547 238 l 597 590 q 444 594 497 594 q 259 549 304 594 q 189 336 214 504 q 184 135 168 183 q 271 86 200 86 q 547 238 392 86 z "},"æ":{"ha":1213,"x_min":69,"x_max":1156,"o":"m 1072 100 l 1081 21 q 808 -17 989 -17 q 542 135 589 -17 q 243 -17 415 -17 q 82 66 122 -17 q 69 346 42 149 q 112 528 85 458 q 184 634 139 599 q 278 681 229 669 q 406 693 328 693 q 706 663 549 693 q 904 693 776 693 q 1115 640 1058 693 q 1156 476 1172 586 q 1080 339 1139 381 q 899 288 1021 297 l 649 265 q 688 121 644 158 q 829 83 732 83 q 1072 100 951 83 m 267 86 q 526 225 383 86 q 535 354 525 283 q 611 588 556 514 q 442 594 489 594 q 260 549 304 594 q 192 336 215 503 q 185 135 171 185 q 267 86 200 86 m 657 353 l 897 376 q 997 405 965 382 q 1038 486 1028 428 q 1016 576 1049 557 q 889 594 983 594 q 726 548 774 594 q 657 353 679 501 z "},"ç":{"ha":672,"x_min":64,"x_max":644,"o":"m 565 97 l 574 17 q 342 -17 467 -17 q 100 66 164 -17 q 64 343 36 149 q 173 615 92 536 q 428 693 254 693 q 644 660 561 693 l 625 586 q 447 593 550 593 q 263 540 319 593 q 188 333 207 488 q 205 132 168 181 q 363 83 242 83 q 565 97 478 83 m 239 -132 l 253 -76 q 374 -89 339 -68 q 397 -172 408 -110 q 313 -303 383 -257 q 144 -335 243 -349 l 167 -272 q 263 -245 222 -274 q 313 -171 304 -217 q 303 -140 317 -147 q 239 -132 289 -133 z "},"è":{"ha":746,"x_min":67,"x_max":688,"o":"m 469 761 l 213 935 l 278 1018 l 513 814 l 469 761 m 610 100 l 618 21 q 342 -17 522 -17 q 104 72 168 -17 q 67 354 40 161 q 174 622 94 551 q 436 693 254 693 q 648 640 590 693 q 688 476 706 586 q 612 339 671 381 q 431 288 553 297 l 181 265 q 221 121 178 158 q 361 83 264 83 q 610 100 481 83 m 189 353 l 429 376 q 530 405 499 382 q 571 486 561 428 q 549 576 582 557 q 421 594 515 594 q 260 548 307 594 q 189 353 213 501 z "},"é":{"ha":746,"x_min":67,"x_max":688,"o":"m 390 761 l 354 817 l 619 1019 l 678 929 l 390 761 m 610 100 l 618 21 q 342 -17 522 -17 q 104 72 168 -17 q 67 354 40 161 q 174 622 94 551 q 436 693 254 693 q 648 640 590 693 q 688 476 706 586 q 612 339 671 381 q 431 288 553 297 l 181 265 q 221 121 178 158 q 361 83 264 83 q 610 100 481 83 m 189 353 l 429 376 q 530 405 499 382 q 571 486 561 428 q 549 576 582 557 q 421 594 515 594 q 260 548 307 594 q 189 353 213 501 z "},"ê":{"ha":746,"x_min":67,"x_max":688,"o":"m 254 767 l 219 818 l 426 994 l 510 994 l 682 811 l 638 764 l 472 904 l 461 904 l 254 767 m 610 100 l 618 21 q 342 -17 522 -17 q 104 72 168 -17 q 67 354 40 161 q 174 622 94 551 q 436 693 254 693 q 648 640 590 693 q 688 476 706 586 q 612 339 671 381 q 431 288 553 297 l 181 265 q 221 121 178 158 q 361 83 264 83 q 610 100 481 83 m 189 353 l 429 376 q 530 405 499 382 q 571 486 561 428 q 549 576 582 557 q 421 594 515 594 q 260 548 307 594 q 189 353 213 501 z "},"ë":{"ha":746,"x_min":67,"x_max":688,"o":"m 349 815 l 310 815 q 279 847 278 815 l 292 925 q 331 958 297 958 l 367 958 q 397 925 403 958 l 385 849 q 349 815 383 815 m 583 815 l 544 815 q 514 847 513 815 l 526 925 q 565 958 533 958 l 601 958 q 632 925 639 958 l 619 849 q 583 815 617 815 m 610 100 l 618 21 q 342 -17 522 -17 q 104 72 168 -17 q 67 354 40 161 q 174 622 94 551 q 436 693 254 693 q 648 640 590 693 q 688 476 706 586 q 612 339 671 381 q 431 288 553 297 l 181 265 q 221 121 178 158 q 361 83 264 83 q 610 100 481 83 m 189 353 l 429 376 q 530 405 499 382 q 571 486 561 428 q 549 576 582 557 q 421 594 515 594 q 260 548 307 594 q 189 353 213 501 z "},"ì":{"ha":342,"x_min":-4,"x_max":296,"o":"m 296 814 l 253 761 l -4 935 l 61 1018 l 296 814 m 172 0 l 54 0 l 150 676 l 268 676 l 172 0 z "},"í":{"ha":342,"x_min":54,"x_max":460,"o":"m 460 929 l 174 761 l 138 817 l 403 1019 l 460 929 m 172 0 l 54 0 l 150 676 l 268 676 l 172 0 z "},"î":{"ha":342,"x_min":3,"x_max":465,"o":"m 465 811 l 421 764 l 256 904 l 244 904 l 38 767 l 3 818 l 210 994 l 293 994 l 465 811 m 172 0 l 54 0 l 150 676 l 268 676 l 172 0 z "},"ï":{"ha":342,"x_min":54,"x_max":415,"o":"m 114 958 l 150 958 q 181 925 185 958 l 168 849 q 132 815 167 815 l 93 815 q 63 847 61 815 l 75 925 q 114 958 81 958 m 349 958 l 385 958 q 415 925 419 958 l 403 849 q 367 815 400 815 l 328 815 q 297 847 296 815 l 310 925 q 349 958 317 958 m 172 0 l 54 0 l 150 676 l 268 676 l 172 0 z "},"ð":{"ha":771,"x_min":61,"x_max":685,"o":"m 685 936 l 581 865 q 682 388 726 719 q 576 83 656 185 q 319 -18 496 -18 q 101 62 164 -18 q 61 308 39 142 q 156 542 81 461 q 374 622 231 622 q 572 547 499 622 q 494 804 572 722 l 371 719 l 339 767 l 446 842 q 233 883 372 886 l 251 969 q 533 904 424 976 l 650 986 l 685 936 m 325 82 q 489 157 438 82 q 563 404 540 232 q 569 468 568 449 q 399 524 499 524 q 248 468 297 524 q 183 300 199 413 q 199 131 165 181 q 325 82 233 82 z "},"ñ":{"ha":803,"x_min":49,"x_max":715,"o":"m 647 968 l 701 963 q 666 846 700 886 q 579 810 632 806 q 465 850 525 814 q 381 889 406 886 q 322 874 342 893 q 297 811 303 854 l 242 815 q 281 936 246 896 q 367 972 315 976 q 470 933 413 968 q 563 894 528 899 q 622 908 603 890 q 647 968 640 926 m 239 676 l 229 528 q 556 693 415 693 q 685 645 642 693 q 715 506 728 597 l 643 0 l 525 0 l 593 476 q 585 567 601 542 q 519 593 568 593 q 394 557 458 593 q 228 440 329 521 l 167 0 l 49 0 l 144 676 l 239 676 z "},"ò":{"ha":783,"x_min":64,"x_max":700,"o":"m 514 814 l 471 761 l 214 935 l 279 1018 l 514 814 m 173 613 q 214 653 173 613 q 426 693 254 693 q 663 610 599 693 q 700 332 728 526 q 592 61 674 140 q 340 -18 510 -18 q 103 65 169 -18 q 64 342 38 149 q 173 613 92 533 m 426 593 q 260 539 313 593 q 188 332 208 485 q 199 135 167 188 q 340 82 232 82 q 506 138 454 82 q 579 342 558 193 q 567 540 600 488 q 426 593 535 593 z "},"ó":{"ha":783,"x_min":64,"x_max":700,"o":"m 679 929 l 392 761 l 356 817 l 622 1019 l 679 929 m 173 613 q 214 653 173 613 q 426 693 254 693 q 663 610 599 693 q 700 332 728 526 q 592 61 674 140 q 340 -18 510 -18 q 103 65 169 -18 q 64 342 38 149 q 173 613 92 533 m 426 593 q 260 539 313 593 q 188 332 208 485 q 199 135 167 188 q 340 82 232 82 q 506 138 454 82 q 579 342 558 193 q 567 540 600 488 q 426 593 535 593 z "},"ô":{"ha":783,"x_min":64,"x_max":700,"o":"m 683 811 l 639 764 l 474 904 l 463 904 l 256 767 l 222 818 l 428 994 l 511 994 l 683 811 m 173 613 q 214 653 173 613 q 426 693 254 693 q 663 610 599 693 q 700 332 728 526 q 592 61 674 140 q 340 -18 510 -18 q 103 65 169 -18 q 64 342 38 149 q 173 613 92 533 m 426 593 q 260 539 313 593 q 188 332 208 485 q 199 135 167 188 q 340 82 232 82 q 506 138 454 82 q 579 342 558 193 q 567 540 600 488 q 426 593 535 593 z "},"õ":{"ha":783,"x_min":64,"x_max":700,"o":"m 283 811 l 228 815 q 266 936 231 896 q 353 972 301 976 q 456 933 399 968 q 549 894 514 899 q 607 908 588 890 q 633 968 626 926 l 688 963 q 652 846 686 886 q 565 810 618 806 q 451 850 511 814 q 367 889 392 886 q 308 874 328 893 q 283 811 289 854 m 173 613 q 214 653 173 613 q 426 693 254 693 q 663 610 599 693 q 700 332 728 526 q 592 61 674 140 q 340 -18 510 -18 q 103 65 169 -18 q 64 342 38 149 q 173 613 92 533 m 426 593 q 260 539 313 593 q 188 332 208 485 q 199 135 167 188 q 340 82 232 82 q 506 138 454 82 q 579 342 558 193 q 567 540 600 488 q 426 593 535 593 z "},"ö":{"ha":783,"x_min":64,"x_max":700,"o":"m 332 958 l 368 958 q 399 925 406 958 l 388 849 q 351 815 383 815 l 311 815 q 282 847 278 815 l 293 925 q 332 958 300 958 m 567 958 l 603 958 q 633 925 639 958 l 622 849 q 585 815 618 815 l 546 815 q 517 847 513 815 l 528 925 q 567 958 533 958 m 173 613 q 214 653 173 613 q 426 693 254 693 q 663 610 599 693 q 700 332 728 526 q 592 61 674 140 q 340 -18 510 -18 q 103 65 169 -18 q 64 342 38 149 q 173 613 92 533 m 426 593 q 260 539 313 593 q 188 332 208 485 q 199 135 167 188 q 340 82 232 82 q 506 138 454 82 q 579 342 558 193 q 567 540 600 488 q 426 593 535 593 z "},"÷":{"ha":788,"x_min":83,"x_max":706,"o":"m 419 729 l 450 729 q 490 682 499 728 l 482 614 q 435 574 476 574 l 404 574 q 363 619 356 574 l 372 686 q 419 729 378 729 m 692 365 l 83 365 l 97 454 l 706 454 l 692 365 m 350 244 l 382 244 q 424 197 429 244 l 413 129 q 367 89 408 89 l 335 89 q 296 136 290 89 l 306 201 q 350 244 310 244 z "},"ø":{"ha":783,"x_min":64,"x_max":700,"o":"m 676 751 l 617 653 q 700 332 736 578 q 592 61 674 140 q 340 -18 510 -18 q 218 -4 268 -18 l 157 -104 l 106 -74 l 161 18 q 64 342 29 89 q 173 613 92 533 q 426 693 254 693 q 561 676 511 693 l 624 782 l 676 751 m 218 113 l 504 585 q 426 593 479 593 q 260 539 313 593 q 188 332 208 485 q 218 113 164 160 m 557 554 l 274 88 q 340 82 300 82 q 506 138 454 82 q 579 342 558 193 q 557 554 601 506 z "},"ù":{"ha":788,"x_min":69,"x_max":719,"o":"m 476 767 l 219 940 l 285 1024 l 519 819 l 476 767 m 719 676 l 625 0 l 533 0 l 543 147 q 231 -18 374 -18 q 97 32 139 -18 q 69 171 56 82 l 140 676 l 258 676 l 190 200 q 199 111 181 138 q 271 85 218 85 q 389 121 331 85 q 542 242 447 157 l 601 676 l 719 676 z "},"ú":{"ha":788,"x_min":69,"x_max":719,"o":"m 397 767 l 361 821 l 628 1025 l 685 933 l 397 767 m 719 676 l 625 0 l 533 0 l 543 147 q 231 -18 374 -18 q 97 32 139 -18 q 69 171 56 82 l 140 676 l 258 676 l 190 200 q 199 111 181 138 q 271 85 218 85 q 389 121 331 85 q 542 242 447 157 l 601 676 l 719 676 z "},"û":{"ha":788,"x_min":69,"x_max":719,"o":"m 261 772 l 228 824 l 433 1000 l 517 1000 l 689 817 l 646 769 l 479 910 l 468 910 l 261 772 m 719 676 l 625 0 l 533 0 l 543 147 q 231 -18 374 -18 q 97 32 139 -18 q 69 171 56 82 l 140 676 l 258 676 l 190 200 q 199 111 181 138 q 271 85 218 85 q 389 121 331 85 q 542 242 447 157 l 601 676 l 719 676 z "},"ü":{"ha":788,"x_min":69,"x_max":719,"o":"m 357 821 l 317 821 q 288 853 283 821 l 299 929 q 338 964 304 964 l 374 964 q 404 929 410 964 l 393 854 q 357 821 389 821 m 592 821 l 551 821 q 522 853 518 821 l 533 929 q 572 964 539 964 l 608 964 q 639 929 644 964 l 628 854 q 592 821 624 821 m 719 676 l 625 0 l 533 0 l 543 147 q 231 -18 374 -18 q 97 32 139 -18 q 69 171 56 82 l 140 676 l 258 676 l 190 200 q 199 111 181 138 q 271 85 218 85 q 389 121 331 85 q 542 242 447 157 l 601 676 l 719 676 z "},"ý":{"ha":749,"x_min":49,"x_max":726,"o":"m 354 761 l 317 817 l 583 1019 l 640 929 l 354 761 m 604 676 l 726 676 q 521 113 653 350 q 312 -174 414 -86 q 71 -286 210 -261 l 49 -201 q 201 -136 133 -182 q 332 0 268 -90 l 271 0 q 219 17 240 0 q 192 63 199 35 l 61 676 l 185 676 l 292 119 q 324 93 299 93 l 390 93 q 403 119 394 101 q 418 147 413 138 q 604 676 549 403 z "},"þ":{"ha":796,"x_min":11,"x_max":707,"o":"m 240 561 l 242 553 q 533 693 369 693 q 692 613 649 693 q 707 331 735 532 q 665 148 692 218 q 594 42 638 78 q 501 -6 550 6 q 376 -18 453 -18 q 167 -1 288 -18 q 153 -101 156 -87 l 128 -279 l 11 -279 l 186 972 l 304 972 l 268 713 q 240 561 256 621 m 228 436 l 181 85 q 333 82 314 82 q 517 126 472 82 q 585 339 561 171 q 590 542 606 493 q 507 590 575 590 q 228 436 386 590 z "},"ÿ":{"ha":749,"x_min":49,"x_max":726,"o":"m 313 815 l 274 815 q 243 847 239 815 l 256 925 q 294 958 260 958 l 331 958 q 361 925 365 958 l 349 849 q 313 815 344 815 m 547 815 l 508 815 q 478 847 474 815 l 490 925 q 529 958 494 958 l 565 958 q 596 925 600 958 l 583 849 q 547 815 579 815 m 604 676 l 726 676 q 521 113 653 350 q 312 -174 414 -86 q 71 -286 210 -261 l 49 -201 q 201 -136 133 -182 q 332 0 268 -90 l 271 0 q 219 17 240 0 q 192 63 199 35 l 61 676 l 185 676 l 292 119 q 324 93 299 93 l 390 93 q 403 119 394 101 q 418 147 413 138 q 604 676 549 403 z "},"Ā":{"ha":860,"x_min":-42,"x_max":793,"o":"m 725 1092 l 338 1092 l 349 1179 l 736 1179 l 725 1092 m 619 299 l 224 299 l 88 0 l -42 0 l 397 926 q 444 958 407 958 l 572 958 q 601 948 589 958 q 614 922 613 938 l 793 0 l 671 0 l 619 299 m 600 406 l 533 783 q 528 824 532 796 q 522 865 525 851 l 481 865 l 444 783 l 272 406 l 600 406 z "},"ā":{"ha":796,"x_min":71,"x_max":726,"o":"m 653 842 l 265 842 l 278 929 l 664 929 l 653 842 m 633 0 l 540 0 l 549 136 q 247 -17 418 -17 q 83 65 125 -17 q 71 346 42 146 q 113 528 86 458 q 185 634 140 599 q 279 681 229 669 q 408 693 329 693 q 726 661 560 693 l 633 0 m 547 238 l 597 590 q 444 594 497 594 q 259 549 304 594 q 189 336 214 504 q 184 135 168 183 q 271 86 200 86 q 547 238 392 86 z "},"Ă":{"ha":860,"x_min":-42,"x_max":793,"o":"m 696 1231 l 756 1215 q 688 1085 749 1135 q 529 1036 626 1036 q 375 1088 426 1036 q 340 1221 324 1139 l 401 1225 q 428 1150 394 1176 q 529 1124 463 1124 q 645 1152 601 1124 q 696 1231 689 1181 m 619 299 l 224 299 l 88 0 l -42 0 l 397 926 q 444 958 407 958 l 572 958 q 601 948 589 958 q 614 922 613 938 l 793 0 l 671 0 l 619 299 m 600 406 l 533 783 q 528 824 532 796 q 522 865 525 851 l 481 865 l 444 783 l 272 406 l 600 406 z "},"ă":{"ha":796,"x_min":71,"x_max":726,"o":"m 624 981 l 683 965 q 615 835 676 885 q 458 786 554 786 q 303 838 356 786 q 268 971 251 889 l 329 975 q 356 900 322 926 q 457 874 390 874 q 573 902 529 874 q 624 981 617 931 m 633 0 l 540 0 l 549 136 q 247 -17 418 -17 q 83 65 125 -17 q 71 346 42 146 q 113 528 86 458 q 185 634 140 599 q 279 681 229 669 q 408 693 329 693 q 726 661 560 693 l 633 0 m 547 238 l 597 590 q 444 594 497 594 q 259 549 304 594 q 189 336 214 504 q 184 135 168 183 q 271 86 200 86 q 547 238 392 86 z "},"Ą":{"ha":860,"x_min":-42,"x_max":793,"o":"m 614 922 l 793 0 q 671 -162 717 -81 q 669 -226 643 -211 q 765 -218 696 -240 l 779 -269 q 684 -295 726 -290 q 617 -290 642 -300 q 578 -261 592 -281 q 567 -215 565 -242 q 585 -158 569 -187 q 732 0 625 -79 l 671 0 l 619 299 l 224 299 l 88 0 l -42 0 l 397 926 q 444 958 407 958 l 572 958 q 601 948 589 958 q 614 922 613 938 m 600 406 l 533 783 q 528 824 532 796 q 522 865 525 851 l 481 865 l 444 783 l 272 406 l 600 406 z "},"ą":{"ha":796,"x_min":71,"x_max":726,"o":"m 726 661 l 633 0 q 510 -162 557 -78 q 508 -226 482 -211 q 604 -218 535 -240 l 618 -269 q 523 -295 565 -290 q 456 -290 481 -300 q 417 -261 431 -281 q 406 -215 404 -242 q 424 -158 408 -187 q 571 0 464 -79 l 540 0 l 549 136 q 247 -17 418 -17 q 83 65 125 -17 q 71 346 42 146 q 113 528 86 458 q 185 634 140 599 q 279 681 229 669 q 408 693 329 693 q 726 661 560 693 m 547 238 l 597 590 q 444 594 497 594 q 259 549 304 594 q 189 336 214 504 q 184 135 168 183 q 271 86 200 86 q 547 238 392 86 z "},"Ć":{"ha":786,"x_min":94,"x_max":793,"o":"m 768 1179 l 481 1011 l 444 1067 l 711 1269 l 768 1179 m 682 107 l 689 14 q 407 -17 575 -17 q 129 101 201 -17 q 94 483 57 218 q 230 866 133 757 q 532 975 326 975 q 793 946 686 975 l 774 854 q 531 867 650 867 q 319 785 386 867 q 222 475 253 704 q 232 176 192 258 q 408 92 272 93 q 682 107 557 92 z "},"ć":{"ha":672,"x_min":64,"x_max":654,"o":"m 654 929 l 368 761 l 331 817 l 597 1019 l 654 929 m 565 97 l 574 17 q 342 -17 467 -17 q 100 66 164 -17 q 64 343 36 149 q 173 615 92 536 q 428 693 254 693 q 644 660 561 693 l 625 586 q 447 593 550 593 q 263 540 319 593 q 188 333 207 488 q 205 132 168 181 q 363 83 242 83 q 565 97 478 83 z "},"Ċ":{"ha":786,"x_min":94,"x_max":793,"o":"m 533 1204 l 572 1204 q 599 1194 590 1204 q 606 1167 608 1185 l 594 1088 q 557 1054 590 1054 l 519 1054 q 492 1065 501 1054 q 486 1092 483 1075 l 496 1171 q 533 1204 501 1204 m 682 107 l 689 14 q 407 -17 575 -17 q 129 101 201 -17 q 94 483 57 218 q 230 866 133 757 q 532 975 326 975 q 793 946 686 975 l 774 854 q 531 867 650 867 q 319 785 386 867 q 222 475 253 704 q 232 176 192 258 q 408 92 272 93 q 682 107 557 92 z "},"ċ":{"ha":672,"x_min":64,"x_max":644,"o":"m 421 954 l 458 954 q 493 917 497 954 l 482 839 q 444 804 476 804 l 407 804 q 379 815 389 804 q 372 842 369 825 l 383 921 q 421 954 388 954 m 565 97 l 574 17 q 342 -17 467 -17 q 100 66 164 -17 q 64 343 36 149 q 173 615 92 536 q 428 693 254 693 q 644 660 561 693 l 625 586 q 447 593 550 593 q 263 540 319 593 q 188 333 207 488 q 205 132 168 181 q 363 83 242 83 q 565 97 478 83 z "},"Č":{"ha":786,"x_min":94,"x_max":793,"o":"m 786 1210 l 578 1033 l 492 1033 l 329 1217 l 378 1261 l 535 1122 l 546 1122 l 749 1261 l 786 1210 m 682 107 l 689 14 q 407 -17 575 -17 q 129 101 201 -17 q 94 483 57 218 q 230 866 133 757 q 532 975 326 975 q 793 946 686 975 l 774 854 q 531 867 650 867 q 319 785 386 867 q 222 475 253 704 q 232 176 192 258 q 408 92 272 93 q 682 107 557 92 z "},"č":{"ha":672,"x_min":64,"x_max":672,"o":"m 672 960 l 465 783 l 379 783 l 217 967 l 264 1011 l 421 872 l 432 872 l 636 1011 l 672 960 m 565 97 l 574 17 q 342 -17 467 -17 q 100 66 164 -17 q 64 343 36 149 q 173 615 92 536 q 428 693 254 693 q 644 660 561 693 l 625 586 q 447 593 550 593 q 263 540 319 593 q 188 333 207 488 q 205 132 168 181 q 363 83 242 83 q 565 97 478 83 z "},"Ď":{"ha":919,"x_min":63,"x_max":844,"o":"m 486 1033 l 324 1217 l 371 1261 l 528 1122 l 539 1122 l 743 1261 l 779 1210 l 572 1033 l 486 1033 m 63 0 l 197 958 q 511 971 367 971 q 808 861 733 971 q 844 475 883 751 q 789 224 822 319 q 697 76 756 128 q 567 6 639 24 q 381 -12 496 -12 q 63 0 244 -12 m 306 863 l 199 97 q 379 94 324 94 q 518 109 465 94 q 612 167 571 124 q 676 285 653 211 q 718 483 700 360 q 733 644 732 579 q 723 753 733 708 q 683 822 713 797 q 613 856 654 846 q 508 865 572 865 q 306 863 444 865 z "},"ď":{"ha":794,"x_min":69,"x_max":964,"o":"m 650 972 l 768 972 l 632 0 l 539 0 l 549 147 q 233 -17 399 -17 q 84 67 126 -17 q 69 346 42 150 q 113 527 86 457 q 183 633 139 597 q 274 681 226 669 q 396 693 322 693 q 615 676 492 693 q 626 806 618 744 l 650 972 m 897 972 l 929 972 q 964 933 969 972 l 953 857 q 882 675 940 774 l 829 693 q 869 835 861 792 q 844 842 853 833 q 838 867 835 851 l 849 936 q 863 965 853 957 q 897 972 872 972 m 549 242 l 596 593 q 440 596 463 596 q 328 588 367 596 q 259 551 289 581 q 215 473 229 521 q 189 336 201 425 q 183 138 168 190 q 267 86 199 86 q 397 123 332 86 q 549 242 463 160 z "},"Đ":{"ha":919,"x_min":38,"x_max":844,"o":"m 139 543 l 197 958 q 511 971 367 971 q 808 861 733 971 q 844 475 883 751 q 789 224 822 319 q 697 76 756 128 q 567 6 639 24 q 381 -12 496 -12 q 63 0 244 -12 l 129 475 l 38 475 l 47 543 l 139 543 m 251 475 l 199 97 q 379 94 324 94 q 518 109 465 94 q 612 167 571 124 q 676 285 653 211 q 718 483 700 360 q 733 644 732 579 q 723 753 733 708 q 683 822 713 797 q 613 856 654 846 q 508 865 572 865 q 306 863 444 865 l 261 543 l 475 543 l 467 475 l 251 475 z "},"đ":{"ha":794,"x_min":69,"x_max":854,"o":"m 846 800 l 744 800 l 632 0 l 539 0 l 549 147 q 233 -17 399 -17 q 84 67 126 -17 q 69 346 42 150 q 113 527 86 457 q 183 633 139 597 q 274 681 226 669 q 396 693 322 693 q 615 676 492 693 q 625 800 617 739 l 419 800 l 429 867 l 635 867 l 650 972 l 768 972 l 754 867 l 854 867 l 846 800 m 549 242 l 596 593 q 440 596 463 596 q 328 588 367 596 q 259 551 289 581 q 215 473 229 521 q 189 336 201 425 q 183 138 168 190 q 267 86 199 86 q 397 123 332 86 q 549 242 463 160 z "},"Ē":{"ha":775,"x_min":81,"x_max":781,"o":"m 719 1119 l 332 1119 l 344 1208 l 732 1208 l 719 1119 m 764 856 l 382 856 q 313 833 335 856 q 283 761 290 811 l 254 553 l 667 553 l 654 458 l 242 458 l 206 193 q 217 124 199 146 q 282 103 235 103 l 657 103 l 654 7 q 267 -1 532 -1 q 115 49 163 -1 q 81 190 68 100 l 165 796 q 228 917 176 874 q 367 960 279 960 q 781 951 653 960 l 764 856 z "},"ē":{"ha":746,"x_min":67,"x_max":688,"o":"m 643 842 l 256 842 l 268 929 l 656 929 l 643 842 m 610 100 l 618 21 q 342 -17 522 -17 q 104 72 168 -17 q 67 354 40 161 q 174 622 94 551 q 436 693 254 693 q 648 640 590 693 q 688 476 706 586 q 612 339 671 381 q 431 288 553 297 l 181 265 q 221 121 178 158 q 361 83 264 83 q 610 100 481 83 m 189 353 l 429 376 q 530 405 499 382 q 571 486 561 428 q 549 576 582 557 q 421 594 515 594 q 260 548 307 594 q 189 353 213 501 z "},"Ė":{"ha":775,"x_min":81,"x_max":781,"o":"m 544 1082 l 506 1082 q 480 1092 489 1082 q 472 1121 471 1103 l 482 1199 q 519 1233 488 1233 l 558 1233 q 593 1194 597 1233 l 582 1117 q 544 1082 576 1082 m 764 856 l 382 856 q 313 833 335 856 q 283 761 290 811 l 254 553 l 667 553 l 654 458 l 242 458 l 206 193 q 217 124 199 146 q 282 103 235 103 l 657 103 l 654 7 q 267 -1 532 -1 q 115 49 163 -1 q 81 190 68 100 l 165 796 q 228 917 176 874 q 367 960 279 960 q 781 951 653 960 l 764 856 z "},"ė":{"ha":746,"x_min":67,"x_max":688,"o":"m 467 804 l 429 804 q 402 815 411 804 q 396 842 393 825 l 406 921 q 443 954 411 954 l 482 954 q 509 944 500 954 q 515 917 518 935 l 504 839 q 467 804 500 804 m 610 100 l 618 21 q 342 -17 522 -17 q 104 72 168 -17 q 67 354 40 161 q 174 622 94 551 q 436 693 254 693 q 648 640 590 693 q 688 476 706 586 q 612 339 671 381 q 431 288 553 297 l 181 265 q 221 121 178 158 q 361 83 264 83 q 610 100 481 83 m 189 353 l 429 376 q 530 405 499 382 q 571 486 561 428 q 549 576 582 557 q 421 594 515 594 q 260 548 307 594 q 189 353 213 501 z "},"Ę":{"ha":775,"x_min":81,"x_max":781,"o":"m 764 856 l 382 856 q 313 833 335 856 q 283 761 290 811 l 254 553 l 667 553 l 654 458 l 242 458 l 206 193 q 217 124 199 146 q 282 103 235 103 l 657 103 l 654 7 q 532 -156 582 -68 q 531 -219 504 -204 q 626 -211 557 -233 l 640 -262 q 525 -290 574 -289 q 455 -271 476 -290 q 428 -220 433 -251 q 444 -151 424 -189 q 588 3 485 -72 q 267 -1 483 -1 q 115 49 163 -1 q 81 190 68 100 l 165 796 q 228 917 176 874 q 367 960 279 960 q 781 951 653 960 l 764 856 z "},"ę":{"ha":746,"x_min":67,"x_max":688,"o":"m 589 -197 l 603 -249 q 488 -276 538 -275 q 418 -258 439 -278 q 392 -207 397 -237 q 408 -137 386 -176 q 528 -1 442 -72 q 342 -17 440 -17 q 104 72 168 -17 q 67 354 40 161 q 174 622 94 551 q 436 693 254 693 q 648 640 590 693 q 688 476 706 586 q 612 339 671 381 q 431 288 553 297 l 181 265 q 221 121 178 158 q 361 83 264 83 q 610 100 481 83 l 618 21 q 496 -142 542 -58 q 494 -205 468 -190 q 589 -197 521 -219 m 189 353 l 429 376 q 530 405 499 382 q 571 486 561 428 q 549 576 582 557 q 421 594 515 594 q 260 548 307 594 q 189 353 213 501 z "},"Ě":{"ha":775,"x_min":81,"x_max":781,"o":"m 479 1061 l 317 1246 l 364 1289 l 521 1151 l 532 1151 l 736 1289 l 772 1239 l 564 1061 l 479 1061 m 764 856 l 382 856 q 313 833 335 856 q 283 761 290 811 l 254 553 l 667 553 l 654 458 l 242 458 l 206 193 q 217 124 199 146 q 282 103 235 103 l 657 103 l 654 7 q 267 -1 532 -1 q 115 49 163 -1 q 81 190 68 100 l 165 796 q 228 917 176 874 q 367 960 279 960 q 781 951 653 960 l 764 856 z "},"ě":{"ha":746,"x_min":67,"x_max":696,"o":"m 401 783 l 239 967 l 288 1011 l 444 872 l 456 872 l 658 1011 l 696 960 l 488 783 l 401 783 m 610 100 l 618 21 q 342 -17 522 -17 q 104 72 168 -17 q 67 354 40 161 q 174 622 94 551 q 436 693 254 693 q 648 640 590 693 q 688 476 706 586 q 612 339 671 381 q 431 288 553 297 l 181 265 q 221 121 178 158 q 361 83 264 83 q 610 100 481 83 m 189 353 l 429 376 q 530 405 499 382 q 571 486 561 428 q 549 576 582 557 q 421 594 515 594 q 260 548 307 594 q 189 353 213 501 z "},"Ğ":{"ha":867,"x_min":94,"x_max":824,"o":"m 717 1231 l 776 1215 q 708 1085 769 1135 q 551 1036 647 1036 q 397 1088 449 1036 q 361 1221 344 1139 l 422 1225 q 449 1150 415 1176 q 550 1124 483 1124 q 666 1152 622 1124 q 717 1231 710 1181 m 824 946 l 806 856 q 564 867 689 867 q 422 851 476 867 q 326 792 368 836 q 261 672 285 747 q 222 475 238 597 q 231 176 199 261 q 371 90 263 90 q 499 124 440 90 q 633 233 557 158 l 678 556 l 796 556 l 717 0 l 629 0 l 632 132 q 331 -18 501 -18 q 122 102 179 -18 q 94 483 65 222 q 150 729 114 632 q 245 881 186 826 q 375 956 304 935 q 549 976 446 976 q 824 946 707 976 z "},"ğ":{"ha":799,"x_min":21,"x_max":731,"o":"m 625 981 l 685 965 q 617 835 678 885 q 458 786 556 786 q 303 838 356 786 q 268 971 251 889 l 329 975 q 358 900 324 926 q 457 874 392 874 q 574 902 529 874 q 625 981 619 931 m 731 661 l 636 13 q 251 -293 600 -285 q 21 -271 118 -299 l 33 -192 q 253 -193 131 -196 q 517 -11 483 -186 q 572 164 544 121 q 425 33 511 83 q 244 -17 339 -17 q 86 65 131 -17 q 72 346 42 146 q 116 528 89 458 q 186 634 143 599 q 276 681 229 669 q 397 693 324 693 q 728 661 558 693 l 731 661 m 549 239 l 601 590 q 442 594 499 594 q 260 549 306 594 q 192 336 215 504 q 185 135 169 185 q 272 86 201 86 q 549 239 392 86 z "},"Ġ":{"ha":867,"x_min":94,"x_max":824,"o":"m 569 1054 l 532 1054 q 505 1065 514 1054 q 499 1092 496 1075 l 508 1171 q 546 1204 513 1204 l 583 1204 q 611 1194 601 1204 q 618 1167 621 1183 l 607 1088 q 569 1054 603 1054 m 824 946 l 806 856 q 564 867 689 867 q 422 851 476 867 q 326 792 368 836 q 261 672 285 747 q 222 475 238 597 q 231 176 199 261 q 371 90 263 90 q 499 124 440 90 q 633 233 557 158 l 678 556 l 796 556 l 717 0 l 629 0 l 632 132 q 331 -18 501 -18 q 122 102 179 -18 q 94 483 65 222 q 150 729 114 632 q 245 881 186 826 q 375 956 304 935 q 549 976 446 976 q 824 946 707 976 z "},"ġ":{"ha":799,"x_min":21,"x_max":731,"o":"m 476 804 l 439 804 q 406 842 401 804 l 415 921 q 453 954 421 954 l 492 954 q 526 917 531 954 l 515 839 q 476 804 510 804 m 731 661 l 636 13 q 251 -293 600 -285 q 21 -271 118 -299 l 33 -192 q 253 -193 131 -196 q 517 -11 483 -186 q 572 164 544 121 q 425 33 511 83 q 244 -17 339 -17 q 86 65 131 -17 q 72 346 42 146 q 116 528 89 458 q 186 634 143 599 q 276 681 229 669 q 397 693 324 693 q 728 661 558 693 l 731 661 m 549 239 l 601 590 q 442 594 499 594 q 260 549 306 594 q 192 336 215 504 q 185 135 169 185 q 272 86 201 86 q 549 239 392 86 z "},"Ģ":{"ha":867,"x_min":94,"x_max":824,"o":"m 824 946 l 806 856 q 564 867 689 867 q 422 851 476 867 q 326 792 368 836 q 261 672 285 747 q 222 475 238 597 q 231 176 199 261 q 371 90 263 90 q 499 124 440 90 q 633 233 557 158 l 678 556 l 796 556 l 717 0 l 629 0 l 632 132 q 331 -18 501 -18 q 122 102 179 -18 q 94 483 65 222 q 150 729 114 632 q 245 881 186 826 q 375 956 304 935 q 549 976 446 976 q 824 946 707 976 m 383 -81 l 417 -81 q 450 -121 458 -81 l 439 -197 q 368 -381 429 -275 l 315 -362 q 357 -219 347 -269 q 331 -212 340 -221 q 324 -187 322 -203 l 335 -117 q 349 -88 339 -96 q 383 -81 358 -81 z "},"ģ":{"ha":799,"x_min":21,"x_max":731,"o":"m 467 774 l 435 774 q 400 814 394 774 l 411 890 q 482 1072 422 974 l 535 1056 q 494 913 503 964 q 519 905 511 914 q 526 881 528 896 l 515 810 q 501 781 511 789 q 467 774 492 774 m 731 661 l 636 13 q 251 -293 600 -285 q 21 -271 118 -299 l 33 -192 q 253 -193 131 -196 q 517 -11 483 -186 q 572 164 544 121 q 425 33 511 83 q 244 -17 339 -17 q 86 65 131 -17 q 72 346 42 146 q 116 528 89 458 q 186 634 143 599 q 276 681 229 669 q 397 693 324 693 q 728 661 558 693 l 731 661 m 549 239 l 601 590 q 442 594 499 594 q 260 549 306 594 q 192 336 215 504 q 185 135 169 185 q 272 86 201 86 q 549 239 392 86 z "},"Ħ":{"ha":925,"x_min":63,"x_max":961,"o":"m 953 721 l 850 721 l 749 0 l 628 0 l 692 458 l 250 458 l 186 0 l 63 0 l 164 721 l 71 721 l 81 786 l 174 786 l 197 958 l 321 958 l 296 786 l 738 786 l 763 958 l 883 958 l 860 786 l 961 786 l 953 721 m 729 721 l 288 721 l 265 564 l 707 564 l 729 721 z "},"ħ":{"ha":803,"x_min":49,"x_max":715,"o":"m 281 800 l 267 700 q 235 533 256 610 q 556 693 418 693 q 685 645 642 693 q 715 506 728 597 l 643 0 l 525 0 l 593 476 q 585 567 601 542 q 519 593 568 593 q 394 557 458 593 q 228 439 331 521 l 167 0 l 49 0 l 163 800 l 63 800 l 72 867 l 171 867 l 186 972 l 304 972 l 290 867 l 497 867 l 488 800 l 281 800 z "},"Ī":{"ha":363,"x_min":63,"x_max":483,"o":"m 471 1092 l 83 1092 l 96 1179 l 483 1179 l 471 1092 m 186 0 l 63 0 l 197 958 l 321 958 l 186 0 z "},"ī":{"ha":342,"x_min":39,"x_max":439,"o":"m 426 842 l 39 842 l 51 929 l 439 929 l 426 842 m 172 0 l 54 0 l 150 676 l 268 676 l 172 0 z "},"Į":{"ha":363,"x_min":-56,"x_max":321,"o":"m 186 0 l 171 0 q 49 -162 94 -81 q 47 -226 21 -211 q 143 -218 74 -240 l 157 -269 q 62 -295 104 -290 q -6 -290 19 -300 q -44 -261 -31 -281 q -55 -215 -57 -242 q -37 -158 -53 -187 q 110 0 3 -79 l 63 0 l 197 958 l 321 958 l 186 0 z "},"į":{"ha":342,"x_min":-62,"x_max":299,"o":"m 226 954 l 265 954 q 292 944 282 954 q 299 917 301 933 l 288 839 q 250 804 283 804 l 213 804 q 185 815 194 804 q 179 842 176 825 l 189 921 q 226 954 193 954 m 150 676 l 268 676 l 172 0 l 164 0 q 42 -162 88 -79 q 40 -226 14 -211 q 135 -218 67 -240 l 149 -269 q 34 -297 83 -296 q -36 -278 -15 -297 q -62 -227 -57 -258 q -46 -158 -68 -196 q 103 0 -6 -81 l 54 0 l 150 676 z "},"İ":{"ha":363,"x_min":63,"x_max":343,"o":"m 271 1204 l 310 1204 q 336 1194 326 1204 q 343 1167 346 1183 l 332 1088 q 294 1054 328 1054 l 257 1054 q 230 1065 239 1054 q 224 1092 221 1075 l 233 1171 q 271 1204 238 1204 m 186 0 l 63 0 l 197 958 l 321 958 l 186 0 z "},"ı":{"ha":342,"x_min":54,"x_max":268,"o":"m 172 0 l 54 0 l 150 676 l 268 676 l 172 0 z "},"Ĳ":{"ha":833,"x_min":63,"x_max":796,"o":"m 186 0 l 63 0 l 197 958 l 321 958 l 186 0 m 796 958 l 688 199 q 479 -12 658 -12 q 350 6 407 -12 l 374 92 l 439 92 q 567 199 551 92 l 672 958 l 796 958 z "},"ĳ":{"ha":683,"x_min":56,"x_max":649,"o":"m 218 964 l 274 964 q 301 953 292 964 q 307 925 310 942 l 297 846 q 258 813 292 813 l 204 813 q 169 851 165 813 l 181 929 q 218 964 185 964 m 560 964 l 615 964 q 649 925 653 964 l 638 846 q 600 813 633 813 l 544 813 q 511 851 504 813 l 522 929 q 560 964 526 964 m 172 0 l 56 0 l 150 676 l 267 676 l 172 0 m 608 676 l 511 -19 q 347 -283 488 -187 l 285 -229 q 393 -14 376 -132 l 492 676 l 608 676 z "},"Ķ":{"ha":824,"x_min":63,"x_max":858,"o":"m 460 500 l 460 494 q 506 425 483 467 l 742 0 l 603 0 l 357 450 l 239 450 q 232 346 239 388 l 185 0 l 63 0 l 197 958 l 319 958 l 276 657 q 254 549 268 601 l 367 549 l 710 958 l 858 958 l 525 561 q 460 500 488 518 m 364 -81 l 396 -81 q 431 -121 436 -81 l 419 -197 q 349 -381 408 -279 l 296 -362 q 336 -219 325 -279 q 310 -212 319 -221 q 304 -187 301 -203 l 315 -117 q 329 -88 319 -96 q 364 -81 339 -81 z "},"ķ":{"ha":724,"x_min":50,"x_max":690,"o":"m 569 676 l 690 676 q 461 375 631 493 q 501 297 482 340 l 635 0 l 508 0 l 371 319 q 203 242 301 282 l 167 0 l 50 0 l 186 972 l 304 972 l 242 503 q 200 342 229 421 q 438 489 338 403 q 569 676 538 575 m 322 -82 l 356 -82 q 389 -121 397 -82 l 379 -197 q 308 -381 368 -279 l 256 -362 q 296 -219 288 -258 q 270 -212 279 -221 q 264 -187 261 -203 l 274 -117 q 288 -89 279 -96 q 322 -82 297 -82 z "},"Ĺ":{"ha":707,"x_min":89,"x_max":633,"o":"m 503 1179 l 217 1011 l 179 1067 l 446 1269 l 503 1179 m 317 958 l 210 193 q 286 103 196 103 l 633 103 l 631 7 q 260 -1 510 -1 q 122 50 168 -1 q 89 197 75 101 l 193 958 l 317 958 z "},"ĺ":{"ha":407,"x_min":74,"x_max":499,"o":"m 499 1208 l 211 1042 l 175 1096 l 442 1300 l 499 1208 m 306 972 l 194 183 q 205 116 188 136 q 271 96 222 96 l 339 96 l 343 4 q 221 -12 303 -12 q 102 34 142 -12 q 74 163 63 81 l 188 972 l 306 972 z "},"Ļ":{"ha":707,"x_min":89,"x_max":633,"o":"m 317 958 l 210 193 q 286 103 196 103 l 633 103 l 631 7 q 260 -1 510 -1 q 122 50 168 -1 q 89 197 75 101 l 193 958 l 317 958 m 349 -85 l 382 -85 q 415 -124 424 -85 l 404 -201 q 335 -383 396 -278 l 281 -367 q 322 -224 313 -274 q 297 -216 306 -225 q 289 -190 288 -207 l 300 -121 q 314 -92 304 -100 q 349 -85 324 -85 z "},"ļ":{"ha":407,"x_min":74,"x_max":343,"o":"m 306 972 l 194 183 q 205 116 188 136 q 271 96 222 96 l 339 96 l 343 4 q 221 -12 303 -12 q 102 34 142 -12 q 74 163 63 81 l 188 972 l 306 972 m 174 -85 l 207 -85 q 240 -124 249 -85 l 231 -201 q 160 -383 219 -285 l 107 -367 q 147 -224 139 -262 q 122 -216 131 -225 q 115 -190 113 -207 l 125 -121 q 140 -92 131 -100 q 174 -85 149 -85 z "},"Ľ":{"ha":707,"x_min":89,"x_max":633,"o":"m 481 958 l 514 958 q 547 919 556 958 l 536 843 q 465 660 524 758 l 413 678 q 454 821 444 772 q 428 828 438 819 q 421 853 419 838 l 432 924 q 446 951 436 944 q 481 958 456 958 m 317 958 l 210 193 q 286 103 196 103 l 633 103 l 631 7 q 260 -1 510 -1 q 122 50 168 -1 q 89 197 75 101 l 193 958 l 317 958 z "},"ľ":{"ha":407,"x_min":74,"x_max":503,"o":"m 306 972 l 194 183 q 205 116 188 136 q 271 96 222 96 l 339 96 l 343 4 q 221 -12 303 -12 q 102 34 142 -12 q 74 163 63 81 l 188 972 l 306 972 m 436 972 l 469 972 q 503 933 511 972 l 493 856 q 422 674 481 772 l 369 690 q 410 833 401 794 q 384 841 393 832 q 378 867 375 850 l 388 936 q 402 965 393 957 q 436 972 411 972 z "},"Ŀ":{"ha":707,"x_min":89,"x_max":633,"o":"m 317 958 l 210 193 q 286 103 196 103 l 633 103 l 631 7 q 260 -1 510 -1 q 122 50 168 -1 q 89 197 75 101 l 193 958 l 317 958 m 551 469 l 513 469 q 485 480 494 469 q 479 508 476 490 l 490 586 q 528 621 494 621 l 565 621 q 599 582 603 621 l 589 504 q 551 469 583 469 z "},"ŀ":{"ha":464,"x_min":74,"x_max":483,"o":"m 306 972 l 194 183 q 205 116 188 136 q 271 96 222 96 l 339 96 l 343 4 q 221 -12 303 -12 q 102 34 142 -12 q 74 163 63 81 l 188 972 l 306 972 m 436 443 l 397 443 q 363 481 358 443 l 374 560 q 411 593 379 593 l 450 593 q 476 583 467 593 q 483 556 485 572 l 472 476 q 436 443 468 443 z "},"Ł":{"ha":706,"x_min":31,"x_max":633,"o":"m 633 103 l 629 7 q 258 -1 508 -1 q 121 50 168 -1 q 88 197 74 101 l 124 461 l 31 424 l 38 499 l 135 538 l 192 958 l 315 958 l 264 588 l 440 657 l 432 583 l 253 513 l 208 193 q 285 103 197 103 l 633 103 z "},"ł":{"ha":415,"x_min":22,"x_max":435,"o":"m 240 511 l 194 183 q 205 116 188 136 q 271 96 222 96 l 339 96 l 343 4 q 221 -12 303 -12 q 102 34 142 -12 q 74 163 63 81 l 115 461 l 22 424 l 32 499 l 126 536 l 188 972 l 306 972 l 251 585 l 435 657 l 425 583 l 240 511 z "},"Ń":{"ha":976,"x_min":63,"x_max":935,"o":"m 822 1179 l 536 1011 l 499 1067 l 765 1269 l 822 1179 m 935 958 l 806 46 q 757 0 800 0 l 646 0 q 596 42 611 0 l 356 721 q 318 844 328 796 l 294 844 q 283 718 293 788 l 185 0 l 63 0 l 190 913 q 242 958 199 958 l 350 958 q 400 917 385 958 l 633 256 q 678 117 665 164 l 704 117 q 718 257 708 193 l 814 958 l 935 958 z "},"ń":{"ha":803,"x_min":49,"x_max":715,"o":"m 407 761 l 369 817 l 636 1019 l 693 929 l 407 761 m 239 676 l 229 528 q 556 693 415 693 q 685 645 642 693 q 715 506 728 597 l 643 0 l 525 0 l 593 476 q 585 567 601 542 q 519 593 568 593 q 394 557 458 593 q 228 440 329 521 l 167 0 l 49 0 l 144 676 l 239 676 z "},"Ņ":{"ha":976,"x_min":63,"x_max":935,"o":"m 935 958 l 806 46 q 757 0 800 0 l 646 0 q 596 42 611 0 l 356 721 q 318 844 328 796 l 294 844 q 283 718 293 788 l 185 0 l 63 0 l 190 913 q 242 958 199 958 l 350 958 q 400 917 385 958 l 633 256 q 678 117 665 164 l 704 117 q 718 257 708 193 l 814 958 l 935 958 m 432 -81 l 465 -81 q 499 -121 507 -81 l 489 -197 q 418 -381 478 -279 l 365 -362 q 406 -219 397 -258 q 380 -212 389 -221 q 374 -187 371 -203 l 383 -117 q 398 -88 389 -96 q 432 -81 407 -81 z "},"ņ":{"ha":803,"x_min":49,"x_max":715,"o":"m 239 676 l 229 528 q 556 693 415 693 q 685 645 642 693 q 715 506 728 597 l 643 0 l 525 0 l 593 476 q 585 567 601 542 q 519 593 568 593 q 394 557 458 593 q 228 440 329 521 l 167 0 l 49 0 l 144 676 l 239 676 m 335 -81 l 368 -81 q 401 -121 410 -81 l 390 -197 q 319 -381 379 -279 l 267 -362 q 308 -219 299 -269 q 283 -212 292 -221 q 275 -187 274 -203 l 286 -117 q 300 -88 290 -96 q 335 -81 310 -81 z "},"Ň":{"ha":976,"x_min":63,"x_max":935,"o":"m 840 1210 l 632 1033 l 547 1033 l 385 1217 l 432 1261 l 589 1122 l 600 1122 l 804 1261 l 840 1210 m 935 958 l 806 46 q 757 0 800 0 l 646 0 q 596 42 611 0 l 356 721 q 318 844 328 796 l 294 844 q 283 718 293 788 l 185 0 l 63 0 l 190 913 q 242 958 199 958 l 350 958 q 400 917 385 958 l 633 256 q 678 117 665 164 l 704 117 q 718 257 708 193 l 814 958 l 935 958 z "},"ň":{"ha":803,"x_min":49,"x_max":715,"o":"m 418 783 l 256 967 l 303 1011 l 460 872 l 471 872 l 675 1011 l 711 960 l 503 783 l 418 783 m 239 676 l 229 528 q 556 693 415 693 q 685 645 642 693 q 715 506 728 597 l 643 0 l 525 0 l 593 476 q 585 567 601 542 q 519 593 568 593 q 394 557 458 593 q 228 440 329 521 l 167 0 l 49 0 l 144 676 l 239 676 z "},"Ŋ":{"ha":976,"x_min":63,"x_max":935,"o":"m 935 958 l 783 -112 q 717 -253 771 -204 q 578 -300 663 -301 q 453 -282 507 -300 l 474 -206 l 540 -206 q 671 -99 656 -206 l 685 0 l 647 0 q 632 6 639 0 q 622 18 625 11 q 613 38 618 25 l 354 700 q 318 826 332 754 l 296 826 q 282 697 294 772 l 185 0 l 63 0 l 190 913 q 242 958 199 958 l 336 958 q 388 917 369 958 l 632 275 q 681 136 650 231 l 703 136 q 717 281 706 188 l 813 958 l 935 958 z "},"ŋ":{"ha":803,"x_min":49,"x_max":715,"o":"m 235 676 l 228 526 q 551 693 411 693 q 685 644 643 693 q 715 506 728 596 l 633 -78 q 436 -285 604 -285 q 318 -267 376 -285 l 339 -192 l 394 -192 q 476 -167 447 -192 q 514 -82 506 -142 l 593 476 q 583 560 600 536 q 515 585 567 585 q 392 549 457 585 q 229 440 328 514 l 167 0 l 49 0 l 144 676 l 235 676 z "},"Ō":{"ha":925,"x_min":94,"x_max":850,"o":"m 753 1092 l 365 1092 l 378 1179 l 765 1179 l 753 1092 m 538 976 q 814 862 739 976 q 850 475 889 747 q 715 90 813 199 q 413 -18 618 -18 q 133 95 210 -18 q 94 483 57 208 q 230 866 132 756 q 538 976 328 976 m 531 867 q 319 783 385 867 q 222 475 253 700 q 233 174 192 257 q 415 92 274 92 q 625 176 558 92 q 724 483 692 261 q 715 786 756 706 q 531 867 674 867 z "},"ō":{"ha":783,"x_min":64,"x_max":700,"o":"m 644 842 l 257 842 l 269 929 l 657 929 l 644 842 m 173 613 q 214 653 173 613 q 426 693 254 693 q 663 610 599 693 q 700 332 728 526 q 592 61 674 140 q 340 -18 510 -18 q 103 65 169 -18 q 64 342 38 149 q 173 613 92 533 m 426 593 q 260 539 313 593 q 188 332 208 485 q 199 135 167 188 q 340 82 232 82 q 506 138 454 82 q 579 342 558 193 q 567 540 600 488 q 426 593 535 593 z "},"Ő":{"ha":925,"x_min":94,"x_max":864,"o":"m 636 1224 l 419 1003 l 371 1043 l 563 1276 l 636 1224 m 864 1224 l 647 1003 l 599 1043 l 790 1276 l 864 1224 m 538 976 q 814 862 739 976 q 850 475 889 747 q 715 90 813 199 q 413 -18 618 -18 q 133 95 210 -18 q 94 483 57 208 q 230 866 132 756 q 538 976 328 976 m 531 867 q 319 783 385 867 q 222 475 253 700 q 233 174 192 257 q 415 92 274 92 q 625 176 558 92 q 724 483 692 261 q 715 786 756 706 q 531 867 674 867 z "},"ő":{"ha":783,"x_min":64,"x_max":756,"o":"m 528 975 l 311 754 l 261 793 l 454 1026 l 528 975 m 756 975 l 539 754 l 490 793 l 682 1026 l 756 975 m 173 613 q 214 653 173 613 q 426 693 254 693 q 663 610 599 693 q 700 332 728 526 q 592 61 674 140 q 340 -18 510 -18 q 103 65 169 -18 q 64 342 38 149 q 173 613 92 533 m 426 593 q 260 539 313 593 q 188 332 208 485 q 199 135 167 188 q 340 82 232 82 q 506 138 454 82 q 579 342 558 193 q 567 540 600 488 q 426 593 535 593 z "},"Œ":{"ha":1276,"x_min":96,"x_max":1281,"o":"m 1265 856 l 892 856 q 792 761 803 856 l 763 553 l 1168 553 l 1156 457 l 750 457 l 714 193 q 725 124 707 144 q 790 103 743 103 l 1160 103 l 1156 7 q 775 -1 1036 -1 q 646 31 693 -1 q 414 -18 538 -18 q 126 92 197 -18 q 96 483 56 201 q 231 869 135 763 q 539 976 328 976 q 763 933 663 976 q 876 960 807 960 q 1281 951 1157 960 l 1265 856 m 590 190 l 674 796 q 688 849 676 815 q 538 867 618 867 q 322 783 390 867 q 222 475 253 699 q 232 174 190 257 q 417 92 274 92 q 590 115 511 92 q 590 190 583 149 z "},"œ":{"ha":1257,"x_min":64,"x_max":1201,"o":"m 1118 100 l 1126 21 q 854 -17 1035 -17 q 611 82 675 -17 q 340 -18 529 -18 q 103 65 168 -18 q 64 342 38 149 q 172 613 90 533 q 426 693 254 693 q 668 603 607 693 q 778 673 711 653 q 950 693 844 693 q 1161 640 1104 693 q 1201 476 1218 586 q 1126 339 1185 381 q 943 288 1067 297 l 694 264 q 733 121 690 158 q 875 83 776 83 q 1118 100 994 83 m 340 82 q 506 138 454 82 q 578 342 558 194 q 567 540 600 488 q 426 593 535 593 q 260 539 313 593 q 188 332 208 485 q 199 135 167 188 q 340 82 231 82 m 703 353 l 943 376 q 1042 405 1011 382 q 1083 486 1074 428 q 1062 576 1094 558 q 933 593 1029 593 q 772 547 819 593 q 703 353 725 500 z "},"Ŕ":{"ha":858,"x_min":63,"x_max":800,"o":"m 456 1011 l 419 1067 l 685 1269 l 742 1179 l 456 1011 m 63 0 l 197 958 q 522 971 317 971 q 751 908 681 971 q 800 689 821 844 q 733 518 783 576 q 586 447 683 460 l 585 440 q 686 300 664 418 l 747 0 l 622 0 l 565 303 q 530 378 556 356 q 457 400 504 400 l 239 401 l 182 0 l 63 0 m 254 506 l 458 506 q 613 547 565 507 q 676 693 661 586 q 657 829 690 793 q 519 865 624 865 q 304 864 360 865 l 254 506 z "},"ŕ":{"ha":553,"x_min":49,"x_max":608,"o":"m 322 761 l 286 817 l 551 1019 l 608 929 l 322 761 m 235 676 l 225 519 q 536 693 401 693 l 571 693 l 542 582 l 507 582 q 390 549 451 582 q 228 438 329 515 l 167 0 l 49 0 l 144 676 l 235 676 z "},"Ŗ":{"ha":858,"x_min":63,"x_max":800,"o":"m 63 0 l 197 958 q 522 971 317 971 q 751 908 681 971 q 800 689 821 844 q 733 518 783 576 q 586 447 683 460 l 585 440 q 686 300 664 418 l 747 0 l 622 0 l 565 303 q 530 378 556 356 q 457 400 504 400 l 239 401 l 182 0 l 63 0 m 254 506 l 458 506 q 613 547 565 507 q 676 693 661 586 q 657 829 690 793 q 519 865 624 865 q 304 864 360 865 l 254 506 m 406 -81 l 438 -81 q 472 -121 478 -81 l 461 -197 q 390 -381 450 -279 l 338 -362 q 378 -219 369 -258 q 352 -212 361 -221 q 346 -187 343 -203 l 357 -117 q 371 -88 361 -96 q 406 -81 381 -81 z "},"ŗ":{"ha":553,"x_min":10,"x_max":571,"o":"m 571 693 l 542 582 l 507 582 q 390 549 451 582 q 228 438 329 515 l 167 0 l 49 0 l 144 676 l 235 676 l 225 519 q 536 693 401 693 l 571 693 m 78 -81 l 111 -81 q 144 -121 153 -81 l 133 -197 q 64 -381 125 -272 l 10 -362 q 51 -219 42 -269 q 26 -212 35 -221 q 18 -187 17 -203 l 29 -117 q 43 -88 33 -96 q 78 -81 53 -81 z "},"Ř":{"ha":858,"x_min":63,"x_max":800,"o":"m 467 1033 l 304 1217 l 351 1261 l 510 1122 l 521 1122 l 724 1261 l 761 1210 l 553 1033 l 467 1033 m 63 0 l 197 958 q 522 971 317 971 q 751 908 681 971 q 800 689 821 844 q 733 518 783 576 q 586 447 683 460 l 585 440 q 686 300 664 418 l 747 0 l 622 0 l 565 303 q 530 378 556 356 q 457 400 504 400 l 239 401 l 182 0 l 63 0 m 254 506 l 458 506 q 613 547 565 507 q 676 693 661 586 q 657 829 690 793 q 519 865 624 865 q 304 864 360 865 l 254 506 z "},"ř":{"ha":553,"x_min":49,"x_max":626,"o":"m 333 783 l 171 967 l 218 1011 l 375 872 l 386 872 l 590 1011 l 626 960 l 419 783 l 333 783 m 235 676 l 225 519 q 536 693 401 693 l 571 693 l 542 582 l 507 582 q 390 549 451 582 q 228 438 329 515 l 167 0 l 49 0 l 144 676 l 235 676 z "},"Ś":{"ha":778,"x_min":36,"x_max":743,"o":"m 707 1179 l 421 1011 l 383 1067 l 650 1269 l 707 1179 m 467 397 l 276 468 q 142 567 178 504 q 121 735 107 631 q 149 842 129 799 q 197 913 169 886 q 267 953 224 939 q 353 971 310 967 q 460 975 396 975 q 743 947 632 972 l 731 858 q 457 865 574 865 q 387 865 410 865 q 333 857 364 864 q 289 835 303 850 q 262 793 275 821 q 243 722 249 765 q 253 624 233 653 q 339 571 272 596 l 526 501 q 666 402 632 463 q 685 232 700 342 q 585 33 664 82 q 328 -17 507 -17 q 36 10 179 -17 l 51 100 q 329 93 285 92 q 502 121 454 93 q 563 244 550 149 q 553 344 572 317 q 467 397 533 372 z "},"ś":{"ha":703,"x_min":29,"x_max":651,"o":"m 646 929 l 358 761 l 322 817 l 589 1019 l 646 929 m 401 257 l 213 340 q 106 418 138 375 q 83 533 75 461 q 163 662 96 628 q 367 693 229 696 q 651 672 521 690 l 636 588 q 369 594 465 593 q 238 583 272 594 q 199 525 204 572 q 211 468 193 486 q 281 426 229 450 l 469 343 q 583 267 553 307 q 604 151 614 226 q 581 76 599 107 q 538 28 563 46 q 473 0 514 10 q 391 -12 432 -10 q 288 -15 350 -15 q 203 -13 240 -15 q 149 -10 167 -11 q 91 -3 131 -8 q 29 4 51 1 l 43 90 q 260 83 126 83 q 435 100 389 85 q 489 163 481 115 q 483 204 493 188 q 461 228 474 221 q 417 250 449 236 q 401 257 407 254 z "},"Ş":{"ha":778,"x_min":36,"x_max":743,"o":"m 467 397 l 276 468 q 142 567 178 504 q 121 735 107 631 q 149 842 129 799 q 197 913 169 886 q 267 953 224 939 q 353 971 310 967 q 460 975 396 975 q 743 947 632 972 l 731 858 q 457 865 574 865 q 387 865 410 865 q 333 857 364 864 q 289 835 303 850 q 262 793 275 821 q 243 722 249 765 q 253 624 233 653 q 339 571 272 596 l 526 501 q 666 402 632 463 q 685 232 700 342 q 585 33 664 82 q 328 -17 507 -17 q 36 10 179 -17 l 51 100 q 329 93 285 92 q 502 121 454 93 q 563 244 550 149 q 553 344 572 317 q 467 397 533 372 m 256 -132 l 269 -76 q 390 -88 356 -68 q 415 -171 425 -108 q 331 -302 401 -257 q 161 -335 260 -347 l 183 -272 q 280 -245 239 -274 q 329 -171 321 -217 q 319 -140 333 -147 q 256 -132 306 -132 z "},"ş":{"ha":703,"x_min":29,"x_max":651,"o":"m 401 257 l 213 340 q 106 418 138 375 q 83 533 75 461 q 163 662 96 628 q 367 693 229 696 q 651 672 521 690 l 636 588 q 369 594 465 593 q 238 583 272 594 q 199 525 204 572 q 211 468 193 486 q 281 426 229 450 l 469 343 q 583 267 553 307 q 604 151 614 226 q 581 76 599 107 q 538 28 563 46 q 473 0 514 10 q 391 -12 432 -10 q 288 -15 350 -15 q 203 -13 240 -15 q 149 -10 167 -11 q 91 -3 131 -8 q 29 4 51 1 l 43 90 q 260 83 126 83 q 435 100 389 85 q 489 163 481 115 q 483 204 493 188 q 461 228 474 221 q 417 250 449 236 q 401 257 407 254 m 208 -131 l 222 -75 q 343 -87 308 -67 q 367 -171 378 -108 q 283 -301 353 -256 q 114 -333 213 -347 l 136 -271 q 233 -244 192 -272 q 282 -169 274 -215 q 272 -139 286 -146 q 208 -131 258 -132 z "},"Š":{"ha":778,"x_min":36,"x_max":743,"o":"m 725 1210 l 517 1033 l 432 1033 l 269 1217 l 317 1261 l 474 1122 l 485 1122 l 689 1261 l 725 1210 m 467 397 l 276 468 q 142 567 178 504 q 121 735 107 631 q 149 842 129 799 q 197 913 169 886 q 267 953 224 939 q 353 971 310 967 q 460 975 396 975 q 743 947 632 972 l 731 858 q 457 865 574 865 q 387 865 410 865 q 333 857 364 864 q 289 835 303 850 q 262 793 275 821 q 243 722 249 765 q 253 624 233 653 q 339 571 272 596 l 526 501 q 666 402 632 463 q 685 232 700 342 q 585 33 664 82 q 328 -17 507 -17 q 36 10 179 -17 l 51 100 q 329 93 285 92 q 502 121 454 93 q 563 244 550 149 q 553 344 572 317 q 467 397 533 372 z "},"š":{"ha":703,"x_min":29,"x_max":664,"o":"m 664 960 l 456 783 l 369 783 l 207 967 l 256 1011 l 413 872 l 424 872 l 626 1011 l 664 960 m 401 257 l 213 340 q 106 418 138 375 q 83 533 75 461 q 163 662 96 628 q 367 693 229 696 q 651 672 521 690 l 636 588 q 369 594 465 593 q 238 583 272 594 q 199 525 204 572 q 211 468 193 486 q 281 426 229 450 l 469 343 q 583 267 553 307 q 604 151 614 226 q 581 76 599 107 q 538 28 563 46 q 473 0 514 10 q 391 -12 432 -10 q 288 -15 350 -15 q 203 -13 240 -15 q 149 -10 167 -11 q 91 -3 131 -8 q 29 4 51 1 l 43 90 q 260 83 126 83 q 435 100 389 85 q 489 163 481 115 q 483 204 493 188 q 461 228 474 221 q 417 250 449 236 q 401 257 407 254 z "},"Ţ":{"ha":796,"x_min":90,"x_max":844,"o":"m 831 850 l 521 850 l 401 0 l 279 0 l 399 850 l 90 850 l 106 958 l 844 958 l 831 850 m 250 -115 l 265 -60 q 386 -72 351 -51 q 410 -156 421 -93 q 324 -287 394 -242 q 157 -318 254 -332 l 179 -256 q 276 -228 235 -257 q 325 -154 317 -200 q 314 -124 328 -131 q 250 -115 300 -117 z "},"ţ":{"ha":524,"x_min":58,"x_max":528,"o":"m 299 583 l 243 183 q 253 115 236 135 q 318 96 269 96 l 424 96 l 428 6 q 276 -12 364 -12 q 150 36 189 -12 q 124 172 111 85 l 182 583 l 58 583 l 69 669 l 196 675 l 224 876 l 340 876 l 313 676 l 528 676 l 514 583 l 299 583 m 153 -128 l 167 -72 q 288 -85 253 -64 q 311 -168 322 -106 q 227 -299 297 -254 q 58 -331 157 -344 l 81 -268 q 177 -241 136 -269 q 226 -167 218 -212 q 217 -136 231 -143 q 153 -128 203 -129 z "},"Ť":{"ha":796,"x_min":90,"x_max":844,"o":"m 446 1033 l 283 1217 l 332 1261 l 489 1122 l 500 1122 l 703 1261 l 740 1210 l 532 1033 l 446 1033 m 831 850 l 521 850 l 401 0 l 279 0 l 399 850 l 90 850 l 106 958 l 844 958 l 831 850 z "},"ť":{"ha":524,"x_min":58,"x_max":542,"o":"m 475 1071 l 507 1071 q 542 1032 547 1071 l 531 954 q 460 772 519 871 l 407 789 q 447 932 436 872 q 422 940 431 931 q 415 965 413 950 l 426 1035 q 440 1063 431 1056 q 475 1071 450 1071 m 313 676 l 528 676 l 514 583 l 299 583 l 243 183 q 253 115 236 135 q 318 96 269 96 l 424 96 l 428 6 q 276 -12 364 -12 q 150 36 189 -12 q 124 172 111 85 l 182 583 l 58 583 l 69 669 l 196 675 l 224 876 l 340 876 l 313 676 z "},"Ŧ":{"ha":796,"x_min":90,"x_max":844,"o":"m 521 850 l 482 579 l 688 579 l 678 511 l 472 511 l 401 0 l 279 0 l 351 511 l 165 511 l 175 579 l 361 579 l 399 850 l 90 850 l 106 958 l 844 958 l 831 850 l 521 850 z "},"ŧ":{"ha":524,"x_min":58,"x_max":528,"o":"m 299 583 l 282 458 l 467 458 l 457 390 l 272 390 l 243 183 q 253 115 236 135 q 318 96 269 96 l 424 96 l 428 6 q 276 -12 364 -12 q 150 36 189 -12 q 124 172 111 85 l 154 390 l 64 390 l 74 458 l 164 458 l 182 583 l 58 583 l 69 669 l 196 675 l 224 876 l 340 876 l 313 676 l 528 676 l 514 583 l 299 583 z "},"Ū":{"ha":922,"x_min":108,"x_max":888,"o":"m 751 1092 l 364 1092 l 376 1179 l 764 1179 l 751 1092 m 888 958 l 804 365 q 685 69 774 157 q 414 -18 596 -18 q 153 73 226 -18 q 108 371 79 164 l 189 958 l 313 958 l 229 365 q 247 151 207 211 q 411 92 288 92 q 600 154 539 92 q 683 371 661 217 l 764 958 l 888 958 z "},"ū":{"ha":788,"x_min":69,"x_max":719,"o":"m 650 847 l 263 847 l 275 935 l 663 935 l 650 847 m 719 676 l 625 0 l 533 0 l 543 147 q 231 -18 374 -18 q 97 32 139 -18 q 69 171 56 82 l 140 676 l 258 676 l 190 200 q 199 111 181 138 q 271 85 218 85 q 389 121 331 85 q 542 242 447 157 l 601 676 l 719 676 z "},"Ů":{"ha":922,"x_min":108,"x_max":888,"o":"m 574 1283 q 681 1241 640 1283 q 713 1133 721 1199 q 664 1033 706 1074 q 557 993 622 993 q 450 1035 489 993 q 418 1143 411 1078 q 467 1243 425 1203 q 574 1283 508 1283 m 631 1200 q 621 1212 631 1200 q 574 1224 611 1224 q 512 1199 536 1224 q 483 1138 488 1175 q 501 1076 479 1099 q 558 1053 522 1053 q 620 1078 596 1053 q 647 1140 644 1103 q 631 1200 651 1176 m 888 958 l 804 365 q 685 69 774 157 q 414 -18 596 -18 q 153 73 226 -18 q 108 371 79 164 l 189 958 l 313 958 l 229 365 q 247 151 207 211 q 411 92 288 92 q 600 154 539 92 q 683 371 661 217 l 764 958 l 888 958 z "},"ů":{"ha":788,"x_min":69,"x_max":719,"o":"m 456 747 q 349 790 388 747 q 317 897 310 832 q 365 998 324 957 q 471 1039 407 1039 q 579 996 539 1039 q 611 888 619 953 q 563 788 604 828 q 456 747 521 747 m 382 893 q 399 831 378 854 q 457 808 421 808 q 519 833 494 808 q 546 896 543 858 q 530 955 550 932 q 472 978 510 978 q 410 953 435 978 q 382 893 386 929 m 719 676 l 625 0 l 533 0 l 543 147 q 231 -18 374 -18 q 97 32 139 -18 q 69 171 56 82 l 140 676 l 258 676 l 190 200 q 199 111 181 138 q 271 85 218 85 q 389 121 331 85 q 542 242 447 157 l 601 676 l 719 676 z "},"Ű":{"ha":922,"x_min":108,"x_max":888,"o":"m 635 1224 l 418 1003 l 369 1043 l 561 1276 l 635 1224 m 863 1224 l 646 1003 l 597 1043 l 789 1276 l 863 1224 m 888 958 l 804 365 q 685 69 774 157 q 414 -18 596 -18 q 153 73 226 -18 q 108 371 79 164 l 189 958 l 313 958 l 229 365 q 247 151 207 211 q 411 92 288 92 q 600 154 539 92 q 683 371 661 217 l 764 958 l 888 958 z "},"ű":{"ha":788,"x_min":69,"x_max":761,"o":"m 317 758 l 267 799 l 460 1032 l 533 979 l 317 758 m 496 799 l 688 1032 l 761 979 l 544 758 l 496 799 m 601 676 l 719 676 l 625 0 l 533 0 l 543 147 q 231 -18 374 -18 q 97 32 139 -18 q 69 171 56 82 l 140 676 l 258 676 l 190 200 q 199 111 181 138 q 271 85 218 85 q 389 121 331 85 q 542 242 447 157 l 601 676 z "},"Ų":{"ha":922,"x_min":108,"x_max":888,"o":"m 888 958 l 804 365 q 696 80 776 168 q 456 -17 615 -8 q 336 -175 382 -93 q 335 -238 308 -224 q 431 -231 361 -253 l 444 -282 q 349 -308 392 -303 q 282 -303 307 -312 q 244 -274 257 -293 q 233 -227 231 -254 q 250 -171 235 -200 q 392 -17 288 -94 q 149 79 218 -12 q 108 371 79 171 l 189 958 l 313 958 l 229 365 q 247 151 207 211 q 411 92 288 92 q 600 154 539 92 q 683 371 661 217 l 764 958 l 888 958 z "},"ų":{"ha":788,"x_min":69,"x_max":719,"o":"m 719 676 l 625 0 q 501 -162 549 -78 q 501 -226 474 -211 q 596 -218 528 -240 l 610 -269 q 495 -297 544 -296 q 425 -278 446 -297 q 399 -227 404 -258 q 415 -158 393 -196 q 564 0 457 -79 l 533 0 l 543 147 q 231 -18 374 -18 q 97 32 139 -18 q 69 171 56 82 l 140 676 l 258 676 l 190 200 q 199 111 181 138 q 271 85 218 85 q 389 121 331 85 q 542 242 447 157 l 601 676 l 719 676 z "},"Ŵ":{"ha":1310,"x_min":115,"x_max":1346,"o":"m 982 1060 l 938 1013 l 771 1153 l 760 1153 l 554 1015 l 519 1067 l 725 1243 l 810 1243 l 982 1060 m 1346 958 l 1019 33 q 969 0 1008 0 l 833 0 q 803 11 815 0 q 789 40 790 22 l 739 761 q 735 806 739 765 q 731 867 732 846 l 701 867 l 664 756 l 415 35 q 365 0 404 0 l 231 0 q 199 11 213 0 q 185 39 186 22 l 115 958 l 240 958 l 285 210 q 289 90 285 203 l 322 90 l 363 214 l 608 919 q 658 958 619 958 l 790 958 q 819 946 807 958 q 832 915 831 933 l 889 208 q 894 90 894 131 l 929 90 l 967 211 l 1218 958 l 1346 958 z "},"ŵ":{"ha":1181,"x_min":63,"x_max":1160,"o":"m 879 811 l 835 764 l 669 904 l 658 904 l 451 767 l 418 818 l 624 994 l 707 994 l 879 811 m 281 93 l 299 93 q 364 142 336 93 q 440 332 406 215 q 513 647 479 450 q 546 676 517 676 l 675 676 q 706 649 703 676 l 774 93 l 790 93 q 847 136 821 93 q 946 332 908 232 q 1036 676 1003 476 l 1160 676 q 1036 283 1108 447 q 917 67 971 135 q 863 16 889 32 q 797 0 836 0 l 719 0 q 682 32 688 0 l 618 599 l 600 599 q 536 303 585 460 q 443 88 494 168 q 294 0 393 0 l 225 0 q 188 32 194 0 l 63 676 l 185 676 l 281 93 z "},"Ŷ":{"ha":785,"x_min":89,"x_max":846,"o":"m 289 1017 l 254 1068 l 460 1244 l 544 1244 l 717 1061 l 672 1014 l 507 1154 l 494 1154 l 289 1017 m 440 335 l 393 0 l 269 0 l 318 340 l 89 958 l 214 958 l 358 551 q 386 443 379 489 l 397 443 q 454 556 418 499 l 713 958 l 846 958 l 440 335 z "},"ŷ":{"ha":749,"x_min":49,"x_max":726,"o":"m 217 767 l 183 818 l 389 994 l 474 994 l 644 811 l 601 764 l 435 904 l 424 904 l 217 767 m 604 676 l 726 676 q 521 113 653 350 q 312 -174 414 -86 q 71 -286 210 -261 l 49 -201 q 201 -136 133 -182 q 332 0 268 -90 l 271 0 q 219 17 240 0 q 192 63 199 35 l 61 676 l 185 676 l 292 119 q 324 93 299 93 l 390 93 q 403 119 394 101 q 418 147 413 138 q 604 676 549 403 z "},"Ÿ":{"ha":785,"x_min":89,"x_max":846,"o":"m 383 1065 l 344 1065 q 314 1097 310 1065 l 326 1174 q 365 1208 331 1208 l 401 1208 q 432 1174 436 1208 l 419 1099 q 383 1065 415 1065 m 618 1065 l 579 1065 q 549 1097 544 1065 l 561 1174 q 600 1208 565 1208 l 636 1208 q 667 1174 671 1208 l 654 1099 q 618 1065 650 1065 m 440 335 l 393 0 l 269 0 l 318 340 l 89 958 l 214 958 l 358 551 q 386 443 379 489 l 397 443 q 454 556 418 499 l 713 958 l 846 958 l 440 335 z "},"Ź":{"ha":781,"x_min":8,"x_max":788,"o":"m 432 1011 l 394 1067 l 661 1269 l 718 1179 l 432 1011 m 157 104 l 676 104 l 661 0 l 8 0 l 22 104 l 636 854 l 135 854 l 150 958 l 788 958 l 772 854 l 157 104 z "},"ź":{"ha":700,"x_min":8,"x_max":668,"o":"m 344 761 l 307 817 l 574 1019 l 631 929 l 344 761 m 656 579 l 158 96 l 592 96 l 578 0 l 8 0 l 21 96 l 518 579 l 96 579 l 108 676 l 668 676 l 656 579 z "},"Ż":{"ha":781,"x_min":8,"x_max":788,"o":"m 508 1054 l 471 1054 q 443 1065 453 1054 q 436 1092 433 1075 l 447 1171 q 485 1204 451 1204 l 522 1204 q 557 1167 561 1204 l 546 1088 q 508 1054 540 1054 m 157 104 l 676 104 l 661 0 l 8 0 l 22 104 l 636 854 l 135 854 l 150 958 l 788 958 l 772 854 l 157 104 z "},"ż":{"ha":700,"x_min":8,"x_max":668,"o":"m 421 804 l 382 804 q 356 815 365 804 q 349 842 347 825 l 360 921 q 396 954 364 954 l 435 954 q 469 917 474 954 l 458 839 q 421 804 453 804 m 656 579 l 158 96 l 592 96 l 578 0 l 8 0 l 21 96 l 518 579 l 96 579 l 108 676 l 668 676 l 656 579 z "},"Ž":{"ha":781,"x_min":8,"x_max":788,"o":"m 443 1033 l 281 1217 l 328 1261 l 485 1122 l 496 1122 l 700 1261 l 736 1210 l 529 1033 l 443 1033 m 157 104 l 676 104 l 661 0 l 8 0 l 22 104 l 636 854 l 135 854 l 150 958 l 788 958 l 772 854 l 157 104 z "},"ž":{"ha":700,"x_min":8,"x_max":668,"o":"m 356 783 l 193 967 l 240 1011 l 397 872 l 408 872 l 613 1011 l 649 960 l 442 783 l 356 783 m 656 579 l 158 96 l 592 96 l 578 0 l 8 0 l 21 96 l 518 579 l 96 579 l 108 676 l 668 676 l 656 579 z "},"ƒ":{"ha":608,"x_min":-149,"x_max":665,"o":"m 642 875 l 546 875 q 449 851 482 875 q 401 760 417 826 l 353 553 l 550 553 l 529 460 l 332 460 l 222 -7 q 147 -154 200 -106 q -6 -203 93 -203 q -149 -193 -96 -203 l -126 -104 l -35 -104 q 59 -78 26 -104 q 107 11 92 -51 l 211 460 l 76 460 l 93 542 l 233 553 l 286 778 q 521 972 332 972 q 665 964 610 972 l 642 875 z "},"Ș":{"ha":778,"x_min":36,"x_max":743,"o":"m 467 397 l 276 468 q 142 567 178 504 q 121 735 107 631 q 149 842 129 799 q 197 913 169 886 q 267 953 224 939 q 353 971 310 967 q 460 975 396 975 q 743 947 632 972 l 731 858 q 457 865 574 865 q 387 865 410 865 q 333 857 364 864 q 289 835 303 850 q 262 793 275 821 q 243 722 249 765 q 253 624 233 653 q 339 571 272 596 l 526 501 q 666 402 632 463 q 685 232 700 342 q 585 33 664 82 q 328 -17 507 -17 q 36 10 179 -17 l 51 100 q 329 93 285 92 q 502 121 454 93 q 563 244 550 149 q 553 344 572 317 q 467 397 533 372 m 344 -81 l 378 -81 q 411 -121 419 -81 l 400 -197 q 329 -381 389 -279 l 276 -362 q 318 -219 308 -269 q 292 -212 301 -221 q 285 -187 283 -203 l 296 -117 q 310 -88 300 -96 q 344 -81 319 -81 z "},"ș":{"ha":703,"x_min":29,"x_max":651,"o":"m 401 257 l 213 340 q 106 418 138 375 q 83 533 75 461 q 163 662 96 628 q 367 693 229 696 q 651 672 521 690 l 636 588 q 369 594 465 593 q 238 583 272 594 q 199 525 204 572 q 211 468 193 486 q 281 426 229 450 l 469 343 q 583 267 553 307 q 604 151 614 226 q 581 76 599 107 q 538 28 563 46 q 473 0 514 10 q 391 -12 432 -10 q 288 -15 350 -15 q 203 -13 240 -15 q 149 -10 167 -11 q 91 -3 131 -8 q 29 4 51 1 l 43 90 q 260 83 126 83 q 435 100 389 85 q 489 163 481 115 q 483 204 493 188 q 461 228 474 221 q 417 250 449 236 q 401 257 407 254 m 281 -81 l 313 -81 q 347 -121 353 -81 l 336 -197 q 265 -381 325 -279 l 213 -362 q 253 -219 244 -258 q 227 -212 236 -221 q 221 -187 218 -203 l 232 -117 q 246 -88 236 -96 q 281 -81 256 -81 z "},"Ț":{"ha":796,"x_min":90,"x_max":844,"o":"m 831 850 l 521 850 l 401 0 l 279 0 l 399 850 l 90 850 l 106 958 l 844 958 l 831 850 m 317 -81 l 350 -81 q 383 -121 392 -81 l 372 -197 q 303 -381 364 -272 l 249 -362 q 290 -219 281 -269 q 265 -212 274 -221 q 257 -187 256 -203 l 268 -117 q 282 -88 272 -96 q 317 -81 292 -81 z "},"ț":{"ha":524,"x_min":58,"x_max":528,"o":"m 299 583 l 243 183 q 253 115 236 135 q 318 96 269 96 l 424 96 l 428 6 q 276 -12 364 -12 q 150 36 189 -12 q 124 172 111 85 l 182 583 l 58 583 l 69 669 l 196 675 l 224 876 l 340 876 l 313 676 l 528 676 l 514 583 l 299 583 m 239 -81 l 271 -81 q 306 -121 311 -81 l 294 -197 q 224 -381 283 -279 l 171 -362 q 211 -219 203 -258 q 185 -212 194 -221 q 179 -187 176 -203 l 190 -117 q 204 -88 194 -96 q 239 -81 214 -81 z "},"ˆ":{"ha":583,"x_min":133,"x_max":596,"o":"m 596 806 l 551 760 l 386 900 l 375 900 l 168 761 l 133 814 l 340 990 l 424 990 l 596 806 z "},"ˇ":{"ha":583,"x_min":150,"x_max":607,"o":"m 607 956 l 399 778 l 313 778 l 150 963 l 199 1006 l 356 868 l 367 868 l 569 1006 l 607 956 z "},"˘":{"ha":521,"x_min":140,"x_max":556,"o":"m 496 969 l 556 956 q 488 824 549 874 q 329 775 426 775 q 176 827 228 775 q 140 960 124 879 l 201 965 q 228 889 194 915 q 329 863 263 863 q 444 892 400 863 q 496 969 489 921 z "},"˙":{"ha":307,"x_min":169,"x_max":289,"o":"m 217 951 l 256 951 q 282 941 272 951 q 289 914 292 931 l 278 836 q 240 801 274 801 l 203 801 q 176 812 185 801 q 169 839 167 822 l 179 918 q 217 951 183 951 z "},"˚":{"ha":417,"x_min":138,"x_max":433,"o":"m 293 1031 q 401 988 360 1031 q 433 879 442 944 q 383 779 425 819 q 278 739 342 739 q 170 781 210 739 q 138 889 131 824 q 187 990 144 949 q 293 1031 229 1031 m 294 969 q 231 945 256 969 q 204 885 207 921 q 221 823 199 846 q 278 800 243 800 q 339 824 314 800 q 368 888 364 849 q 351 947 371 924 q 294 969 332 969 z "},"˛":{"ha":350,"x_min":-22,"x_max":204,"o":"m 149 4 l 204 0 q 82 -162 132 -75 q 81 -226 54 -211 q 175 -218 107 -240 l 190 -269 q 94 -295 138 -290 q 26 -290 51 -300 q -11 -261 1 -281 q -22 -215 -24 -242 q -6 -158 -21 -187 q 149 4 39 -76 z "},"˜":{"ha":582,"x_min":139,"x_max":599,"o":"m 194 810 l 139 815 q 177 935 142 896 q 264 971 213 975 q 367 933 310 967 q 458 894 424 899 q 518 907 499 889 q 543 967 538 925 l 599 963 q 563 845 597 886 q 475 808 528 804 q 363 849 422 813 q 278 888 303 885 q 219 872 239 892 q 194 810 200 853 z "},"˝":{"ha":631,"x_min":139,"x_max":633,"o":"m 404 960 l 189 739 l 139 778 l 332 1013 l 404 960 m 633 960 l 417 739 l 368 778 l 560 1013 l 633 960 z "},"Δ":{"ha":871,"x_min":-18,"x_max":788,"o":"m 788 51 l 781 0 l -18 0 l -12 51 l 454 958 l 576 958 l 788 51 m 656 100 l 518 733 q 501 840 507 789 q 456 731 482 785 l 140 100 l 656 100 z "},"Ω":{"ha":993,"x_min":14,"x_max":904,"o":"m 29 107 l 171 107 q 263 100 221 107 q 138 283 174 182 q 122 524 101 383 q 260 865 153 753 q 571 976 367 976 q 904 511 969 976 q 824 268 882 360 q 644 99 765 176 q 733 107 681 107 l 881 107 l 867 0 l 519 0 l 531 104 q 701 269 646 178 q 775 506 756 360 q 755 784 803 700 q 567 868 707 868 q 347 781 421 868 q 246 494 274 694 q 254 262 225 344 q 375 101 283 179 l 361 0 l 14 0 l 29 107 z "},"μ":{"ha":822,"x_min":22,"x_max":738,"o":"m 738 676 l 642 0 l 551 0 l 554 101 q 272 -18 392 -18 q 157 17 206 -18 q 153 -85 160 -44 l 126 -279 l 22 -279 l 88 192 l 156 676 l 274 676 l 206 200 q 222 119 199 144 q 301 94 244 94 q 551 183 394 94 l 619 676 l 738 676 z "},"π":{"ha":888,"x_min":61,"x_max":890,"o":"m 876 581 l 746 581 l 664 0 l 547 0 l 628 581 l 308 581 l 228 0 l 110 0 l 192 581 l 61 581 l 74 676 l 890 676 l 876 581 z "},"Ё":{"ha":775,"x_min":81,"x_max":781,"o":"m 426 1094 l 388 1094 q 357 1126 353 1094 l 369 1203 q 408 1236 374 1236 l 443 1236 q 471 1228 464 1236 q 475 1203 478 1221 l 463 1128 q 426 1094 458 1094 m 661 1094 l 622 1094 q 592 1126 588 1094 l 604 1203 q 643 1236 608 1236 l 678 1236 q 706 1228 699 1236 q 710 1203 713 1221 l 697 1128 q 661 1094 693 1094 m 764 856 l 382 856 q 313 833 335 856 q 283 761 290 811 l 254 553 l 667 553 l 654 458 l 242 458 l 206 193 q 217 124 199 146 q 282 103 235 103 l 657 103 l 654 7 q 267 -1 532 -1 q 115 49 163 -1 q 81 190 68 100 l 165 796 q 228 917 176 874 q 367 960 279 960 q 781 951 653 960 l 764 856 z "},"Ђ":{"ha":1038,"x_min":92,"x_max":967,"o":"m 521 850 l 475 518 q 768 614 614 614 q 935 548 881 614 q 967 318 990 482 q 840 63 940 136 q 569 -6 740 -11 l 564 83 q 763 141 700 93 q 846 315 825 189 q 834 470 864 432 q 733 508 804 508 q 602 487 661 508 q 460 413 543 465 l 401 0 l 281 0 l 400 850 l 92 850 l 107 958 l 846 958 l 832 850 l 521 850 z "},"Ѓ":{"ha":715,"x_min":60,"x_max":763,"o":"m 731 1179 l 444 1011 l 408 1067 l 674 1269 l 731 1179 m 60 0 l 169 782 q 234 915 182 869 q 363 960 286 960 q 763 950 639 960 l 746 856 l 399 856 q 319 834 343 856 q 288 754 296 813 l 182 0 l 60 0 z "},"Є":{"ha":794,"x_min":94,"x_max":806,"o":"m 806 946 l 786 853 q 567 865 681 865 q 336 803 407 865 q 231 553 265 740 l 639 553 l 628 458 l 217 458 q 232 175 190 250 q 417 93 274 100 q 683 108 544 88 l 690 14 q 415 -17 553 -22 q 128 103 199 -8 q 94 483 58 215 q 235 869 132 763 q 558 975 339 975 q 806 946 701 975 z "},"Ѕ":{"ha":778,"x_min":36,"x_max":743,"o":"m 467 397 l 276 468 q 142 567 178 504 q 121 735 107 631 q 149 842 129 799 q 197 913 169 886 q 267 953 224 939 q 353 971 310 967 q 460 975 396 975 q 743 947 632 972 l 731 858 q 457 865 574 865 q 387 865 410 865 q 333 857 364 864 q 289 835 303 850 q 262 793 275 821 q 243 722 249 765 q 253 624 233 653 q 339 571 272 596 l 526 501 q 666 402 632 463 q 685 232 700 342 q 585 33 664 82 q 328 -17 507 -17 q 36 10 179 -17 l 51 100 q 329 93 285 92 q 502 121 454 93 q 563 244 550 149 q 553 344 572 317 q 467 397 533 372 z "},"І":{"ha":361,"x_min":63,"x_max":321,"o":"m 186 0 l 63 0 l 197 958 l 321 958 l 186 0 z "},"Ї":{"ha":363,"x_min":63,"x_max":460,"o":"m 158 1208 l 194 1208 q 221 1200 214 1208 q 225 1174 228 1192 l 213 1099 q 176 1065 211 1065 l 138 1065 q 107 1097 106 1065 l 119 1174 q 158 1208 125 1208 m 393 1208 l 429 1208 q 456 1200 449 1208 q 460 1174 463 1192 l 447 1099 q 411 1065 446 1065 l 372 1065 q 342 1097 340 1065 l 354 1174 q 393 1208 360 1208 m 186 0 l 63 0 l 197 958 l 321 958 l 186 0 z "},"Ј":{"ha":471,"x_min":-12,"x_max":433,"o":"m 433 958 l 325 199 q 258 41 311 94 q 117 -12 204 -12 q -12 6 44 -12 l 11 92 l 76 92 q 204 199 189 92 l 310 958 l 433 958 z "},"Љ":{"ha":1350,"x_min":-12,"x_max":1271,"o":"m 800 572 l 994 572 q 1231 505 1168 572 q 1271 272 1293 438 q 1176 49 1249 108 q 942 -11 1103 -11 q 599 0 719 -11 l 719 858 l 560 858 q 479 836 506 858 q 440 756 453 814 q 417 651 433 724 q 394 553 400 578 q 376 475 389 529 q 356 400 363 421 q 337 340 349 379 q 315 278 325 300 q 290 228 304 256 q 260 175 276 200 q -7 -1 158 18 l -12 106 q 149 217 86 128 q 171 253 161 235 q 189 288 181 272 q 206 328 197 303 q 222 368 215 353 q 237 417 228 383 q 251 469 246 451 q 266 534 256 488 q 282 603 276 581 q 301 688 288 626 q 322 783 315 750 q 392 916 343 874 q 528 958 442 958 l 854 958 l 800 572 m 733 97 l 910 96 q 1085 133 1038 96 q 1149 285 1132 169 q 1133 431 1165 392 q 988 471 1101 471 l 786 471 l 733 97 z "},"Њ":{"ha":1356,"x_min":64,"x_max":1276,"o":"m 806 571 l 1001 571 q 1238 503 1175 571 q 1276 272 1300 436 q 1183 49 1256 108 q 947 -11 1110 -11 q 604 0 725 -11 l 671 469 l 253 469 l 186 0 l 64 0 l 199 958 l 321 958 l 267 569 l 685 569 l 739 958 l 860 958 l 806 571 m 792 471 l 739 97 q 931 96 790 96 q 1094 134 1049 96 q 1156 285 1139 172 q 1140 431 1171 392 q 993 471 1108 471 l 792 471 z "},"Ћ":{"ha":1068,"x_min":90,"x_max":993,"o":"m 521 850 l 472 510 q 797 614 638 614 q 993 396 1024 614 l 938 0 l 817 0 l 868 375 q 854 478 879 449 q 756 507 829 507 q 614 483 679 507 q 457 401 549 460 l 401 0 l 279 0 l 399 850 l 90 850 l 106 958 l 844 958 l 831 850 l 521 850 z "},"Ќ":{"ha":829,"x_min":63,"x_max":842,"o":"m 461 1011 l 425 1067 l 690 1269 l 747 1179 l 461 1011 m 465 500 l 464 496 q 590 425 542 486 q 658 297 639 364 q 714 68 678 231 q 729 0 724 24 l 607 0 q 538 290 556 238 q 415 440 494 413 q 347 450 386 450 l 240 450 q 232 346 242 406 l 185 0 l 63 0 l 197 958 l 319 958 l 276 657 q 254 549 268 600 l 354 549 q 417 559 388 549 q 472 585 447 569 q 522 630 496 600 q 566 685 547 660 q 610 757 585 711 q 653 835 636 803 q 699 925 669 868 q 715 958 710 947 l 842 958 q 679 651 729 725 q 465 500 583 513 z "},"Ѝ":{"ha":958,"x_min":63,"x_max":915,"o":"m 640 1064 l 599 1011 l 342 1185 l 406 1268 l 640 1064 m 781 0 l 664 0 l 757 665 q 783 806 764 717 l 778 806 q 714 701 722 714 l 196 0 l 63 0 l 197 958 l 317 958 l 222 293 q 194 153 210 208 l 200 153 q 269 261 222 192 l 783 958 l 915 958 l 781 0 z "},"Ў":{"ha":781,"x_min":63,"x_max":839,"o":"m 649 1231 l 708 1215 q 640 1085 701 1135 q 482 1036 579 1036 q 327 1088 379 1036 q 292 1221 275 1139 l 354 1225 q 381 1150 347 1176 q 481 1124 415 1124 q 598 1152 553 1124 q 649 1231 643 1181 m 839 958 l 481 233 q 370 59 426 121 q 236 -10 314 -3 q 63 11 143 -15 l 82 100 q 159 94 131 96 q 215 97 188 92 q 255 109 242 103 q 287 137 268 115 q 317 177 306 158 q 353 239 329 196 l 376 279 l 328 279 q 239 347 254 279 l 104 958 l 226 958 l 342 401 q 368 382 346 382 l 428 382 l 708 958 l 839 958 z "},"Џ":{"ha":936,"x_min":64,"x_max":893,"o":"m 893 958 l 758 0 l 471 0 l 436 -210 l 351 -210 l 375 0 l 64 0 l 199 958 l 321 958 l 200 100 l 650 100 l 771 958 l 893 958 z "},"А":{"ha":860,"x_min":-42,"x_max":793,"o":"m 619 299 l 224 299 l 88 0 l -42 0 l 397 926 q 444 958 407 958 l 572 958 q 601 948 589 958 q 614 922 613 938 l 793 0 l 671 0 l 619 299 m 600 406 l 533 783 q 528 824 532 796 q 522 865 525 851 l 481 865 l 444 783 l 272 406 l 600 406 z "},"Б":{"ha":828,"x_min":63,"x_max":786,"o":"m 306 856 l 261 546 l 461 546 q 700 483 638 546 q 740 263 763 419 q 644 45 717 103 q 410 -12 572 -12 q 63 0 201 -12 l 197 958 q 493 967 344 967 q 786 958 639 967 l 761 856 l 306 856 m 249 450 l 197 94 q 394 93 250 93 q 558 129 513 93 q 618 275 603 165 q 601 415 632 381 q 454 450 571 450 l 249 450 z "},"В":{"ha":858,"x_min":63,"x_max":793,"o":"m 63 0 l 197 958 q 504 969 308 969 q 747 915 681 969 q 793 715 814 860 q 733 559 778 611 q 601 499 689 507 l 600 493 q 756 235 792 476 q 662 39 733 89 q 424 -11 590 -11 q 63 0 188 -11 m 260 543 l 463 543 q 615 579 569 544 q 675 710 661 614 q 651 835 688 806 q 499 865 614 865 l 304 865 l 260 543 m 246 450 l 196 94 q 406 93 251 93 q 574 128 525 93 q 636 264 622 163 q 614 410 651 372 q 457 450 576 447 l 246 450 z "},"Г":{"ha":715,"x_min":60,"x_max":763,"o":"m 60 0 l 169 782 q 234 915 182 869 q 363 960 286 960 q 763 950 639 960 l 746 856 l 399 856 q 319 834 343 856 q 288 754 296 813 l 182 0 l 60 0 z "},"Д":{"ha":957,"x_min":-57,"x_max":876,"o":"m 874 100 l 861 10 l 831 -210 l 736 -210 l 754 0 l 79 0 l 38 -210 l -57 -210 l -26 1 l -14 100 l 75 100 q 315 783 232 350 q 522 958 347 958 l 876 958 l 756 100 l 874 100 m 635 100 l 740 858 l 549 858 q 469 834 497 858 q 432 757 442 810 q 208 100 353 338 l 635 100 z "},"Е":{"ha":775,"x_min":81,"x_max":781,"o":"m 764 856 l 382 856 q 313 833 335 856 q 283 761 290 811 l 254 553 l 667 553 l 654 458 l 242 458 l 206 193 q 217 124 199 146 q 282 103 235 103 l 657 103 l 654 7 q 267 -1 532 -1 q 115 49 163 -1 q 81 190 68 100 l 165 796 q 228 917 176 874 q 367 960 279 960 q 781 951 653 960 l 764 856 z "},"Ж":{"ha":1254,"x_min":-12,"x_max":1267,"o":"m 906 500 l 904 496 q 982 467 949 490 q 1037 411 1015 443 q 1078 316 1058 379 q 1111 199 1099 253 q 1144 47 1124 144 q 1154 0 1151 15 l 1033 0 q 965 290 979 247 q 856 440 926 414 q 796 450 829 450 l 688 450 q 682 346 688 390 l 633 0 l 515 0 l 565 350 q 588 450 575 404 l 485 450 q 390 428 432 450 q 308 349 349 406 q 235 233 267 293 q 147 63 203 174 q 117 0 128 22 l -12 0 q 161 340 111 264 q 354 496 247 474 q 383 500 368 499 l 385 504 q 320 526 349 510 q 269 577 292 542 q 231 642 246 613 q 199 735 215 672 q 174 836 183 797 q 149 958 165 875 l 267 958 q 276 914 269 943 q 299 811 292 844 q 322 726 307 778 q 350 650 336 675 q 385 597 364 625 q 431 559 406 569 q 490 549 457 549 l 603 549 q 610 661 601 597 l 651 958 l 768 958 l 725 657 q 704 549 715 592 l 801 549 q 893 573 851 549 q 979 663 935 597 q 1049 775 1024 729 q 1129 933 1074 821 q 1142 958 1138 950 l 1267 958 q 1121 665 1160 728 q 925 503 1033 524 q 906 500 915 501 z "},"З":{"ha":760,"x_min":-1,"x_max":694,"o":"m 149 854 l 144 947 q 410 969 261 969 q 645 913 576 969 q 694 715 714 857 q 635 559 679 611 q 504 499 592 507 l 501 493 q 656 235 690 475 q 566 40 636 92 q 326 -11 496 -11 q -1 21 132 -11 l 15 108 q 307 90 165 90 q 470 126 421 90 q 535 264 519 161 q 511 410 549 372 q 358 449 474 449 l 194 449 l 206 544 l 364 544 q 513 580 467 544 q 572 710 558 615 q 551 839 586 808 q 401 869 517 869 q 149 854 313 869 z "},"И":{"ha":958,"x_min":63,"x_max":915,"o":"m 781 0 l 664 0 l 757 665 q 783 806 764 717 l 778 806 q 714 701 722 714 l 196 0 l 63 0 l 197 958 l 317 958 l 222 293 q 194 153 210 208 l 200 153 q 269 261 222 192 l 783 958 l 915 958 l 781 0 z "},"Й":{"ha":958,"x_min":63,"x_max":915,"o":"m 713 1225 l 803 1225 q 735 1088 796 1140 q 576 1036 674 1036 q 422 1088 475 1036 q 386 1225 369 1140 l 476 1225 q 583 1101 456 1101 q 713 1225 699 1101 m 781 0 l 664 0 l 757 665 q 783 806 764 717 l 778 806 q 714 701 722 714 l 196 0 l 63 0 l 197 958 l 317 958 l 222 293 q 194 153 210 208 l 200 153 q 269 261 222 192 l 783 958 l 915 958 l 781 0 z "},"К":{"ha":829,"x_min":63,"x_max":842,"o":"m 465 500 l 464 496 q 590 425 542 486 q 658 297 639 364 q 714 68 678 231 q 729 0 724 24 l 607 0 q 538 290 556 238 q 415 440 494 413 q 347 450 386 450 l 240 450 q 232 346 242 406 l 185 0 l 63 0 l 197 958 l 319 958 l 276 657 q 254 549 268 600 l 354 549 q 417 559 388 549 q 472 585 447 569 q 522 630 496 600 q 566 685 547 660 q 610 757 585 711 q 653 835 636 803 q 699 925 669 868 q 715 958 710 947 l 842 958 q 679 651 729 725 q 465 500 583 513 z "},"Л":{"ha":903,"x_min":-33,"x_max":860,"o":"m 860 958 l 725 0 l 604 0 l 724 858 l 538 858 q 456 836 483 858 q 417 756 429 814 q 323 372 354 476 q 238 175 292 267 q -29 -1 136 1 l -33 97 q 53 139 17 114 q 126 219 90 164 q 209 401 179 300 q 300 788 239 501 q 513 958 339 958 l 860 958 z "},"М":{"ha":1217,"x_min":44,"x_max":1146,"o":"m 963 958 l 1099 958 q 1146 904 1150 958 l 1058 0 l 936 0 l 1025 857 l 997 857 l 685 149 q 628 108 668 108 l 518 108 q 467 153 475 108 l 346 857 l 318 857 l 165 0 l 44 0 l 210 910 q 264 958 218 958 l 399 958 q 444 914 438 958 l 547 331 q 565 200 551 310 l 592 200 q 646 329 610 246 l 906 918 q 963 958 922 957 z "},"Н":{"ha":925,"x_min":63,"x_max":883,"o":"m 883 958 l 749 0 l 628 0 l 692 458 l 250 458 l 186 0 l 63 0 l 197 958 l 321 958 l 265 564 l 707 564 l 763 958 l 883 958 z "},"О":{"ha":925,"x_min":94,"x_max":850,"o":"m 538 976 q 814 862 739 976 q 850 475 889 747 q 715 90 813 199 q 413 -18 618 -18 q 133 95 210 -18 q 94 483 57 208 q 230 866 132 756 q 538 976 328 976 m 531 867 q 319 783 385 867 q 222 475 253 700 q 233 174 192 257 q 415 92 274 92 q 625 176 558 92 q 724 483 692 261 q 715 786 756 706 q 531 867 674 867 z "},"П":{"ha":928,"x_min":63,"x_max":886,"o":"m 886 958 l 751 0 l 629 0 l 750 858 l 307 858 l 186 0 l 63 0 l 197 958 l 886 958 z "},"Р":{"ha":817,"x_min":63,"x_max":793,"o":"m 63 0 l 197 958 q 522 971 317 971 q 753 902 690 971 q 793 667 817 833 q 696 430 768 489 q 454 371 624 371 q 239 385 339 371 l 185 0 l 63 0 m 251 476 l 450 476 q 609 517 564 476 q 672 676 654 558 q 655 826 689 788 q 518 865 621 865 q 306 864 361 865 l 251 476 z "},"С":{"ha":786,"x_min":94,"x_max":793,"o":"m 682 107 l 689 14 q 407 -17 575 -17 q 129 101 201 -17 q 94 483 57 218 q 230 866 133 757 q 532 975 326 975 q 793 946 686 975 l 774 854 q 531 867 650 867 q 319 785 386 867 q 222 475 253 704 q 232 176 192 258 q 408 92 272 93 q 682 107 557 92 z "},"Т":{"ha":796,"x_min":90,"x_max":844,"o":"m 831 850 l 521 850 l 401 0 l 279 0 l 399 850 l 90 850 l 106 958 l 844 958 l 831 850 z "},"У":{"ha":781,"x_min":63,"x_max":839,"o":"m 839 958 l 481 233 q 370 59 426 121 q 236 -10 314 -3 q 63 11 143 -15 l 82 100 q 159 94 131 96 q 215 97 188 92 q 255 109 242 103 q 287 137 268 115 q 317 177 306 158 q 353 239 329 196 l 376 279 l 328 279 q 239 347 254 279 l 104 958 l 226 958 l 342 401 q 368 382 346 382 l 428 382 l 708 958 l 839 958 z "},"Ф":{"ha":1138,"x_min":85,"x_max":1082,"o":"m 721 1028 l 701 892 q 1024 788 936 881 q 1082 483 1113 696 q 942 181 1051 269 q 588 85 832 93 l 568 -51 l 447 -51 l 465 86 q 140 188 226 96 q 85 494 54 279 q 226 796 115 707 q 579 892 336 885 l 597 1028 l 721 1028 m 682 789 l 597 189 q 856 263 778 196 q 958 494 935 329 q 922 720 982 657 q 682 789 863 783 m 485 188 l 569 789 q 309 715 388 782 q 208 483 231 649 q 244 257 186 319 q 485 188 303 194 z "},"Х":{"ha":846,"x_min":-25,"x_max":875,"o":"m 556 496 l 757 0 l 632 0 l 456 450 l 418 450 l 117 0 l -25 0 l 317 496 l 131 958 l 256 958 l 417 544 l 456 544 l 740 958 l 875 958 l 556 496 z "},"Ц":{"ha":954,"x_min":64,"x_max":875,"o":"m 754 100 l 872 100 l 858 0 l 829 -210 l 735 -210 l 753 0 l 64 0 l 199 958 l 321 958 l 200 100 l 633 100 l 754 958 l 875 958 l 754 100 z "},"Ч":{"ha":864,"x_min":103,"x_max":822,"o":"m 822 958 l 688 0 l 565 0 l 631 460 q 294 349 454 349 q 135 402 182 349 q 103 569 88 456 l 157 958 l 279 958 l 229 588 q 242 488 218 517 q 338 458 267 458 q 483 483 414 458 q 644 563 553 508 l 700 958 l 822 958 z "},"Ш":{"ha":1289,"x_min":63,"x_max":1247,"o":"m 1247 958 l 1113 0 l 63 0 l 197 958 l 317 958 l 197 100 l 542 100 l 663 958 l 782 958 l 661 100 l 1007 100 l 1126 958 l 1247 958 z "},"Щ":{"ha":1318,"x_min":64,"x_max":1238,"o":"m 1118 100 l 1235 100 l 1221 0 l 1192 -210 l 1097 -210 l 1115 0 l 64 0 l 199 958 l 318 958 l 197 100 l 538 100 l 658 958 l 779 958 l 658 100 l 999 100 l 1119 958 l 1238 958 l 1118 100 z "},"Ъ":{"ha":1028,"x_min":89,"x_max":949,"o":"m 476 572 l 672 572 q 908 505 846 572 q 949 272 971 438 q 855 49 928 108 q 619 -11 782 -11 q 274 0 396 -11 l 393 850 l 89 850 l 104 958 l 531 958 l 476 572 m 461 471 l 408 97 q 601 96 461 96 q 766 134 721 96 q 828 285 811 172 q 812 431 843 392 q 665 471 781 471 l 461 471 z "},"Ы":{"ha":1175,"x_min":63,"x_max":1132,"o":"m 267 572 l 465 572 q 701 505 639 572 q 742 272 764 438 q 647 49 719 108 q 413 -11 574 -11 q 63 0 186 -11 l 197 958 l 321 958 l 267 572 m 1132 958 l 997 0 l 875 0 l 1010 958 l 1132 958 m 251 471 l 199 97 q 394 96 251 96 q 558 134 513 96 q 619 285 603 172 q 603 431 635 392 q 457 471 572 471 l 251 471 z "},"Ь":{"ha":821,"x_min":63,"x_max":742,"o":"m 267 572 l 465 572 q 701 505 639 572 q 742 272 764 438 q 647 49 719 108 q 413 -11 574 -11 q 63 0 186 -11 l 197 958 l 321 958 l 267 572 m 251 471 l 199 97 q 394 96 251 96 q 558 134 513 96 q 619 285 603 172 q 603 431 635 392 q 457 471 572 471 l 251 471 z "},"Э":{"ha":797,"x_min":3,"x_max":724,"o":"m 143 853 l 136 947 q 382 975 247 975 q 683 865 606 975 q 724 475 761 754 q 646 185 699 290 q 506 34 593 81 q 276 -17 419 -12 q 3 17 131 -21 l 22 108 q 278 93 142 88 q 494 178 425 100 q 596 460 563 257 l 182 460 l 194 553 l 608 553 q 613 690 621 633 q 591 780 604 746 q 543 833 578 814 q 470 859 508 853 q 372 865 432 865 q 143 853 250 865 z "},"Ю":{"ha":1283,"x_min":64,"x_max":1208,"o":"m 264 547 l 482 547 q 617 881 524 786 q 893 976 710 976 q 1171 863 1094 976 q 1208 475 1247 750 q 1073 89 1169 196 q 768 -18 976 -18 q 505 87 574 -18 q 468 449 436 192 l 250 449 l 186 0 l 64 0 l 199 958 l 321 958 l 264 547 m 1082 483 q 1072 785 1113 703 q 893 867 1032 867 q 688 781 754 867 q 592 475 622 696 q 599 174 561 257 q 769 92 638 92 q 983 177 914 92 q 1082 483 1051 263 z "},"Я":{"ha":849,"x_min":1,"x_max":807,"o":"m 672 0 l 549 0 l 604 390 l 400 389 q 313 365 347 389 q 256 286 279 342 l 135 0 l 1 0 l 129 296 q 282 433 192 424 l 283 439 q 159 532 194 454 q 139 714 124 610 q 238 913 158 854 q 471 971 317 971 q 807 958 665 971 l 672 0 m 618 494 l 671 864 q 472 865 618 865 q 324 828 372 865 q 263 697 276 792 q 281 547 247 599 q 410 494 315 494 l 618 494 z "},"а":{"ha":800,"x_min":72,"x_max":728,"o":"m 635 0 l 542 0 l 550 136 q 250 -17 419 -17 q 85 65 126 -17 q 72 346 43 146 q 116 528 89 458 q 188 634 143 599 q 282 681 232 669 q 411 693 332 693 q 728 661 561 693 l 635 0 m 549 238 l 600 590 q 446 594 499 594 q 260 549 306 594 q 192 336 215 504 q 186 135 169 183 q 274 86 203 86 q 549 238 393 86 z "},"б":{"ha":793,"x_min":82,"x_max":758,"o":"m 744 1010 l 758 906 q 582 859 682 874 q 454 838 482 844 q 301 758 346 810 q 228 607 257 706 q 215 563 225 600 q 200 511 204 526 l 203 511 q 251 578 226 551 q 335 631 276 606 q 471 656 393 656 q 675 572 625 656 q 706 326 725 489 q 603 65 683 147 q 358 -17 524 -17 q 230 -2 283 -17 q 147 44 176 13 q 100 111 117 76 q 82 203 83 146 q 85 306 81 260 q 99 424 89 351 q 135 620 117 546 q 188 761 153 694 q 277 867 222 828 q 415 932 332 907 q 563 961 456 943 q 744 1010 669 979 m 442 556 q 273 501 321 556 q 208 325 225 446 q 222 137 189 190 q 361 83 256 83 q 512 138 461 83 q 583 335 563 192 q 572 510 601 464 q 442 556 542 556 z "},"в":{"ha":758,"x_min":58,"x_max":676,"o":"m 497 367 l 496 363 q 630 308 593 357 q 653 163 667 258 q 569 22 638 61 q 342 -18 500 -18 q 235 -12 279 -18 q 155 8 190 -7 q 99 49 119 24 q 68 116 79 75 q 58 213 57 157 q 71 346 60 269 q 114 526 88 458 q 185 632 140 594 q 284 681 231 669 q 425 693 338 693 q 504 690 471 693 q 577 677 538 688 q 640 647 617 667 q 674 592 663 628 q 676 507 686 557 q 497 367 649 382 m 193 381 l 374 401 q 513 437 475 413 q 563 507 551 461 q 541 580 575 561 q 410 599 507 599 q 259 560 301 599 q 193 381 217 521 m 369 317 l 181 296 q 174 212 175 246 q 180 153 174 178 q 197 114 186 128 q 227 92 207 100 q 269 81 247 83 q 328 79 292 79 q 482 103 436 79 q 538 196 528 126 q 510 299 546 268 q 369 317 474 329 z "},"г":{"ha":719,"x_min":38,"x_max":650,"o":"m 108 556 l 106 649 q 386 693 229 686 q 488 694 438 699 q 576 676 538 689 q 636 626 615 663 q 650 533 657 590 q 623 448 644 485 q 565 387 601 411 q 509 353 528 363 q 453 331 490 344 l 250 253 q 180 213 201 232 q 156 161 158 193 q 179 99 149 114 q 281 85 210 85 q 608 139 450 89 l 613 43 q 282 -18 457 -18 q 90 24 156 -18 q 38 164 25 67 q 89 275 46 232 q 218 351 132 318 l 407 422 q 504 471 475 446 q 536 531 533 496 q 508 585 542 572 q 376 594 475 599 q 108 556 267 589 z "},"д":{"ha":785,"x_min":72,"x_max":706,"o":"m 210 901 l 228 988 q 338 970 288 981 q 438 942 388 960 q 526 901 488 925 q 599 844 564 878 q 656 767 635 810 q 692 667 676 724 q 706 541 707 610 q 694 388 704 472 q 588 83 667 185 q 332 -18 508 -18 q 113 62 175 -18 q 72 308 50 142 q 168 542 93 461 q 386 622 243 622 q 586 546 513 622 q 574 666 586 614 q 536 754 563 718 q 481 815 510 790 q 403 856 451 839 q 313 882 354 872 q 210 901 272 892 m 338 82 q 501 156 450 82 q 575 404 551 231 q 582 468 581 450 q 411 524 511 524 q 260 468 310 524 q 196 300 211 413 q 212 131 178 181 q 338 82 246 82 z "},"е":{"ha":746,"x_min":67,"x_max":688,"o":"m 610 100 l 618 21 q 342 -17 522 -17 q 104 72 168 -17 q 67 354 40 161 q 174 622 94 551 q 436 693 254 693 q 648 640 590 693 q 688 476 706 586 q 612 339 671 381 q 431 288 553 297 l 181 265 q 221 121 178 158 q 361 83 264 83 q 610 100 481 83 m 189 353 l 429 376 q 530 405 499 382 q 571 486 561 428 q 549 576 582 557 q 421 594 515 594 q 260 548 307 594 q 189 353 213 501 z "},"ж":{"ha":1051,"x_min":-11,"x_max":1028,"o":"m 735 353 l 733 349 q 857 278 822 339 q 938 40 892 217 q 949 0 944 14 l 836 0 q 769 225 789 183 q 663 306 735 299 q 644 307 654 307 l 561 307 q 558 238 563 274 l 525 0 l 419 0 l 454 243 q 469 307 458 271 l 389 307 q 317 294 347 307 q 250 233 288 282 q 194 153 213 185 q 119 19 175 121 q 108 0 113 7 l -11 0 q 124 239 94 197 q 272 349 188 329 q 304 354 288 353 l 306 357 q 238 380 267 363 q 192 418 210 397 q 157 485 174 439 q 131 567 140 532 q 106 676 122 603 l 218 676 q 242 578 233 611 q 267 503 251 546 q 299 442 283 461 q 341 410 315 424 q 400 396 367 396 l 483 396 q 486 476 482 431 l 515 676 l 621 676 l 592 472 q 576 396 583 422 l 643 396 q 773 458 719 396 q 910 676 826 521 l 1028 676 q 955 539 978 579 q 894 448 932 499 q 820 378 857 397 q 735 353 783 358 z "},"з":{"ha":690,"x_min":-1,"x_max":607,"o":"m 108 578 l 104 667 q 321 688 189 688 q 555 649 489 688 q 607 503 621 611 q 559 392 596 428 q 442 349 522 356 l 440 344 q 562 294 528 338 q 583 163 596 250 q 502 22 568 56 q 274 -12 436 -12 q -1 8 114 -12 l 15 99 q 267 88 135 88 q 419 108 381 88 q 467 196 457 128 q 442 278 475 257 q 308 301 408 300 l 144 304 l 154 389 l 313 389 q 444 412 407 389 q 492 497 482 435 q 468 572 500 556 q 321 589 436 589 q 108 578 208 589 z "},"и":{"ha":792,"x_min":71,"x_max":721,"o":"m 721 676 l 626 0 l 536 0 l 546 147 q 233 -18 374 -18 q 100 32 142 -18 q 71 171 58 82 l 142 676 l 260 676 l 193 200 q 202 111 183 138 q 274 85 221 85 q 390 120 332 85 q 544 242 449 156 l 604 676 l 721 676 z "},"й":{"ha":792,"x_min":71,"x_max":721,"o":"m 590 975 l 681 975 q 613 838 674 890 q 454 786 551 786 q 300 838 353 786 q 264 975 247 890 l 354 975 q 461 851 333 851 q 590 975 576 851 m 721 676 l 626 0 l 536 0 l 546 147 q 233 -18 374 -18 q 100 32 142 -18 q 71 171 58 82 l 142 676 l 260 676 l 193 200 q 202 111 183 138 q 274 85 221 85 q 390 120 332 85 q 544 242 449 156 l 604 676 l 721 676 z "},"к":{"ha":739,"x_min":51,"x_max":714,"o":"m 413 353 l 410 349 q 481 332 451 346 q 531 294 511 318 q 567 235 551 271 q 597 152 583 199 q 626 44 610 106 q 638 0 633 15 l 519 0 q 453 219 472 179 q 344 303 417 292 q 310 306 329 306 l 304 306 l 206 306 q 203 236 206 263 l 168 0 l 51 0 l 146 676 l 264 676 l 236 474 q 218 397 232 449 l 310 397 q 381 411 349 397 q 438 443 414 425 q 490 503 461 461 q 536 577 518 544 q 588 675 554 610 l 714 675 q 656 564 676 601 q 604 481 635 526 q 549 413 574 435 q 489 375 524 392 q 413 353 454 358 z "},"л":{"ha":781,"x_min":-19,"x_max":711,"o":"m 711 676 l 615 0 l 497 0 l 581 583 l 438 583 q 371 563 394 583 q 335 494 347 543 q 219 138 281 272 q -11 -7 157 -4 l -19 89 q 37 105 19 99 q 76 131 54 111 q 114 183 99 150 q 226 524 158 269 q 290 640 247 603 q 410 676 332 676 l 711 676 z "},"м":{"ha":1033,"x_min":38,"x_max":943,"o":"m 779 676 l 901 676 q 934 663 922 676 q 943 629 946 650 l 883 0 l 775 0 l 831 586 l 807 586 l 571 110 q 522 74 554 74 l 425 74 q 383 114 390 74 l 278 586 l 253 586 l 146 0 l 38 0 l 153 633 q 201 676 158 676 l 322 676 q 364 636 357 676 l 449 256 q 468 151 464 192 l 490 151 q 509 197 494 161 q 533 251 524 232 l 729 640 q 779 676 746 676 z "},"н":{"ha":804,"x_min":51,"x_max":735,"o":"m 735 676 l 639 0 l 522 0 l 567 314 l 213 314 l 168 0 l 51 0 l 146 676 l 263 676 l 225 404 l 579 404 l 618 676 l 735 676 z "},"о":{"ha":788,"x_min":67,"x_max":703,"o":"m 174 613 q 215 653 174 613 q 428 693 256 693 q 665 610 600 693 q 703 332 731 526 q 594 61 676 140 q 343 -18 513 -18 q 106 65 171 -18 q 67 342 40 149 q 174 613 93 533 m 428 593 q 263 538 315 593 q 189 332 210 483 q 201 135 169 188 q 343 82 233 82 q 508 138 457 82 q 581 342 560 193 q 569 540 601 488 q 428 593 536 593 z "},"п":{"ha":807,"x_min":51,"x_max":717,"o":"m 240 676 l 231 528 q 557 693 419 693 q 688 645 644 693 q 717 506 731 597 l 644 0 l 528 0 l 594 476 q 587 568 603 543 q 521 593 571 593 q 397 557 461 593 q 229 440 332 521 l 169 0 l 51 0 l 146 676 l 240 676 z "},"р":{"ha":803,"x_min":11,"x_max":710,"o":"m 240 676 l 231 526 q 383 644 299 596 q 536 693 467 693 q 698 614 657 693 q 710 331 739 535 q 667 148 694 218 q 597 42 640 78 q 504 -6 553 6 q 379 -18 456 -18 q 164 0 281 -18 q 153 -129 161 -81 l 129 -282 l 11 -282 l 147 676 l 240 676 m 232 436 l 183 83 q 336 79 283 79 q 522 125 476 79 q 590 339 567 171 q 595 542 611 493 q 510 590 579 590 q 384 549 460 590 q 232 436 308 508 z "},"с":{"ha":676,"x_min":67,"x_max":646,"o":"m 568 97 l 575 17 q 343 -17 471 -17 q 102 66 165 -17 q 67 343 39 149 q 176 615 94 538 q 429 693 257 693 q 646 660 564 693 l 628 586 q 449 593 551 593 q 265 540 321 593 q 189 333 208 488 q 206 132 169 181 q 364 83 243 83 q 568 97 479 83 z "},"т":{"ha":1215,"x_min":51,"x_max":1126,"o":"m 238 676 l 228 529 q 524 693 392 693 q 644 652 603 693 q 685 539 686 611 q 968 693 839 693 q 1098 643 1057 693 q 1126 506 1139 593 l 1056 0 l 938 0 l 1004 476 q 993 567 1014 540 q 922 593 972 593 q 820 560 872 593 q 672 439 768 526 l 610 0 l 496 0 l 563 476 q 553 566 571 539 q 481 593 535 593 q 378 560 429 593 q 229 442 326 528 l 168 0 l 51 0 l 146 676 l 238 676 z "},"у":{"ha":751,"x_min":1,"x_max":729,"o":"m 606 676 l 729 676 q 649 402 704 560 q 528 110 594 244 q 391 -115 461 -26 q 258 -240 321 -204 q 128 -289 194 -276 q 1 -286 61 -301 l 13 -189 q 180 -165 100 -206 q 342 0 260 -124 l 272 0 q 221 17 243 0 q 193 63 199 35 l 63 676 l 188 676 l 293 119 q 325 93 300 93 l 396 93 l 422 144 q 535 412 485 267 q 606 676 585 557 z "},"ф":{"ha":994,"x_min":65,"x_max":910,"o":"m 632 972 l 593 692 q 862 598 789 682 q 910 332 935 514 q 790 72 885 151 q 493 -15 694 -8 l 456 -279 l 346 -279 l 382 -15 q 113 78 186 -6 q 65 342 40 161 q 185 605 90 524 q 483 693 281 686 l 522 972 l 632 972 m 575 593 l 501 85 q 711 149 646 92 q 796 342 776 206 q 766 532 814 478 q 575 593 718 586 m 401 83 l 474 592 q 263 526 329 585 q 178 332 197 468 q 208 144 160 197 q 401 83 257 90 z "},"х":{"ha":731,"x_min":-26,"x_max":722,"o":"m 467 349 l 643 0 l 524 0 l 374 306 l 342 306 l 106 0 l -26 0 l 250 350 l 88 676 l 206 676 l 339 397 l 378 397 l 594 676 l 722 676 l 467 349 z "},"ц":{"ha":828,"x_min":71,"x_max":742,"o":"m 729 0 l 700 -207 l 599 -207 l 642 0 q 564 33 592 3 q 542 124 536 64 l 543 140 q 233 -18 375 -18 q 100 32 142 -18 q 71 171 58 82 l 142 676 l 260 676 l 193 200 q 202 111 183 138 q 274 85 221 85 q 391 119 332 85 q 544 236 450 154 l 604 676 l 721 676 l 646 124 q 675 89 640 89 l 742 89 l 729 0 z "},"ч":{"ha":744,"x_min":71,"x_max":675,"o":"m 675 676 l 579 0 l 461 0 l 504 307 q 239 235 360 235 q 102 272 144 233 q 71 386 60 310 l 113 676 l 231 676 l 194 419 q 204 350 188 368 q 276 332 221 332 q 518 408 385 332 l 556 676 l 675 676 z "},"ш":{"ha":1190,"x_min":71,"x_max":1119,"o":"m 1119 676 l 1025 0 l 933 0 l 943 144 q 656 -18 786 -18 q 539 22 579 -18 q 500 135 499 63 q 225 -18 351 -18 q 99 32 139 -18 q 71 171 58 82 l 142 676 l 260 676 l 193 200 q 203 117 183 142 q 275 92 224 92 q 371 121 326 92 q 513 238 415 150 l 574 676 l 688 676 l 621 200 q 631 117 613 143 q 703 92 649 92 q 801 121 756 92 q 942 235 846 150 l 1003 676 l 1119 676 z "},"щ":{"ha":1226,"x_min":71,"x_max":1140,"o":"m 1140 89 l 1128 0 l 1097 -207 l 997 -207 l 1043 0 q 963 32 992 1 q 940 124 935 63 l 942 143 q 656 -18 786 -18 q 539 22 579 -18 q 500 135 499 63 q 225 -18 351 -18 q 99 32 139 -18 q 71 171 58 82 l 142 676 l 260 676 l 193 200 q 203 117 183 142 q 275 92 224 92 q 371 121 326 92 q 513 238 415 150 l 574 676 l 688 676 l 621 200 q 631 117 613 143 q 703 92 649 92 q 801 120 756 92 q 943 235 846 149 l 1003 676 l 1119 676 l 1044 124 q 1074 89 1039 89 l 1140 89 z "},"ъ":{"ha":874,"x_min":56,"x_max":786,"o":"m 483 676 l 408 394 q 540 415 475 415 q 751 367 697 415 q 786 197 804 319 q 707 33 768 76 q 511 -11 646 -11 q 466 -10 486 -11 q 419 -7 446 -10 q 373 0 393 -4 q 330 13 353 4 q 292 34 307 22 q 263 63 276 46 q 242 102 249 81 q 237 153 236 124 q 246 219 238 183 l 344 582 l 56 582 l 69 676 l 483 676 m 385 307 l 356 200 q 353 149 346 169 q 370 115 360 128 q 402 95 381 103 q 444 85 424 88 q 492 83 465 83 q 618 109 582 83 q 668 211 654 135 q 652 304 679 279 q 535 329 625 329 q 385 307 465 329 z "},"ы":{"ha":993,"x_min":71,"x_max":922,"o":"m 922 676 l 826 0 l 708 0 l 803 676 l 922 676 m 257 676 l 215 385 q 375 415 300 415 q 585 368 532 415 q 621 197 639 321 q 543 33 604 76 q 346 -11 482 -11 q 284 -10 308 -11 q 221 -3 260 -8 q 158 14 182 1 q 109 47 133 26 q 75 101 85 67 q 71 181 65 135 l 143 676 l 257 676 m 203 303 l 185 179 q 215 102 178 121 q 326 83 251 83 q 455 110 417 83 q 503 211 493 136 q 485 304 513 279 q 369 329 458 329 q 203 303 293 329 z "},"ь":{"ha":708,"x_min":71,"x_max":621,"o":"m 257 676 l 215 385 q 375 415 300 415 q 585 368 532 415 q 621 197 639 321 q 543 33 604 76 q 346 -11 482 -11 q 284 -10 308 -11 q 221 -3 260 -8 q 158 14 182 1 q 109 47 133 26 q 75 101 85 67 q 71 181 65 135 l 143 676 l 257 676 m 203 303 l 185 179 q 215 102 178 121 q 326 83 251 83 q 455 110 417 83 q 503 211 493 136 q 485 304 513 279 q 369 329 458 329 q 203 303 293 329 z "},"э":{"ha":700,"x_min":3,"x_max":613,"o":"m 101 579 l 96 661 q 306 685 181 685 q 567 608 497 685 q 613 329 638 531 q 502 58 588 133 q 228 -14 417 -17 q 3 14 86 -12 l 21 96 q 215 86 107 89 q 408 127 351 83 q 488 303 465 171 l 144 303 l 156 388 l 499 388 q 467 549 510 511 q 300 586 425 586 q 101 579 224 586 z "},"ю":{"ha":1101,"x_min":51,"x_max":1015,"o":"m 225 394 l 399 394 q 507 628 431 564 q 739 693 583 693 q 978 615 914 693 q 1015 335 1043 536 q 908 62 988 136 q 653 -12 828 -12 q 428 56 489 -12 q 386 303 368 125 l 213 303 l 169 0 l 51 0 l 147 676 l 265 676 l 225 394 m 821 144 q 847 172 821 144 q 893 344 874 200 q 879 541 913 489 q 736 593 846 593 q 574 538 624 593 q 503 335 524 483 q 513 140 482 192 q 651 88 544 88 q 821 144 768 88 z "},"я":{"ha":746,"x_min":6,"x_max":676,"o":"m 676 674 l 581 0 l 465 0 l 501 250 l 331 250 q 190 179 215 250 l 125 0 l 6 0 l 75 197 q 135 270 93 247 q 221 292 176 293 l 222 297 q 99 488 79 322 q 184 646 113 608 q 421 683 256 683 q 676 674 556 683 m 514 339 l 549 588 q 468 588 526 588 q 376 589 410 589 q 255 566 288 589 q 213 472 222 543 q 228 372 204 404 q 329 339 253 339 l 514 339 z "},"ё":{"ha":746,"x_min":67,"x_max":688,"o":"m 349 815 l 310 815 q 279 847 278 815 l 292 925 q 331 958 297 958 l 367 958 q 397 925 403 958 l 385 849 q 349 815 383 815 m 583 815 l 544 815 q 514 847 513 815 l 526 925 q 565 958 533 958 l 601 958 q 632 925 639 958 l 619 849 q 583 815 617 815 m 610 100 l 618 21 q 342 -17 522 -17 q 104 72 168 -17 q 67 354 40 161 q 174 622 94 551 q 436 693 254 693 q 648 640 590 693 q 688 476 706 586 q 612 339 671 381 q 431 288 553 297 l 181 265 q 221 121 178 158 q 361 83 264 83 q 610 100 481 83 m 189 353 l 429 376 q 530 405 499 382 q 571 486 561 428 q 549 576 582 557 q 421 594 515 594 q 260 548 307 594 q 189 353 213 501 z "},"ђ":{"ha":801,"x_min":75,"x_max":724,"o":"m 292 689 l 271 535 q 249 424 261 468 q 558 558 419 558 q 724 371 749 558 l 671 0 l 553 0 l 601 343 q 588 428 610 404 q 506 453 567 453 q 390 424 449 453 q 240 328 331 394 l 194 0 l 76 0 l 174 689 l 75 689 l 85 757 l 183 757 l 214 972 l 332 972 l 301 757 l 567 757 l 557 689 l 292 689 z "},"ѓ":{"ha":719,"x_min":38,"x_max":650,"o":"m 614 929 l 326 761 l 290 817 l 557 1019 l 614 929 m 108 556 l 106 649 q 386 693 229 686 q 488 694 438 699 q 576 676 538 689 q 636 626 615 663 q 650 533 657 590 q 623 448 644 485 q 565 387 601 411 q 509 353 528 363 q 453 331 490 344 l 250 253 q 180 213 201 232 q 156 161 158 193 q 179 99 149 114 q 281 85 210 85 q 608 139 450 89 l 613 43 q 282 -18 457 -18 q 90 24 156 -18 q 38 164 25 67 q 89 275 46 232 q 218 351 132 318 l 407 422 q 504 471 475 446 q 536 531 533 496 q 508 585 542 572 q 376 594 475 599 q 108 556 267 589 z "},"є":{"ha":697,"x_min":67,"x_max":667,"o":"m 667 660 l 649 579 q 453 586 538 586 q 272 547 326 586 q 194 386 218 507 l 539 386 l 528 303 l 182 303 q 208 132 168 172 q 382 86 249 92 q 585 96 451 85 l 593 13 q 357 -14 494 -14 q 113 66 185 -14 q 67 340 40 146 q 180 611 94 538 q 451 685 265 685 q 667 660 585 685 z "},"ѕ":{"ha":707,"x_min":32,"x_max":653,"o":"m 403 257 l 215 340 q 108 418 139 375 q 86 533 76 461 q 164 662 97 628 q 368 693 231 696 q 653 672 525 690 l 639 588 q 372 594 468 593 q 241 583 275 594 q 200 525 207 572 q 214 467 196 486 q 282 426 232 449 l 472 343 q 585 267 554 307 q 606 151 615 226 q 582 76 600 107 q 540 28 564 46 q 474 0 515 10 q 393 -12 433 -10 q 290 -15 353 -15 q 206 -13 243 -15 q 151 -10 168 -11 q 93 -3 133 -8 q 32 4 53 1 l 46 90 q 261 83 128 83 q 438 100 392 85 q 490 163 483 115 q 485 204 494 188 q 463 228 475 221 q 418 250 450 236 q 403 257 408 254 z "},"і":{"ha":346,"x_min":57,"x_max":310,"o":"m 221 964 l 276 964 q 310 925 314 964 l 299 846 q 261 813 294 813 l 206 813 q 172 851 165 813 l 183 929 q 221 964 188 964 m 175 0 l 57 0 l 151 676 l 269 676 l 175 0 z "},"ї":{"ha":342,"x_min":54,"x_max":415,"o":"m 114 958 l 150 958 q 181 925 185 958 l 168 849 q 132 815 167 815 l 93 815 q 63 847 61 815 l 75 925 q 114 958 81 958 m 349 958 l 385 958 q 415 925 419 958 l 403 849 q 367 815 400 815 l 328 815 q 297 847 296 815 l 310 925 q 349 958 317 958 m 172 0 l 54 0 l 150 676 l 268 676 l 172 0 z "},"ј":{"ha":346,"x_min":-54,"x_max":310,"o":"m 221 964 l 276 964 q 310 925 314 964 l 299 846 q 261 813 294 813 l 206 813 q 172 851 165 813 l 183 929 q 221 964 188 964 m 269 676 l 172 -19 q 8 -283 149 -187 l -54 -229 q 54 -14 38 -132 l 151 676 l 269 676 z "},"љ":{"ha":1111,"x_min":-19,"x_max":1024,"o":"m 664 676 l 621 382 q 800 415 703 415 q 990 364 942 415 q 1024 197 1039 313 q 947 33 1007 75 q 754 -11 888 -8 q 643 -5 689 -11 q 556 21 597 1 q 496 80 514 40 q 485 181 478 119 l 543 586 l 426 586 q 333 511 351 586 q 270 266 293 338 q 207 131 247 194 q -14 -4 129 3 l -19 90 q 106 171 56 104 q 153 259 133 207 q 185 353 174 311 q 231 542 196 394 q 393 676 263 676 l 664 676 m 610 300 l 592 179 q 619 103 583 122 q 731 83 656 83 q 859 109 822 83 q 906 211 896 135 q 889 305 914 281 q 783 329 864 329 q 610 300 697 329 z "},"њ":{"ha":1125,"x_min":51,"x_max":1038,"o":"m 682 676 l 640 385 q 796 415 724 415 q 1002 368 950 415 q 1038 197 1054 321 q 961 33 1021 76 q 768 -11 901 -11 q 694 -10 724 -11 q 621 2 665 -8 q 551 31 576 13 q 510 88 526 50 q 499 181 493 126 l 521 331 l 207 331 l 160 0 l 51 0 l 146 676 l 256 676 l 219 415 l 533 415 l 571 676 l 682 676 m 628 301 l 610 179 q 638 102 603 121 q 749 83 674 83 q 873 110 836 83 q 919 211 910 136 q 903 304 929 279 q 792 329 878 329 q 628 301 714 329 z "},"ћ":{"ha":801,"x_min":75,"x_max":724,"o":"m 292 689 l 274 557 q 249 424 263 479 q 558 558 417 558 q 724 371 749 558 l 669 -19 q 506 -283 643 -189 l 443 -229 q 551 -14 535 -132 l 601 343 q 588 428 610 404 q 506 453 567 453 q 390 424 449 453 q 239 328 331 394 l 194 0 l 76 0 l 174 689 l 75 689 l 85 757 l 183 757 l 214 972 l 332 972 l 301 757 l 567 757 l 557 689 l 292 689 z "},"ќ":{"ha":739,"x_min":51,"x_max":714,"o":"m 385 761 l 349 817 l 615 1019 l 672 929 l 385 761 m 413 353 l 410 349 q 481 332 451 346 q 531 294 511 318 q 567 235 551 271 q 597 152 583 199 q 626 44 610 106 q 638 0 633 15 l 519 0 q 453 219 472 179 q 344 303 417 292 q 310 306 329 306 l 304 306 l 206 306 q 203 236 206 263 l 168 0 l 51 0 l 146 676 l 264 676 l 236 474 q 218 397 232 449 l 310 397 q 381 411 349 397 q 438 443 414 425 q 490 503 461 461 q 536 577 518 544 q 588 675 554 610 l 714 675 q 656 564 676 601 q 604 481 635 526 q 549 413 574 435 q 489 375 524 392 q 413 353 454 358 z "},"ѝ":{"ha":792,"x_min":71,"x_max":721,"o":"m 475 761 l 218 935 l 283 1018 l 518 814 l 475 761 m 721 676 l 626 0 l 536 0 l 546 147 q 233 -18 374 -18 q 100 32 142 -18 q 71 171 58 82 l 142 676 l 260 676 l 193 200 q 202 111 183 138 q 274 85 221 85 q 390 120 332 85 q 544 242 449 156 l 604 676 l 721 676 z "},"ў":{"ha":751,"x_min":1,"x_max":729,"o":"m 549 975 l 639 975 q 571 838 632 890 q 414 786 510 786 q 259 838 311 786 q 224 975 207 890 l 313 975 q 419 851 294 851 q 549 975 535 851 m 606 676 l 729 676 q 649 402 704 560 q 528 110 594 244 q 391 -115 461 -26 q 258 -240 321 -204 q 128 -289 194 -276 q 1 -286 61 -301 l 13 -189 q 180 -165 100 -206 q 342 0 260 -124 l 272 0 q 221 17 243 0 q 193 63 199 35 l 63 676 l 188 676 l 293 119 q 325 93 300 93 l 396 93 l 422 144 q 535 412 485 267 q 606 676 585 557 z "},"џ":{"ha":792,"x_min":71,"x_max":721,"o":"m 721 676 l 626 0 l 536 0 l 546 147 q 233 -18 374 -18 q 100 32 142 -18 q 71 171 58 82 l 142 676 l 260 676 l 193 200 q 202 111 183 138 q 274 85 221 85 q 390 120 332 85 q 544 242 449 156 l 604 676 l 721 676 m 324 -57 l 404 -57 l 379 -314 l 275 -314 l 324 -57 z "},"Ґ":{"ha":722,"x_min":60,"x_max":804,"o":"m 768 940 l 754 856 l 399 856 q 321 835 346 856 q 288 754 296 814 l 182 0 l 60 0 l 169 782 q 233 915 182 869 q 363 960 283 960 q 676 951 576 960 l 721 1168 l 804 1168 l 768 940 z "},"ґ":{"ha":629,"x_min":47,"x_max":667,"o":"m 635 668 l 619 585 l 332 585 q 235 499 246 585 l 165 0 l 47 0 l 124 535 q 286 679 143 679 q 543 675 458 679 l 585 878 l 667 878 l 635 668 z "},"Ұ":{"ha":801,"x_min":101,"x_max":858,"o":"m 483 382 l 667 382 l 656 308 l 449 308 l 406 0 l 283 0 l 326 308 l 117 308 l 128 382 l 315 382 l 101 958 l 228 958 l 372 551 q 400 443 379 532 l 411 447 q 468 556 440 508 l 728 958 l 858 958 l 483 382 z "},"ұ":{"ha":806,"x_min":60,"x_max":817,"o":"m 443 103 l 628 103 l 618 28 l 407 28 l 364 -282 l 240 -282 l 285 28 l 79 28 l 89 103 l 272 103 l 60 676 l 185 676 l 329 268 q 357 161 350 207 l 368 161 q 425 274 386 211 l 683 676 l 817 676 l 443 103 z "},"Ҷ":{"ha":914,"x_min":103,"x_max":833,"o":"m 711 85 l 831 85 l 819 0 l 789 -210 l 696 -210 l 714 0 l 578 0 l 642 454 q 294 349 464 349 q 103 569 72 349 l 158 958 l 281 958 l 229 588 q 244 486 218 517 q 347 456 269 456 q 492 481 421 456 q 657 561 563 506 l 713 958 l 833 958 l 711 85 z "},"ҷ":{"ha":778,"x_min":71,"x_max":685,"o":"m 672 7 l 643 -200 l 535 -200 l 578 0 l 461 0 l 504 307 q 239 235 360 235 q 102 272 144 233 q 71 386 60 310 l 113 676 l 231 676 l 194 419 q 204 350 188 368 q 276 332 221 332 q 518 408 388 332 l 556 676 l 675 676 l 590 94 l 685 94 l 672 7 z "},"Һ":{"ha":876,"x_min":63,"x_max":793,"o":"m 321 958 l 257 504 q 603 610 436 610 q 793 389 828 610 l 739 0 l 617 0 l 669 371 q 654 473 681 443 q 551 503 628 503 q 242 397 422 503 l 186 0 l 63 0 l 197 958 l 321 958 z "},"Ӏ":{"ha":364,"x_min":64,"x_max":321,"o":"m 186 0 l 64 0 l 199 958 l 321 958 l 186 0 z "},"Ẁ":{"ha":1310,"x_min":115,"x_max":1346,"o":"m 811 1064 l 769 1010 l 513 1183 l 576 1268 l 811 1064 m 1346 958 l 1019 33 q 969 0 1008 0 l 833 0 q 803 11 815 0 q 789 40 790 22 l 739 761 q 735 806 739 765 q 731 867 732 846 l 701 867 l 664 756 l 415 35 q 365 0 404 0 l 231 0 q 199 11 213 0 q 185 39 186 22 l 115 958 l 240 958 l 285 210 q 289 90 285 203 l 322 90 l 363 214 l 608 919 q 658 958 619 958 l 790 958 q 819 946 807 958 q 832 915 831 933 l 889 208 q 894 90 894 131 l 929 90 l 967 211 l 1218 958 l 1346 958 z "},"ẁ":{"ha":1181,"x_min":63,"x_max":1160,"o":"m 710 814 l 667 761 l 410 935 l 475 1018 l 710 814 m 281 93 l 299 93 q 364 142 336 93 q 440 332 406 215 q 513 647 479 450 q 546 676 517 676 l 675 676 q 706 649 703 676 l 774 93 l 790 93 q 847 136 821 93 q 946 332 908 232 q 1036 676 1003 476 l 1160 676 q 1036 283 1108 447 q 917 67 971 135 q 863 16 889 32 q 797 0 836 0 l 719 0 q 682 32 688 0 l 618 599 l 600 599 q 536 303 585 460 q 443 88 494 168 q 294 0 393 0 l 225 0 q 188 32 194 0 l 63 676 l 185 676 l 281 93 z "},"Ẃ":{"ha":1310,"x_min":115,"x_max":1346,"o":"m 976 1178 l 690 1010 l 653 1065 l 919 1269 l 976 1178 m 1346 958 l 1019 33 q 969 0 1008 0 l 833 0 q 803 11 815 0 q 789 40 790 22 l 739 761 q 735 806 739 765 q 731 867 732 846 l 701 867 l 664 756 l 415 35 q 365 0 404 0 l 231 0 q 199 11 213 0 q 185 39 186 22 l 115 958 l 240 958 l 285 210 q 289 90 285 203 l 322 90 l 363 214 l 608 919 q 658 958 619 958 l 790 958 q 819 946 807 958 q 832 915 831 933 l 889 208 q 894 90 894 131 l 929 90 l 967 211 l 1218 958 l 1346 958 z "},"ẃ":{"ha":1181,"x_min":63,"x_max":1160,"o":"m 875 929 l 588 761 l 551 817 l 818 1019 l 875 929 m 281 93 l 299 93 q 364 142 336 93 q 440 332 406 215 q 513 647 479 450 q 546 676 517 676 l 675 676 q 706 649 703 676 l 774 93 l 790 93 q 847 136 821 93 q 946 332 908 232 q 1036 676 1003 476 l 1160 676 q 1036 283 1108 447 q 917 67 971 135 q 863 16 889 32 q 797 0 836 0 l 719 0 q 682 32 688 0 l 618 599 l 600 599 q 536 303 585 460 q 443 88 494 168 q 294 0 393 0 l 225 0 q 188 32 194 0 l 63 676 l 185 676 l 281 93 z "},"Ẅ":{"ha":1310,"x_min":115,"x_max":1346,"o":"m 631 1207 l 667 1207 q 697 1174 701 1207 l 685 1097 q 649 1064 681 1064 l 610 1064 q 579 1096 575 1064 l 592 1174 q 631 1207 596 1207 m 865 1207 l 901 1207 q 932 1174 936 1207 l 919 1097 q 883 1064 915 1064 l 844 1064 q 814 1096 810 1064 l 826 1174 q 865 1207 831 1207 m 1346 958 l 1019 33 q 969 0 1008 0 l 833 0 q 803 11 815 0 q 789 40 790 22 l 739 761 q 735 806 739 765 q 731 867 732 846 l 701 867 l 664 756 l 415 35 q 365 0 404 0 l 231 0 q 199 11 213 0 q 185 39 186 22 l 115 958 l 240 958 l 285 210 q 289 90 285 203 l 322 90 l 363 214 l 608 919 q 658 958 619 958 l 790 958 q 819 946 807 958 q 832 915 831 933 l 889 208 q 894 90 894 131 l 929 90 l 967 211 l 1218 958 l 1346 958 z "},"ẅ":{"ha":1181,"x_min":63,"x_max":1160,"o":"m 528 958 l 564 958 q 594 925 600 958 l 583 849 q 546 815 579 815 l 507 815 q 478 847 474 815 l 489 925 q 528 958 494 958 m 763 958 l 799 958 q 829 925 836 958 l 818 849 q 781 815 814 815 l 742 815 q 713 847 708 815 l 724 925 q 763 958 731 958 m 281 93 l 299 93 q 364 142 336 93 q 440 332 406 215 q 513 647 479 450 q 546 676 517 676 l 675 676 q 706 649 703 676 l 774 93 l 790 93 q 847 136 821 93 q 946 332 908 232 q 1036 676 1003 476 l 1160 676 q 1036 283 1108 447 q 917 67 971 135 q 863 16 889 32 q 797 0 836 0 l 719 0 q 682 32 688 0 l 618 599 l 600 599 q 536 303 585 460 q 443 88 494 168 q 294 0 393 0 l 225 0 q 188 32 194 0 l 63 676 l 185 676 l 281 93 z "},"Ỳ":{"ha":785,"x_min":89,"x_max":846,"o":"m 504 1011 l 247 1185 l 311 1268 l 547 1064 l 504 1011 m 440 335 l 393 0 l 269 0 l 318 340 l 89 958 l 214 958 l 358 551 q 386 443 379 489 l 397 443 q 454 556 418 499 l 713 958 l 846 958 l 440 335 z "},"ỳ":{"ha":749,"x_min":49,"x_max":726,"o":"m 433 761 l 176 935 l 240 1018 l 475 814 l 433 761 m 604 676 l 726 676 q 521 113 653 350 q 312 -174 414 -86 q 71 -286 210 -261 l 49 -201 q 201 -136 133 -182 q 332 0 268 -90 l 271 0 q 219 17 240 0 q 192 63 199 35 l 61 676 l 185 676 l 292 119 q 324 93 299 93 l 390 93 q 403 119 394 101 q 418 147 413 138 q 604 676 549 403 z "},"–":{"ha":821,"x_min":85,"x_max":719,"o":"m 707 306 l 85 306 l 97 396 l 719 396 l 707 306 z "},"—":{"ha":1243,"x_min":85,"x_max":1142,"o":"m 1129 306 l 85 306 l 97 396 l 1142 396 l 1129 306 z "},"‘":{"ha":301,"x_min":133,"x_max":279,"o":"m 206 682 l 171 682 q 133 724 125 682 l 144 808 q 222 1007 158 899 l 279 988 q 235 832 243 872 q 264 824 254 833 q 271 797 274 814 l 258 721 q 244 690 254 697 q 206 682 233 682 z "},"’":{"ha":299,"x_min":142,"x_max":288,"o":"m 215 994 l 250 994 q 288 951 296 994 l 276 868 q 199 669 263 778 l 142 688 q 186 843 178 801 q 157 852 167 842 q 150 879 147 863 l 163 956 q 177 987 167 979 q 215 994 188 994 z "},"‚":{"ha":317,"x_min":33,"x_max":182,"o":"m 108 153 l 144 153 q 182 110 190 153 l 169 26 q 92 -174 158 -61 l 33 -154 q 78 1 69 -39 q 49 10 58 0 q 42 38 40 19 l 54 114 q 70 144 60 136 q 108 153 81 153 z "},"“":{"ha":513,"x_min":133,"x_max":492,"o":"m 418 682 l 382 682 q 346 724 338 682 l 357 808 q 433 1007 368 897 l 492 988 q 447 832 460 893 q 475 824 465 833 q 483 797 485 814 l 471 721 q 455 690 465 697 q 418 682 444 682 m 206 682 l 171 682 q 133 724 125 682 l 144 808 q 222 1007 158 899 l 279 988 q 235 832 243 872 q 264 824 254 833 q 271 797 274 814 l 258 721 q 244 690 254 697 q 206 682 233 682 z "},"”":{"ha":511,"x_min":142,"x_max":500,"o":"m 215 994 l 250 994 q 288 951 296 994 l 276 868 q 199 669 263 778 l 142 688 q 186 843 178 801 q 157 852 167 842 q 150 879 147 863 l 163 956 q 177 987 167 979 q 215 994 188 994 m 426 994 l 463 994 q 500 951 508 994 l 488 868 q 411 669 476 779 l 353 688 q 397 843 388 789 q 369 852 379 842 q 363 879 360 863 l 374 956 q 390 987 379 979 q 426 994 400 994 z "},"„":{"ha":528,"x_min":33,"x_max":392,"o":"m 107 151 l 142 151 q 179 108 188 151 l 168 25 q 90 -174 154 -68 l 33 -156 q 78 0 69 -40 q 49 9 58 -1 q 42 36 39 19 l 54 113 q 69 144 58 136 q 107 151 79 151 m 319 151 l 354 151 q 392 108 400 151 l 379 25 q 303 -174 368 -67 l 244 -156 q 289 0 279 -53 q 261 9 271 -1 q 254 36 251 19 l 265 113 q 281 144 271 136 q 319 151 292 151 z "},"†":{"ha":622,"x_min":79,"x_max":604,"o":"m 286 -153 l 179 -153 l 290 603 l 300 669 l 335 960 l 443 960 l 397 669 l 388 603 l 286 -153 m 604 676 l 590 572 l 411 586 l 424 676 l 604 676 m 79 572 l 93 676 l 274 676 l 263 586 l 79 572 z "},"‡":{"ha":678,"x_min":44,"x_max":632,"o":"m 425 674 l 349 132 l 314 -153 l 206 -153 l 251 132 l 328 674 l 363 960 l 471 960 l 425 674 m 289 586 l 106 572 l 121 676 l 301 676 l 289 586 m 617 572 l 438 586 l 451 676 l 632 676 l 617 572 m 239 221 l 226 131 l 44 131 l 58 235 l 239 221 m 556 131 l 375 131 l 388 221 l 569 235 l 556 131 z "},"•":{"ha":501,"x_min":119,"x_max":374,"o":"m 254 497 l 271 497 q 358 470 335 497 q 374 379 382 443 l 371 361 q 334 269 361 293 q 242 246 307 246 l 225 246 q 133 273 157 246 q 119 368 110 300 l 122 386 q 158 474 131 451 q 254 497 186 497 z "},"…":{"ha":1168,"x_min":43,"x_max":1038,"o":"m 101 164 l 140 164 q 181 118 186 164 l 169 42 q 124 0 165 0 l 85 0 q 43 46 36 0 l 54 124 q 101 164 60 164 m 529 164 l 568 164 q 608 118 614 164 l 599 42 q 551 0 592 0 l 513 0 q 471 46 464 0 l 482 124 q 529 164 488 164 m 957 164 l 997 164 q 1038 118 1044 164 l 1026 42 q 981 0 1022 0 l 940 0 q 899 46 892 0 l 911 124 q 957 164 915 164 z "},"‰":{"ha":1758,"x_min":103,"x_max":1674,"o":"m 357 976 q 525 910 482 976 q 547 688 568 843 q 469 471 525 535 q 292 407 413 407 q 124 474 167 407 q 103 696 81 542 q 181 913 125 850 q 357 976 238 976 m 297 0 l 206 0 l 961 958 l 1053 958 l 297 0 m 360 901 q 243 856 276 901 q 192 688 210 810 q 197 526 176 571 q 288 482 217 482 q 406 528 372 482 q 457 696 440 575 q 453 857 474 813 q 360 901 433 901 m 969 556 q 1138 488 1096 556 q 1158 265 1181 421 q 1081 50 1138 114 q 903 -14 1024 -14 q 735 53 778 -14 q 715 275 693 121 q 792 492 736 428 q 969 556 849 556 m 1483 556 q 1653 488 1610 556 q 1674 265 1696 421 q 1596 50 1653 114 q 1418 -14 1539 -14 q 1251 53 1293 -14 q 1231 275 1208 121 q 1308 492 1251 428 q 1483 556 1364 556 m 972 481 q 856 434 889 481 q 804 265 822 388 q 808 104 789 149 q 900 60 828 60 q 1018 106 983 60 q 1069 275 1053 153 q 1066 436 1086 392 q 972 481 1046 481 m 1488 481 q 1371 434 1404 481 q 1319 265 1338 388 q 1323 105 1303 150 q 1415 60 1343 60 q 1533 106 1499 60 q 1585 275 1568 153 q 1581 435 1601 390 q 1488 481 1561 481 z "},"‹":{"ha":411,"x_min":51,"x_max":361,"o":"m 361 593 l 149 347 l 300 94 l 240 54 l 51 342 l 53 368 l 313 638 l 361 593 z "},"›":{"ha":413,"x_min":33,"x_max":343,"o":"m 343 351 l 342 325 l 82 54 l 33 99 l 246 346 l 96 599 l 154 638 l 343 351 z "},"⁄":{"ha":222,"x_min":-301,"x_max":542,"o":"m -207 0 l -301 0 l 447 958 l 542 958 l -207 0 z "},"€":{"ha":881,"x_min":64,"x_max":869,"o":"m 869 946 l 850 853 q 639 865 746 869 q 453 803 521 861 q 350 618 385 746 l 704 618 l 683 544 l 333 544 q 321 472 331 532 l 317 436 l 631 436 l 610 363 l 310 363 q 353 159 304 222 q 517 93 401 96 q 756 110 642 89 l 761 14 q 521 -17 657 -17 q 258 76 338 -17 q 185 363 178 169 l 64 363 l 75 436 l 190 436 l 196 483 q 206 544 200 521 l 90 544 l 101 618 l 221 618 q 367 888 267 801 q 647 975 467 975 q 869 946 769 975 z "},"™":{"ha":1329,"x_min":157,"x_max":1281,"o":"m 607 896 l 424 896 l 360 439 l 275 439 l 338 896 l 157 896 l 165 967 l 617 967 l 607 896 m 1160 967 l 1250 967 q 1274 956 1265 967 q 1281 931 1283 946 l 1233 439 l 1154 439 l 1197 901 l 1182 901 l 1003 526 q 967 501 992 501 l 901 501 q 868 532 871 501 l 790 901 l 774 901 l 690 439 l 611 439 l 701 936 q 735 967 707 967 l 822 967 q 854 938 851 967 l 918 631 q 924 594 921 619 q 929 557 928 569 l 946 557 q 975 631 960 597 l 1124 942 q 1160 967 1135 967 z "},"∂":{"ha":792,"x_min":60,"x_max":732,"o":"m 250 886 l 256 976 q 402 972 339 978 q 522 953 465 967 q 617 913 579 939 q 683 849 654 888 q 722 756 711 810 q 731 628 733 701 q 713 463 729 556 q 576 102 671 221 q 313 -17 481 -17 q 92 80 153 -17 q 60 319 31 176 q 169 542 88 458 q 385 624 251 625 q 601 513 532 621 q 616 644 614 590 q 607 741 618 697 q 572 811 596 785 q 503 856 547 838 q 398 880 458 874 q 250 886 338 886 m 315 89 q 492 181 431 89 q 589 447 554 274 q 410 524 515 524 q 176 310 221 524 q 190 147 156 206 q 315 89 224 89 z "},"∅":{"ha":951,"x_min":79,"x_max":892,"o":"m 199 760 q 258 820 199 760 q 486 879 318 879 q 773 760 654 879 q 892 474 892 642 q 773 186 892 306 q 486 67 654 67 q 198 186 317 67 q 79 474 79 306 q 199 760 79 642 m 443 335 l 518 335 q 538 424 518 383 q 583 489 558 465 q 628 549 608 513 q 649 628 649 586 q 486 757 649 757 q 317 742 417 757 l 321 679 q 486 692 404 692 q 578 628 578 692 q 557 566 578 599 q 510 507 536 533 q 464 435 485 481 q 443 335 443 389 m 508 238 l 454 238 q 444 226 444 238 l 444 175 q 454 165 444 165 l 508 165 q 519 175 519 165 l 519 226 q 508 238 519 238 z "},"∏":{"ha":999,"x_min":113,"x_max":1022,"o":"m 1007 858 l 863 858 l 722 -143 l 604 -143 l 746 858 l 375 858 l 235 -143 l 117 -143 l 257 858 l 113 858 l 126 958 l 1022 958 l 1007 858 z "},"∑":{"ha":815,"x_min":-11,"x_max":810,"o":"m 796 858 l 274 858 l 454 481 l 135 -53 l 682 -53 l 668 -151 l -11 -151 l 1 -53 l 326 483 l 149 858 l 161 958 l 810 958 l 796 858 z "},"−":{"ha":814,"x_min":96,"x_max":718,"o":"m 704 365 l 96 365 l 110 454 l 718 454 l 704 365 z "},"√":{"ha":782,"x_min":81,"x_max":864,"o":"m 864 1217 l 335 8 q 319 0 332 0 l 182 0 q 169 4 175 0 q 164 14 163 8 l 81 676 l 178 676 l 250 81 l 268 81 l 761 1217 l 864 1217 z "},"∞":{"ha":1079,"x_min":86,"x_max":1000,"o":"m 831 619 q 964 569 915 619 q 1000 426 1013 519 q 922 281 986 332 q 769 229 858 229 q 640 265 692 229 q 540 361 588 300 q 403 264 468 299 q 267 229 339 229 q 124 284 176 229 q 86 436 72 339 q 158 574 99 528 q 303 619 217 619 q 434 584 381 619 q 542 481 488 549 q 831 619 703 619 m 185 424 q 285 317 171 317 q 363 335 324 317 q 423 372 401 354 q 489 432 444 390 q 415 508 450 485 q 322 532 381 532 q 185 424 200 532 m 899 433 q 808 532 913 532 q 762 526 785 532 q 724 513 739 519 q 687 490 710 507 q 657 467 664 472 q 624 437 650 461 q 596 410 599 413 q 633 363 618 379 q 681 332 649 347 q 754 317 713 317 q 851 347 813 317 q 899 433 890 378 z "},"∫":{"ha":513,"x_min":-50,"x_max":546,"o":"m 164 -99 l 231 810 q 406 992 244 992 q 546 986 499 992 l 529 901 l 443 901 q 365 874 392 901 q 332 785 338 847 l 265 -126 q 216 -264 258 -219 q 83 -308 174 -308 q -50 -303 -11 -308 l -33 -218 l 50 -218 q 131 -190 103 -218 q 164 -99 158 -162 z "},"≈":{"ha":814,"x_min":75,"x_max":738,"o":"m 190 451 l 114 457 q 154 585 115 546 q 261 621 193 624 q 422 581 313 619 q 579 540 531 542 q 633 555 615 539 q 658 617 651 571 l 738 611 q 699 489 736 529 q 585 450 661 449 q 421 491 529 451 q 269 532 313 531 q 215 516 233 533 q 190 451 197 499 m 153 186 l 75 190 q 116 319 76 279 q 224 356 156 358 q 385 315 275 354 q 542 274 494 275 q 596 289 578 272 q 621 350 614 306 l 700 346 q 661 223 699 263 q 547 185 624 183 q 383 226 490 186 q 232 267 275 265 q 178 250 196 267 q 153 186 160 233 z "},"≠":{"ha":851,"x_min":94,"x_max":756,"o":"m 517 510 l 364 304 l 715 304 l 703 215 l 297 215 l 169 44 l 133 64 l 247 215 l 94 215 l 106 304 l 314 304 l 467 510 l 135 510 l 146 597 l 532 597 l 644 749 l 681 729 l 582 597 l 756 597 l 743 510 l 517 510 z "},"≤":{"ha":785,"x_min":53,"x_max":724,"o":"m 710 649 l 225 501 l 671 364 l 657 272 l 114 454 l 128 549 l 724 743 l 710 649 m 649 110 l 53 110 l 65 197 l 661 197 l 649 110 z "},"≥":{"ha":782,"x_min":53,"x_max":694,"o":"m 694 549 l 682 454 l 88 272 l 103 371 l 585 510 l 143 654 l 154 743 l 694 549 m 649 110 l 53 110 l 65 197 l 661 197 l 649 110 z "},"◊":{"ha":796,"x_min":58,"x_max":758,"o":"m 58 494 l 464 961 q 485 958 475 976 l 757 490 q 758 467 764 475 l 354 -4 q 332 0 340 -18 l 58 471 q 58 494 51 486 m 154 479 l 356 121 l 667 485 l 463 840 l 154 479 z "},"ﬁ":{"ha":838,"x_min":-167,"x_max":803,"o":"m 765 676 l 669 0 l 551 0 l 633 583 l 303 583 l 208 -83 q -6 -279 182 -279 q -167 -269 -78 -279 l -149 -181 l -43 -181 q 53 -157 24 -181 q 93 -65 83 -133 l 183 583 l 63 583 l 74 669 l 197 675 l 213 786 q 279 944 228 892 q 433 996 331 996 q 600 986 532 996 l 592 899 l 471 899 q 372 869 404 899 q 329 768 339 839 l 315 676 l 765 676 m 714 964 l 769 964 q 797 953 788 964 q 803 925 806 942 l 793 846 q 754 813 788 813 l 699 813 q 665 851 661 813 l 676 929 q 714 964 681 964 z "},"ﬂ":{"ha":922,"x_min":-167,"x_max":860,"o":"m 854 81 l 860 4 q 739 -12 819 -12 q 619 31 660 -12 q 589 149 579 74 l 694 900 l 471 900 q 372 870 404 900 q 329 768 339 840 l 315 676 l 518 676 l 506 583 l 303 583 l 208 -83 q -6 -279 182 -279 q -167 -269 -78 -279 l -149 -181 l -43 -181 q 53 -157 24 -181 q 93 -65 83 -133 l 183 583 l 63 583 l 74 669 l 197 675 l 213 786 q 279 944 228 892 q 433 996 331 997 q 821 979 740 992 l 711 169 q 786 81 699 81 l 854 81 z "}}}
